{"glyphs":{"0":{"ha":701,"x_min":0,"x_max":0,"o":"m 350 -14 b 610 294 513 -14 610 93 l 610 678 b 350 990 610 875 515 990 b 92 678 179 990 92 872 l 92 294 b 350 -14 92 93 181 -14 z m 350 21 b 128 294 200 21 128 119 l 128 678 b 350 958 128 851 200 958 b 574 678 499 958 574 850 l 574 294 b 350 21 574 118 494 21 z "},"1":{"ha":446,"x_min":0,"x_max":0,"o":"m 406 0 l 406 35 l 242 35 l 242 982 l 211 982 b 76 836 196 883 165 836 l 76 803 b 207 896 160 804 190 840 l 207 35 l 49 35 l 49 0 z "},"2":{"ha":646,"x_min":0,"x_max":0,"o":"m 578 0 l 578 35 l 114 35 b 346 397 114 203 231 301 b 567 732 457 490 567 581 l 567 767 b 336 990 567 903 489 990 b 93 750 182 990 93 907 l 93 619 l 128 619 l 128 751 b 336 958 128 886 201 958 b 531 768 469 958 531 888 l 531 732 b 317 418 531 593 425 508 b 79 35 200 321 79 218 l 79 0 z "},"3":{"ha":668,"x_min":0,"x_max":0,"o":"m 335 -14 b 582 231 496 -14 582 76 l 582 288 b 426 511 582 414 531 490 b 569 718 525 535 569 615 l 569 769 b 333 990 569 906 488 990 b 86 765 174 990 86 899 l 86 672 l 122 672 l 122 765 b 333 958 122 878 192 958 b 533 771 467 958 533 885 l 533 718 b 353 526 533 610 478 526 l 261 526 l 261 492 l 354 492 b 546 288 482 492 546 421 l 546 231 b 335 19 546 99 475 19 b 115 221 189 19 115 81 l 115 335 l 79 335 l 79 219 b 335 -14 79 56 167 -14 z "},"4":{"ha":633,"x_min":0,"x_max":0,"o":"m 596 264 l 596 296 l 454 296 l 454 981 l 418 981 l 40 294 l 40 264 l 421 264 l 421 0 l 454 0 l 454 264 z m 407 896 l 428 951 l 421 892 l 421 296 l 81 296 z "},"5":{"ha":676,"x_min":0,"x_max":0,"o":"m 335 -14 b 589 232 492 -14 589 72 l 589 438 b 358 676 589 597 507 676 b 143 547 244 676 183 618 b 183 947 153 653 176 879 l 500 947 b 553 981 546 947 553 953 l 154 981 l 104 481 l 128 471 l 142 499 b 358 644 179 575 246 644 b 553 435 486 644 553 575 l 553 232 b 335 19 553 94 467 19 b 132 207 203 19 132 99 l 132 324 l 96 324 l 96 207 b 335 -14 96 78 178 -14 z "},"6":{"ha":686,"x_min":0,"x_max":0,"o":"m 610 274 l 610 331 b 365 588 610 481 531 588 b 126 433 247 588 157 528 l 126 689 b 354 958 126 863 197 958 b 560 740 488 958 560 888 l 560 707 l 596 707 l 596 740 b 354 990 596 913 504 990 b 92 689 176 990 92 883 l 92 283 b 349 -14 92 82 179 -14 b 610 274 511 -14 610 72 z m 349 21 b 126 283 199 21 126 108 l 126 339 b 364 556 126 464 233 556 b 574 328 506 556 574 458 l 574 274 b 349 21 574 97 493 21 z "},"7":{"ha":571,"x_min":0,"x_max":0,"o":"m 213 0 b 528 950 263 363 417 722 l 528 981 l 40 981 l 40 947 l 490 947 b 176 0 379 721 228 368 z "},"8":{"ha":668,"x_min":0,"x_max":0,"o":"m 333 -14 b 600 215 503 -14 600 78 l 600 290 b 433 513 600 408 536 492 b 583 710 519 536 583 611 l 583 767 b 336 990 583 908 494 990 b 88 767 178 990 88 907 l 88 708 b 231 513 88 611 142 535 b 68 290 131 489 68 403 l 68 215 b 333 -14 68 76 161 -14 z m 353 526 l 313 526 b 124 710 182 526 124 615 l 124 768 b 336 958 124 885 200 958 b 547 769 474 958 547 888 l 547 711 b 353 526 547 613 482 526 z m 333 19 b 104 215 183 19 104 103 l 104 292 b 311 497 104 401 175 497 l 353 497 b 564 292 497 497 564 413 l 564 215 b 333 19 564 103 483 19 z "},"9":{"ha":681,"x_min":0,"x_max":0,"o":"m 325 421 b 113 649 183 421 113 518 l 113 703 b 335 956 113 879 190 956 b 554 693 485 956 554 868 l 554 654 b 325 421 554 517 456 421 z m 328 -14 b 589 288 506 -14 589 93 l 589 693 b 335 990 589 894 504 990 b 76 703 172 990 76 904 l 76 646 b 324 389 76 496 158 389 b 554 550 440 389 525 450 l 554 288 b 328 18 554 114 485 18 b 118 233 194 18 118 86 l 118 289 l 82 289 l 82 233 b 328 -14 82 61 178 -14 z "}," ":{"ha":324,"x_min":0,"x_max":0,"o":""}," ":{"ha":324,"x_min":0,"x_max":0,"o":""},"A":{"ha":642,"x_min":0,"x_max":0,"o":"m 293 831 l 317 942 l 340 833 l 479 304 l 161 304 z m 558 0 l 596 0 l 333 981 l 300 981 l 47 0 l 85 0 l 153 271 l 488 271 z "},"B":{"ha":681,"x_min":0,"x_max":0,"o":"m 376 0 b 610 229 560 0 610 81 l 610 306 b 453 510 610 426 564 490 b 597 715 558 532 597 603 l 597 767 b 360 981 597 906 535 981 l 117 981 l 117 0 z m 365 525 l 151 525 l 151 947 l 360 947 b 561 767 517 947 561 881 l 561 715 b 365 525 561 590 503 524 z m 367 493 b 574 306 517 493 574 428 l 574 229 b 376 33 574 106 536 33 l 151 33 l 151 493 z "},"C":{"ha":707,"x_min":0,"x_max":0,"o":"m 363 -14 b 628 296 539 -14 628 82 l 628 365 l 590 365 l 590 296 b 363 21 590 106 514 21 b 133 296 211 21 133 107 l 133 674 b 363 958 133 857 206 958 b 589 674 519 958 589 856 l 589 640 l 626 640 l 626 674 b 363 990 626 881 542 990 b 97 674 183 990 97 878 l 97 296 b 363 -14 97 81 185 -14 z "},"D":{"ha":714,"x_min":0,"x_max":0,"o":"m 117 0 l 318 0 b 617 315 500 0 617 92 l 617 668 b 315 981 617 888 501 981 l 117 981 z m 315 947 b 581 668 478 947 581 868 l 581 315 b 318 33 581 118 478 33 l 151 33 l 151 947 z "},"E":{"ha":608,"x_min":0,"x_max":0,"o":"m 557 33 l 151 33 l 151 496 l 493 496 l 493 529 l 151 529 l 151 947 l 546 947 l 546 981 l 117 981 l 117 0 l 557 0 z "},"F":{"ha":576,"x_min":0,"x_max":0,"o":"m 503 453 l 503 486 l 151 486 l 151 947 l 529 947 l 529 981 l 117 981 l 117 0 l 151 0 l 151 453 z "},"G":{"ha":726,"x_min":0,"x_max":0,"o":"m 592 0 l 617 0 l 617 492 l 357 492 l 357 458 l 586 458 l 586 306 b 358 21 586 115 499 21 b 133 294 211 21 133 106 l 133 665 b 372 958 133 861 210 958 b 581 731 508 958 581 888 l 581 678 l 617 678 l 617 731 b 372 990 617 907 526 990 b 97 665 188 990 97 882 l 97 294 b 358 -14 97 79 185 -14 b 588 179 476 -14 558 53 z "},"H":{"ha":717,"x_min":0,"x_max":0,"o":"m 565 0 l 600 0 l 600 981 l 565 981 l 565 503 l 151 503 l 151 981 l 117 981 l 117 0 l 151 0 l 151 469 l 565 469 z "},"I":{"ha":426,"x_min":0,"x_max":0,"o":"m 382 0 l 382 33 l 231 33 l 231 947 l 382 947 l 382 981 l 44 981 l 44 947 l 196 947 l 196 33 l 44 33 l 44 0 z "},"J":{"ha":575,"x_min":0,"x_max":0,"o":"m 265 -14 b 469 225 407 -14 469 67 l 469 981 l 435 981 l 435 225 b 265 21 435 85 386 21 b 101 194 151 21 101 92 l 101 317 l 67 317 l 67 194 b 265 -14 67 67 132 -14 z "},"K":{"ha":663,"x_min":0,"x_max":0,"o":"m 353 554 l 590 0 l 629 0 l 357 625 l 604 981 l 564 981 l 163 406 l 149 374 l 151 435 l 151 981 l 117 981 l 117 0 l 151 0 l 151 340 l 336 603 z "},"L":{"ha":549,"x_min":0,"x_max":0,"o":"m 507 0 l 507 33 l 151 33 l 151 981 l 117 981 l 117 0 z "},"M":{"ha":829,"x_min":0,"x_max":0,"o":"m 151 758 l 147 933 l 157 904 l 404 376 l 424 376 l 671 903 l 682 935 l 678 758 l 678 0 l 713 0 l 713 981 l 676 981 l 414 426 l 153 981 l 117 981 l 117 0 l 151 0 z "},"N":{"ha":746,"x_min":0,"x_max":0,"o":"m 151 817 l 147 938 l 197 819 l 599 0 l 629 0 l 629 981 l 594 981 l 594 182 l 600 50 l 553 165 l 150 981 l 117 981 l 117 0 l 151 0 z "},"O":{"ha":725,"x_min":0,"x_max":0,"o":"m 363 -14 b 628 296 539 -14 628 82 l 628 674 b 363 990 628 881 542 990 b 97 674 183 990 97 878 l 97 296 b 363 -14 97 81 185 -14 z m 363 21 b 133 296 211 21 133 107 l 133 674 b 363 958 133 857 206 958 b 592 674 519 958 592 856 l 592 296 b 363 21 592 106 514 21 z "},"P":{"ha":664,"x_min":0,"x_max":0,"o":"m 338 324 b 586 578 504 322 586 426 l 586 729 b 332 981 586 876 508 981 l 117 981 l 117 0 l 151 0 l 151 324 z m 338 357 l 151 357 l 151 947 l 332 947 b 550 729 485 947 550 856 l 550 578 b 338 357 550 446 478 356 z "},"Q":{"ha":725,"x_min":0,"x_max":0,"o":"m 592 -132 l 496 11 b 628 296 583 53 628 144 l 628 674 b 363 990 628 881 542 990 b 97 674 183 990 97 878 l 97 296 b 363 -14 97 81 185 -14 b 464 0 400 -14 433 -10 l 544 -132 z m 363 21 b 133 296 211 21 133 107 l 133 674 b 363 958 133 857 206 958 b 592 674 519 958 592 856 l 592 296 b 363 21 592 106 514 21 z "},"R":{"ha":678,"x_min":0,"x_max":0,"o":"m 361 947 b 560 749 508 947 560 874 l 560 674 b 351 478 560 547 485 478 l 151 478 l 151 947 z m 353 447 b 549 274 496 447 549 404 l 549 63 b 561 0 549 38 553 13 l 603 0 b 583 63 590 13 583 38 l 583 274 b 442 464 583 399 544 450 b 596 674 544 488 596 558 l 596 749 b 361 981 596 899 528 981 l 117 981 l 117 0 l 151 0 l 151 447 z "},"S":{"ha":647,"x_min":0,"x_max":0,"o":"m 333 -14 b 585 218 503 -14 585 93 l 585 264 b 344 521 585 428 463 475 b 125 731 233 564 125 603 l 125 772 b 325 958 125 885 203 958 b 528 771 449 958 528 894 l 528 692 l 563 692 l 563 771 b 325 990 563 917 468 990 b 89 772 183 990 89 907 l 89 731 b 321 493 89 582 206 538 b 549 264 435 450 549 406 l 549 215 b 333 21 549 106 476 21 b 104 232 188 21 104 97 l 104 324 l 68 324 l 68 232 b 333 -14 68 72 163 -14 z "},"T":{"ha":546,"x_min":0,"x_max":0,"o":"m 504 947 l 504 981 l 42 981 l 42 947 l 251 947 l 251 0 l 286 0 l 286 947 z "},"U":{"ha":697,"x_min":0,"x_max":0,"o":"m 349 -14 b 589 278 513 -14 589 81 l 589 981 l 554 981 l 554 278 b 349 19 554 100 490 19 b 143 278 204 19 143 100 l 143 981 l 108 981 l 108 278 b 349 -14 108 81 181 -14 z "},"V":{"ha":635,"x_min":0,"x_max":0,"o":"m 332 0 l 593 981 l 556 981 l 344 169 l 315 57 l 288 172 l 85 981 l 47 981 l 299 0 z "},"W":{"ha":951,"x_min":0,"x_max":0,"o":"m 465 899 l 469 936 l 474 899 l 685 0 l 717 0 l 892 981 l 858 981 l 704 101 l 699 46 l 690 106 l 483 981 l 457 981 l 236 106 l 226 49 l 224 103 l 93 981 l 60 981 l 207 0 l 240 0 z "},"X":{"ha":601,"x_min":0,"x_max":0,"o":"m 290 474 l 301 501 l 314 474 l 536 0 l 575 0 l 321 531 l 542 981 l 503 981 l 311 578 l 303 557 l 294 578 l 107 981 l 68 981 l 283 531 l 24 0 l 63 0 z "},"Y":{"ha":613,"x_min":0,"x_max":0,"o":"m 318 0 l 318 350 l 565 981 l 528 981 l 307 407 l 301 376 l 296 407 l 85 981 l 47 981 l 283 351 l 283 0 z "},"Z":{"ha":578,"x_min":0,"x_max":0,"o":"m 524 0 l 524 35 l 92 35 l 513 950 l 513 981 l 81 981 l 81 947 l 472 947 l 50 32 l 50 0 z "},"Á":{"ha":642,"x_min":0,"x_max":0,"o":"m 293 831 l 317 942 l 340 833 l 479 304 l 161 304 z m 558 0 l 596 0 l 333 981 l 300 981 l 47 0 l 85 0 l 153 271 l 488 271 z m 301 1081 l 336 1081 l 481 1297 l 438 1297 z "},"Ă":{"ha":642,"x_min":0,"x_max":0,"o":"m 293 831 l 317 942 l 340 833 l 479 304 l 161 304 z m 558 0 l 596 0 l 333 981 l 300 981 l 47 0 l 85 0 l 153 271 l 488 271 z m 314 1075 b 478 1240 421 1075 472 1149 l 446 1240 b 315 1106 440 1164 399 1107 b 188 1240 224 1107 193 1164 l 154 1240 b 314 1075 160 1149 201 1075 z "},"Â":{"ha":642,"x_min":0,"x_max":0,"o":"m 293 831 l 317 942 l 340 833 l 479 304 l 161 304 z m 558 0 l 596 0 l 333 981 l 300 981 l 47 0 l 85 0 l 153 271 l 488 271 z m 415 1075 l 456 1075 l 335 1246 l 301 1246 l 178 1075 l 218 1075 l 318 1215 z "},"Ä":{"ha":642,"x_min":0,"x_max":0,"o":"m 293 831 l 317 942 l 340 833 l 479 304 l 161 304 z m 558 0 l 596 0 l 333 981 l 300 981 l 47 0 l 85 0 l 153 271 l 488 271 z m 232 1079 b 271 1122 256 1079 271 1092 b 233 1168 271 1151 258 1168 b 194 1124 208 1168 194 1151 b 232 1079 194 1092 210 1079 z m 392 1079 b 428 1122 414 1079 428 1092 b 392 1168 428 1151 417 1168 b 353 1124 367 1168 353 1151 b 392 1079 353 1092 367 1079 z "},"À":{"ha":642,"x_min":0,"x_max":0,"o":"m 293 831 l 317 942 l 340 833 l 479 304 l 161 304 z m 558 0 l 596 0 l 333 981 l 300 981 l 47 0 l 85 0 l 153 271 l 488 271 z m 303 1081 l 339 1081 l 219 1254 l 175 1254 z "},"Ā":{"ha":642,"x_min":0,"x_max":0,"o":"m 293 831 l 317 942 l 340 833 l 479 304 l 161 304 z m 558 0 l 596 0 l 333 981 l 300 981 l 47 0 l 85 0 l 153 271 l 488 271 z m 179 1107 l 453 1107 l 453 1140 l 179 1140 z "},"Ʌ":{"ha":642,"x_min":0,"x_max":0,"o":"m 314 914 l 317 931 l 319 914 l 558 0 l 596 0 l 333 981 l 300 981 l 47 0 l 85 0 z "},"Ą":{"ha":642,"x_min":0,"x_max":0,"o":"m 293 831 l 317 942 l 340 833 l 479 304 l 161 304 z m 717 -143 l 679 -143 b 571 -211 661 -187 625 -211 b 481 -135 515 -211 481 -179 b 594 0 481 -90 514 -49 l 596 0 l 333 981 l 300 981 l 47 0 l 85 0 l 153 271 l 488 271 l 556 11 b 447 -136 485 -35 447 -85 b 571 -243 447 -200 490 -243 b 717 -143 646 -243 692 -207 z "},"Å":{"ha":642,"x_min":0,"x_max":0,"o":"m 293 831 l 317 942 l 340 833 l 479 304 l 161 304 z m 558 0 l 596 0 l 333 981 l 300 981 l 47 0 l 85 0 l 153 271 l 488 271 z m 314 1071 b 424 1179 379 1071 424 1114 b 314 1288 424 1246 379 1288 b 206 1179 251 1288 206 1244 b 314 1071 206 1117 250 1071 z m 314 1103 b 240 1179 268 1103 240 1135 b 314 1256 240 1225 269 1256 b 390 1179 360 1256 390 1225 b 314 1103 390 1132 360 1103 z "},"Ǻ":{"ha":642,"x_min":0,"x_max":0,"o":"m 308 1240 l 343 1240 l 488 1457 l 444 1457 z m 318 981 b 244 1057 272 981 244 1013 b 318 1133 244 1103 274 1133 b 394 1057 364 1133 394 1103 b 318 981 394 1010 364 981 z m 293 831 l 317 942 l 340 833 l 479 304 l 161 304 z m 153 271 l 488 271 l 558 0 l 596 0 l 342 950 b 428 1057 393 960 428 1000 b 318 1165 428 1124 383 1165 b 210 1057 256 1165 210 1122 b 293 951 210 1003 243 961 l 47 0 l 85 0 z "},"Ã":{"ha":642,"x_min":0,"x_max":0,"o":"m 293 831 l 317 942 l 340 833 l 479 304 l 161 304 z m 558 0 l 596 0 l 333 981 l 300 981 l 47 0 l 85 0 l 153 271 l 488 271 z m 136 1083 l 167 1083 b 221 1157 167 1132 181 1157 b 401 1082 278 1157 329 1082 b 489 1188 460 1082 489 1121 l 458 1188 b 403 1113 458 1135 439 1113 b 221 1188 349 1113 299 1188 b 136 1083 164 1188 136 1151 z "},"Æ":{"ha":904,"x_min":0,"x_max":0,"o":"m 367 865 l 385 942 l 390 868 l 460 304 l 174 304 z m 497 0 l 853 0 l 853 33 l 526 33 l 472 472 l 789 472 l 789 506 l 468 506 l 413 947 l 842 947 l 842 981 l 374 981 l 32 0 l 69 0 l 163 271 l 464 271 z "},"Ǽ":{"ha":904,"x_min":0,"x_max":0,"o":"m 367 865 l 385 942 l 390 868 l 460 304 l 174 304 z m 497 0 l 853 0 l 853 33 l 526 33 l 472 472 l 789 472 l 789 506 l 468 506 l 413 947 l 842 947 l 842 981 l 374 981 l 32 0 l 69 0 l 163 271 l 464 271 z m 371 1081 l 406 1081 l 550 1297 l 507 1297 z "},"Ć":{"ha":707,"x_min":0,"x_max":0,"o":"m 363 -14 b 628 296 539 -14 628 82 l 628 365 l 590 365 l 590 296 b 363 21 590 106 514 21 b 133 296 211 21 133 107 l 133 674 b 363 958 133 857 206 958 b 589 674 519 958 589 856 l 589 640 l 626 640 l 626 674 b 363 990 626 881 542 990 b 97 674 183 990 97 878 l 97 296 b 363 -14 97 81 185 -14 z m 350 1090 l 385 1090 l 529 1307 l 486 1307 z "},"Č":{"ha":707,"x_min":0,"x_max":0,"o":"m 363 -14 b 628 296 539 -14 628 82 l 628 365 l 590 365 l 590 296 b 363 21 590 106 514 21 b 133 296 211 21 133 107 l 133 674 b 363 958 133 857 206 958 b 589 674 519 958 589 856 l 589 640 l 626 640 l 626 674 b 363 990 626 881 542 990 b 97 674 183 990 97 878 l 97 296 b 363 -14 97 81 185 -14 z m 382 1088 l 510 1254 l 468 1254 l 369 1119 l 275 1254 l 233 1254 l 354 1088 z "},"Ç":{"ha":707,"x_min":0,"x_max":0,"o":"m 372 -272 b 503 -171 451 -272 503 -232 b 385 -85 503 -114 463 -86 l 385 -14 b 628 296 546 -6 628 92 l 628 365 l 590 365 l 590 296 b 363 21 590 106 514 21 b 133 296 211 21 133 107 l 133 674 b 363 958 133 857 206 958 b 589 674 519 958 589 856 l 589 640 l 626 640 l 626 674 b 363 990 626 881 542 990 b 97 674 183 990 97 878 l 97 296 b 350 -14 97 86 181 -10 l 350 -114 l 371 -114 b 468 -174 442 -114 468 -128 b 372 -240 468 -221 431 -240 b 274 -168 317 -240 281 -219 l 238 -168 b 372 -272 247 -236 292 -272 z "},"Ĉ":{"ha":707,"x_min":0,"x_max":0,"o":"m 363 -14 b 628 296 539 -14 628 82 l 628 365 l 590 365 l 590 296 b 363 21 590 106 514 21 b 133 296 211 21 133 107 l 133 674 b 363 958 133 857 206 958 b 589 674 519 958 589 856 l 589 640 l 626 640 l 626 674 b 363 990 626 881 542 990 b 97 674 183 990 97 878 l 97 296 b 363 -14 97 81 185 -14 z m 465 1088 l 506 1088 l 385 1258 l 351 1258 l 228 1088 l 268 1088 l 368 1228 z "},"Ċ":{"ha":707,"x_min":0,"x_max":0,"o":"m 363 -14 b 628 296 539 -14 628 82 l 628 365 l 590 365 l 590 296 b 363 21 590 106 514 21 b 133 296 211 21 133 107 l 133 674 b 363 958 133 857 206 958 b 589 674 519 958 589 856 l 589 640 l 626 640 l 626 674 b 363 990 626 881 542 990 b 97 674 183 990 97 878 l 97 296 b 363 -14 97 81 185 -14 z m 368 1089 b 410 1136 393 1089 410 1103 b 369 1188 410 1168 396 1188 b 326 1138 342 1188 326 1169 b 368 1089 326 1103 342 1089 z "},"Ď":{"ha":714,"x_min":0,"x_max":0,"o":"m 117 0 l 318 0 b 617 315 500 0 617 92 l 617 668 b 315 981 617 888 501 981 l 117 981 z m 315 947 b 581 668 478 947 581 868 l 581 315 b 318 33 581 118 478 33 l 151 33 l 151 947 z m 353 1076 l 481 1243 l 439 1243 l 340 1108 l 246 1243 l 204 1243 l 325 1076 z "},"Đ":{"ha":722,"x_min":0,"x_max":0,"o":"m 326 0 b 625 315 508 0 625 92 l 625 668 b 324 981 625 888 510 981 l 125 981 l 125 503 l 18 503 l 18 472 l 125 472 l 125 0 z m 301 472 l 301 503 l 160 503 l 160 947 l 324 947 b 589 668 486 947 589 868 l 589 315 b 326 33 589 118 486 33 l 160 33 l 160 472 z "},"Ð":{"ha":722,"x_min":0,"x_max":0,"o":"m 326 0 b 625 315 508 0 625 92 l 625 668 b 324 981 625 888 510 981 l 125 981 l 125 503 l 18 503 l 18 472 l 125 472 l 125 0 z m 301 472 l 301 503 l 160 503 l 160 947 l 324 947 b 589 668 486 947 589 868 l 589 315 b 326 33 589 118 486 33 l 160 33 l 160 472 z "},"É":{"ha":608,"x_min":0,"x_max":0,"o":"m 557 33 l 151 33 l 151 496 l 493 496 l 493 529 l 151 529 l 151 947 l 546 947 l 546 981 l 117 981 l 117 0 l 557 0 z m 319 1081 l 354 1081 l 499 1297 l 456 1297 z "},"Ĕ":{"ha":608,"x_min":0,"x_max":0,"o":"m 557 33 l 151 33 l 151 496 l 493 496 l 493 529 l 151 529 l 151 947 l 546 947 l 546 981 l 117 981 l 117 0 l 557 0 z m 338 1075 b 501 1240 444 1075 496 1149 l 469 1240 b 339 1106 464 1164 422 1107 b 211 1240 247 1107 217 1164 l 178 1240 b 338 1075 183 1149 225 1075 z "},"Ě":{"ha":608,"x_min":0,"x_max":0,"o":"m 557 33 l 151 33 l 151 496 l 493 496 l 493 529 l 151 529 l 151 947 l 546 947 l 546 981 l 117 981 l 117 0 l 557 0 z m 349 1078 l 476 1244 l 435 1244 l 336 1110 l 242 1244 l 200 1244 l 321 1078 z "},"Ê":{"ha":608,"x_min":0,"x_max":0,"o":"m 557 33 l 151 33 l 151 496 l 493 496 l 493 529 l 151 529 l 151 947 l 546 947 l 546 981 l 117 981 l 117 0 l 557 0 z m 438 1079 l 478 1079 l 357 1250 l 324 1250 l 200 1079 l 240 1079 l 340 1219 z "},"Ë":{"ha":608,"x_min":0,"x_max":0,"o":"m 557 33 l 151 33 l 151 496 l 493 496 l 493 529 l 151 529 l 151 947 l 546 947 l 546 981 l 117 981 l 117 0 l 557 0 z m 257 1085 b 296 1128 281 1085 296 1097 b 258 1174 296 1157 283 1174 b 219 1129 233 1174 219 1157 b 257 1085 219 1097 235 1085 z m 417 1085 b 453 1128 439 1085 453 1097 b 417 1174 453 1157 442 1174 b 378 1129 392 1174 378 1157 b 417 1085 378 1097 392 1085 z "},"Ė":{"ha":608,"x_min":0,"x_max":0,"o":"m 557 33 l 151 33 l 151 496 l 493 496 l 493 529 l 151 529 l 151 947 l 546 947 l 546 981 l 117 981 l 117 0 l 557 0 z m 338 1079 b 379 1126 363 1079 379 1093 b 339 1178 379 1158 365 1178 b 296 1128 311 1178 296 1160 b 338 1079 296 1093 311 1079 z "},"È":{"ha":608,"x_min":0,"x_max":0,"o":"m 557 33 l 151 33 l 151 496 l 493 496 l 493 529 l 151 529 l 151 947 l 546 947 l 546 981 l 117 981 l 117 0 l 557 0 z m 328 1081 l 364 1081 l 244 1254 l 200 1254 z "},"Ē":{"ha":608,"x_min":0,"x_max":0,"o":"m 557 33 l 151 33 l 151 496 l 493 496 l 493 529 l 151 529 l 151 947 l 546 947 l 546 981 l 117 981 l 117 0 l 557 0 z m 204 1107 l 478 1107 l 478 1140 l 204 1140 z "},"Ę":{"ha":608,"x_min":0,"x_max":0,"o":"m 679 -143 l 642 -143 b 533 -211 624 -187 588 -211 b 443 -135 478 -211 443 -179 b 557 0 443 -90 476 -49 l 557 33 l 151 33 l 151 496 l 493 496 l 493 529 l 151 529 l 151 947 l 546 947 l 546 981 l 117 981 l 117 0 l 501 0 b 410 -136 442 -43 410 -89 b 533 -243 410 -200 453 -243 b 679 -143 608 -243 654 -207 z "},"Ğ":{"ha":726,"x_min":0,"x_max":0,"o":"m 592 0 l 617 0 l 617 492 l 357 492 l 357 458 l 586 458 l 586 306 b 358 21 586 115 499 21 b 133 294 211 21 133 106 l 133 665 b 372 958 133 861 210 958 b 581 731 508 958 581 888 l 581 678 l 617 678 l 617 731 b 372 990 617 907 526 990 b 97 665 188 990 97 882 l 97 294 b 358 -14 97 79 185 -14 b 588 179 476 -14 558 53 z m 372 1085 b 536 1250 479 1085 531 1158 l 504 1250 b 374 1115 499 1174 457 1117 b 246 1250 282 1117 251 1174 l 213 1250 b 372 1085 218 1158 260 1085 z "},"Ĝ":{"ha":726,"x_min":0,"x_max":0,"o":"m 592 0 l 617 0 l 617 492 l 357 492 l 357 458 l 586 458 l 586 306 b 358 21 586 115 499 21 b 133 294 211 21 133 106 l 133 665 b 372 958 133 861 210 958 b 581 731 508 958 581 888 l 581 678 l 617 678 l 617 731 b 372 990 617 907 526 990 b 97 665 188 990 97 882 l 97 294 b 358 -14 97 79 185 -14 b 588 179 476 -14 558 53 z m 475 1089 l 515 1089 l 394 1260 l 361 1260 l 238 1089 l 278 1089 l 378 1229 z "},"Ģ":{"ha":726,"x_min":0,"x_max":0,"o":"m 592 0 l 617 0 l 617 492 l 357 492 l 357 458 l 586 458 l 586 306 b 358 21 586 115 499 21 b 133 294 211 21 133 106 l 133 665 b 372 958 133 861 210 958 b 581 731 508 958 581 888 l 581 678 l 617 678 l 617 731 b 372 990 617 907 526 990 b 97 665 188 990 97 882 l 97 294 b 358 -14 97 79 185 -14 b 588 179 476 -14 558 53 z m 336 -303 b 413 -161 381 -271 413 -221 b 371 -94 413 -114 397 -94 b 332 -140 347 -94 332 -111 b 364 -182 332 -172 347 -182 b 382 -174 371 -182 376 -179 b 319 -283 378 -222 353 -260 z "},"Ġ":{"ha":726,"x_min":0,"x_max":0,"o":"m 592 0 l 617 0 l 617 492 l 357 492 l 357 458 l 586 458 l 586 306 b 358 21 586 115 499 21 b 133 294 211 21 133 106 l 133 665 b 372 958 133 861 210 958 b 581 731 508 958 581 888 l 581 678 l 617 678 l 617 731 b 372 990 617 907 526 990 b 97 665 188 990 97 882 l 97 294 b 358 -14 97 79 185 -14 b 588 179 476 -14 558 53 z m 372 1089 b 414 1136 397 1089 414 1103 b 374 1188 414 1168 400 1188 b 331 1138 346 1188 331 1169 b 372 1089 331 1103 346 1089 z "},"Ħ":{"ha":728,"x_min":0,"x_max":0,"o":"m 571 503 l 157 503 l 157 729 l 571 729 z m 571 0 l 606 0 l 606 729 l 710 729 l 710 761 l 606 761 l 606 981 l 571 981 l 571 761 l 157 761 l 157 981 l 122 981 l 122 761 l 18 761 l 18 729 l 122 729 l 122 0 l 157 0 l 157 469 l 571 469 z "},"Ĥ":{"ha":717,"x_min":0,"x_max":0,"o":"m 565 0 l 600 0 l 600 981 l 565 981 l 565 503 l 151 503 l 151 981 l 117 981 l 117 0 l 151 0 l 151 469 l 565 469 z m 457 1068 l 497 1068 l 376 1239 l 343 1239 l 219 1068 l 260 1068 l 360 1208 z "},"Í":{"ha":426,"x_min":0,"x_max":0,"o":"m 382 0 l 382 33 l 231 33 l 231 947 l 382 947 l 382 981 l 44 981 l 44 947 l 196 947 l 196 33 l 44 33 l 44 0 z m 193 1081 l 228 1081 l 372 1297 l 329 1297 z "},"Ĭ":{"ha":426,"x_min":0,"x_max":0,"o":"m 382 0 l 382 33 l 231 33 l 231 947 l 382 947 l 382 981 l 44 981 l 44 947 l 196 947 l 196 33 l 44 33 l 44 0 z m 211 1075 b 375 1240 318 1075 369 1149 l 343 1240 b 213 1106 338 1164 296 1107 b 85 1240 121 1107 90 1164 l 51 1240 b 211 1075 57 1149 99 1075 z "},"Î":{"ha":426,"x_min":0,"x_max":0,"o":"m 382 0 l 382 33 l 231 33 l 231 947 l 382 947 l 382 981 l 44 981 l 44 947 l 196 947 l 196 33 l 44 33 l 44 0 z m 314 1079 l 354 1079 l 233 1250 l 200 1250 l 76 1079 l 117 1079 l 217 1219 z "},"Ï":{"ha":426,"x_min":0,"x_max":0,"o":"m 382 0 l 382 33 l 231 33 l 231 947 l 382 947 l 382 981 l 44 981 l 44 947 l 196 947 l 196 33 l 44 33 l 44 0 z m 131 1085 b 169 1128 154 1085 169 1097 b 132 1174 169 1157 157 1174 b 93 1129 107 1174 93 1157 b 131 1085 93 1097 108 1085 z m 290 1085 b 326 1128 313 1085 326 1097 b 290 1174 326 1157 315 1174 b 251 1129 265 1174 251 1157 b 290 1085 251 1097 265 1085 z "},"İ":{"ha":426,"x_min":0,"x_max":0,"o":"m 382 0 l 382 33 l 231 33 l 231 947 l 382 947 l 382 981 l 44 981 l 44 947 l 196 947 l 196 33 l 44 33 l 44 0 z m 211 1079 b 253 1126 236 1079 253 1093 b 213 1178 253 1158 239 1178 b 169 1128 185 1178 169 1160 b 211 1079 169 1093 185 1079 z "},"Ì":{"ha":426,"x_min":0,"x_max":0,"o":"m 382 0 l 382 33 l 231 33 l 231 947 l 382 947 l 382 981 l 44 981 l 44 947 l 196 947 l 196 33 l 44 33 l 44 0 z m 201 1081 l 238 1081 l 118 1254 l 74 1254 z "},"Ī":{"ha":426,"x_min":0,"x_max":0,"o":"m 382 0 l 382 33 l 231 33 l 231 947 l 382 947 l 382 981 l 44 981 l 44 947 l 196 947 l 196 33 l 44 33 l 44 0 z m 78 1107 l 351 1107 l 351 1140 l 78 1140 z "},"Į":{"ha":426,"x_min":0,"x_max":0,"o":"m 504 -143 l 467 -143 b 358 -211 449 -187 413 -211 b 268 -135 303 -211 268 -179 b 382 0 268 -90 301 -49 l 382 33 l 231 33 l 231 947 l 382 947 l 382 981 l 44 981 l 44 947 l 196 947 l 196 33 l 44 33 l 44 0 l 326 0 b 235 -136 267 -43 235 -89 b 358 -243 235 -200 278 -243 b 504 -143 433 -243 479 -207 z "},"Ĩ":{"ha":426,"x_min":0,"x_max":0,"o":"m 382 0 l 382 33 l 231 33 l 231 947 l 382 947 l 382 981 l 44 981 l 44 947 l 196 947 l 196 33 l 44 33 l 44 0 z m 35 1083 l 65 1083 b 119 1157 65 1132 79 1157 b 300 1082 176 1157 228 1082 b 388 1188 358 1082 388 1121 l 357 1188 b 301 1113 357 1135 338 1113 b 119 1188 247 1113 197 1188 b 35 1083 63 1188 35 1151 z "},"Ĵ":{"ha":575,"x_min":0,"x_max":0,"o":"m 265 -14 b 469 225 407 -14 469 67 l 469 981 l 435 981 l 435 225 b 265 21 435 85 386 21 b 101 194 151 21 101 92 l 101 317 l 67 317 l 67 194 b 265 -14 67 67 132 -14 z m 553 1079 l 593 1079 l 472 1250 l 439 1250 l 315 1079 l 356 1079 l 456 1219 z "},"Ķ":{"ha":663,"x_min":0,"x_max":0,"o":"m 353 554 l 590 0 l 629 0 l 357 625 l 604 981 l 564 981 l 163 406 l 149 374 l 151 435 l 151 981 l 117 981 l 117 0 l 151 0 l 151 340 l 336 603 z m 328 -282 b 404 -140 372 -250 404 -200 b 363 -74 404 -93 389 -74 b 324 -119 339 -74 324 -90 b 356 -161 324 -151 339 -161 b 374 -153 363 -161 368 -158 b 311 -262 369 -201 344 -239 z "},"Ĺ":{"ha":549,"x_min":0,"x_max":0,"o":"m 507 0 l 507 33 l 151 33 l 151 981 l 117 981 l 117 0 z m 113 1081 l 147 1081 l 292 1297 l 249 1297 z "},"Ľ":{"ha":549,"x_min":0,"x_max":0,"o":"m 507 0 l 507 33 l 151 33 l 151 981 l 117 981 l 117 0 z m 299 883 l 329 883 l 399 1075 l 357 1075 z "},"Ļ":{"ha":549,"x_min":0,"x_max":0,"o":"m 507 0 l 507 33 l 151 33 l 151 981 l 117 981 l 117 0 z m 279 -290 b 356 -149 324 -258 356 -208 b 314 -82 356 -101 340 -82 b 275 -128 290 -82 275 -99 b 307 -169 275 -160 290 -169 b 325 -161 314 -169 319 -167 b 263 -271 321 -210 296 -247 z "},"Ŀ":{"ha":549,"x_min":0,"x_max":0,"o":"m 507 0 l 507 33 l 151 33 l 151 981 l 117 981 l 117 0 z m 460 338 b 501 385 485 338 501 351 b 461 436 501 417 488 436 b 418 386 433 436 418 418 b 460 338 418 351 433 338 z "},"Ł":{"ha":556,"x_min":0,"x_max":0,"o":"m 514 0 l 514 33 l 158 33 l 158 500 l 304 543 l 296 572 l 158 532 l 158 981 l 124 981 l 124 522 l 18 492 l 28 463 l 124 490 l 124 0 z "},"Ń":{"ha":746,"x_min":0,"x_max":0,"o":"m 151 817 l 147 938 l 197 819 l 599 0 l 629 0 l 629 981 l 594 981 l 594 182 l 600 50 l 553 165 l 150 981 l 117 981 l 117 0 l 151 0 z m 353 1056 l 388 1056 l 532 1272 l 489 1272 z "},"Ň":{"ha":746,"x_min":0,"x_max":0,"o":"m 151 817 l 147 938 l 197 819 l 599 0 l 629 0 l 629 981 l 594 981 l 594 182 l 600 50 l 553 165 l 150 981 l 117 981 l 117 0 l 151 0 z m 385 1057 l 513 1224 l 471 1224 l 372 1089 l 278 1224 l 236 1224 l 357 1057 z "},"Ņ":{"ha":746,"x_min":0,"x_max":0,"o":"m 151 817 l 147 938 l 197 819 l 599 0 l 629 0 l 629 981 l 594 981 l 594 182 l 600 50 l 553 165 l 150 981 l 117 981 l 117 0 l 151 0 z m 331 -281 b 407 -139 375 -249 407 -199 b 365 -72 407 -92 392 -72 b 326 -118 342 -72 326 -89 b 358 -160 326 -150 342 -160 b 376 -151 365 -160 371 -157 b 314 -261 372 -200 347 -237 z "},"Ñ":{"ha":746,"x_min":0,"x_max":0,"o":"m 151 817 l 147 938 l 197 819 l 599 0 l 629 0 l 629 981 l 594 981 l 594 182 l 600 50 l 553 165 l 150 981 l 117 981 l 117 0 l 151 0 z m 215 1090 l 246 1090 b 300 1164 246 1139 260 1164 b 481 1089 357 1164 408 1089 b 568 1194 539 1089 568 1128 l 538 1194 b 482 1119 538 1142 518 1119 b 300 1194 428 1119 378 1194 b 215 1090 243 1194 215 1158 z "},"Ŋ":{"ha":746,"x_min":0,"x_max":0,"o":"m 471 -212 b 629 -31 594 -212 629 -174 l 629 981 l 594 981 l 594 182 l 600 50 l 546 181 l 150 981 l 117 981 l 117 0 l 151 0 l 151 817 l 147 938 l 196 821 l 594 8 l 594 -31 b 469 -182 594 -151 569 -182 l 440 -182 l 440 -212 z "},"Ó":{"ha":725,"x_min":0,"x_max":0,"o":"m 363 -14 b 628 296 539 -14 628 82 l 628 674 b 363 990 628 881 542 990 b 97 674 183 990 97 878 l 97 296 b 363 -14 97 81 185 -14 z m 363 21 b 133 296 211 21 133 107 l 133 674 b 363 958 133 857 206 958 b 592 674 519 958 592 856 l 592 296 b 363 21 592 106 514 21 z m 351 1089 l 386 1089 l 531 1306 l 488 1306 z "},"Ŏ":{"ha":725,"x_min":0,"x_max":0,"o":"m 363 -14 b 628 296 539 -14 628 82 l 628 674 b 363 990 628 881 542 990 b 97 674 183 990 97 878 l 97 296 b 363 -14 97 81 185 -14 z m 363 21 b 133 296 211 21 133 107 l 133 674 b 363 958 133 857 206 958 b 592 674 519 958 592 856 l 592 296 b 363 21 592 106 514 21 z m 361 1083 b 525 1249 468 1083 519 1157 l 493 1249 b 363 1114 488 1172 446 1115 b 235 1249 271 1115 240 1172 l 201 1249 b 361 1083 207 1157 249 1083 z "},"Ô":{"ha":725,"x_min":0,"x_max":0,"o":"m 363 -14 b 628 296 539 -14 628 82 l 628 674 b 363 990 628 881 542 990 b 97 674 183 990 97 878 l 97 296 b 363 -14 97 81 185 -14 z m 363 21 b 133 296 211 21 133 107 l 133 674 b 363 958 133 857 206 958 b 592 674 519 958 592 856 l 592 296 b 363 21 592 106 514 21 z m 464 1088 l 504 1088 l 383 1258 l 350 1258 l 226 1088 l 267 1088 l 367 1228 z "},"Ö":{"ha":725,"x_min":0,"x_max":0,"o":"m 363 -14 b 628 296 539 -14 628 82 l 628 674 b 363 990 628 881 542 990 b 97 674 183 990 97 878 l 97 296 b 363 -14 97 81 185 -14 z m 363 21 b 133 296 211 21 133 107 l 133 674 b 363 958 133 857 206 958 b 592 674 519 958 592 856 l 592 296 b 363 21 592 106 514 21 z m 281 1093 b 319 1136 304 1093 319 1106 b 282 1182 319 1165 307 1182 b 243 1138 257 1182 243 1165 b 281 1093 243 1106 258 1093 z m 440 1093 b 476 1136 463 1093 476 1106 b 440 1182 476 1165 465 1182 b 401 1138 415 1182 401 1165 b 440 1093 401 1106 415 1093 z "},"Ò":{"ha":725,"x_min":0,"x_max":0,"o":"m 363 -14 b 628 296 539 -14 628 82 l 628 674 b 363 990 628 881 542 990 b 97 674 183 990 97 878 l 97 296 b 363 -14 97 81 185 -14 z m 363 21 b 133 296 211 21 133 107 l 133 674 b 363 958 133 857 206 958 b 592 674 519 958 592 856 l 592 296 b 363 21 592 106 514 21 z m 351 1089 l 388 1089 l 268 1263 l 224 1263 z "},"Ő":{"ha":725,"x_min":0,"x_max":0,"o":"m 363 -14 b 628 296 539 -14 628 82 l 628 674 b 363 990 628 881 542 990 b 97 674 183 990 97 878 l 97 296 b 363 -14 97 81 185 -14 z m 363 21 b 133 296 211 21 133 107 l 133 674 b 363 958 133 857 206 958 b 592 674 519 958 592 856 l 592 296 b 363 21 592 106 514 21 z m 576 1263 l 529 1263 l 401 1089 l 438 1089 z m 439 1263 l 393 1263 l 282 1089 l 317 1089 z "},"Ō":{"ha":725,"x_min":0,"x_max":0,"o":"m 363 -14 b 628 296 539 -14 628 82 l 628 674 b 363 990 628 881 542 990 b 97 674 183 990 97 878 l 97 296 b 363 -14 97 81 185 -14 z m 363 21 b 133 296 211 21 133 107 l 133 674 b 363 958 133 857 206 958 b 592 674 519 958 592 856 l 592 296 b 363 21 592 106 514 21 z m 228 1115 l 501 1115 l 501 1149 l 228 1149 z "},"Ø":{"ha":725,"x_min":0,"x_max":0,"o":"m 133 296 l 133 674 b 363 958 133 857 206 958 b 479 932 408 958 447 950 l 219 61 b 133 296 163 104 133 181 z m 363 21 b 246 44 317 21 278 29 l 507 914 b 592 674 564 868 592 786 l 592 296 b 363 21 592 106 514 21 z m 363 -14 b 628 296 539 -14 628 82 l 628 674 b 518 950 628 808 592 901 l 565 1103 l 533 1103 l 489 965 b 363 990 454 982 411 990 b 97 674 183 990 97 878 l 97 296 b 207 22 97 157 133 68 l 161 -125 l 193 -125 l 235 8 b 363 -14 271 -7 313 -14 z "},"Ǿ":{"ha":725,"x_min":0,"x_max":0,"o":"m 133 296 l 133 674 b 363 958 133 857 206 958 b 479 932 408 958 447 950 l 219 61 b 133 296 163 104 133 181 z m 363 21 b 246 44 317 21 278 29 l 507 914 b 592 674 564 868 592 786 l 592 296 b 363 21 592 106 514 21 z m 363 -14 b 628 296 539 -14 628 82 l 628 674 b 518 950 628 808 592 901 l 565 1103 l 533 1103 l 489 965 b 363 990 454 982 411 990 b 97 674 183 990 97 878 l 97 296 b 207 22 97 157 133 68 l 161 -125 l 193 -125 l 235 8 b 363 -14 271 -7 313 -14 z m 344 1101 l 379 1101 l 524 1318 l 481 1318 z "},"Õ":{"ha":725,"x_min":0,"x_max":0,"o":"m 363 -14 b 628 296 539 -14 628 82 l 628 674 b 363 990 628 881 542 990 b 97 674 183 990 97 878 l 97 296 b 363 -14 97 81 185 -14 z m 363 21 b 133 296 211 21 133 107 l 133 674 b 363 958 133 857 206 958 b 592 674 519 958 592 856 l 592 296 b 363 21 592 106 514 21 z m 185 1092 l 215 1092 b 269 1165 215 1140 229 1165 b 450 1090 326 1165 378 1090 b 538 1196 508 1090 538 1129 l 507 1196 b 451 1121 507 1143 488 1121 b 269 1196 397 1121 347 1196 b 185 1092 213 1196 185 1160 z "},"Œ":{"ha":1083,"x_min":0,"x_max":0,"o":"m 363 21 b 133 296 211 21 133 107 l 133 674 b 363 958 133 857 206 958 b 592 674 519 958 592 856 l 592 296 b 363 21 592 106 514 21 z m 592 0 l 1032 0 l 1032 33 l 625 33 l 625 496 l 968 496 l 968 529 l 625 529 l 625 947 l 1021 947 l 1021 981 l 592 981 l 592 819 b 363 990 564 932 493 990 b 97 674 183 990 97 878 l 97 296 b 363 -14 97 81 185 -14 b 592 150 492 -14 563 38 z "},"Ŕ":{"ha":678,"x_min":0,"x_max":0,"o":"m 361 947 b 560 749 508 947 560 874 l 560 674 b 351 478 560 547 485 478 l 151 478 l 151 947 z m 353 447 b 549 274 496 447 549 404 l 549 63 b 561 0 549 38 553 13 l 603 0 b 583 63 590 13 583 38 l 583 274 b 442 464 583 399 544 450 b 596 674 544 488 596 558 l 596 749 b 361 981 596 899 528 981 l 117 981 l 117 0 l 151 0 l 151 447 z m 336 1079 l 371 1079 l 515 1296 l 472 1296 z "},"Ř":{"ha":678,"x_min":0,"x_max":0,"o":"m 361 947 b 560 749 508 947 560 874 l 560 674 b 351 478 560 547 485 478 l 151 478 l 151 947 z m 353 447 b 549 274 496 447 549 404 l 549 63 b 561 0 549 38 553 13 l 603 0 b 583 63 590 13 583 38 l 583 274 b 442 464 583 399 544 450 b 596 674 544 488 596 558 l 596 749 b 361 981 596 899 528 981 l 117 981 l 117 0 l 151 0 l 151 447 z m 368 1076 l 496 1243 l 454 1243 l 356 1108 l 261 1243 l 219 1243 l 340 1076 z "},"Ŗ":{"ha":678,"x_min":0,"x_max":0,"o":"m 361 947 b 560 749 508 947 560 874 l 560 674 b 351 478 560 547 485 478 l 151 478 l 151 947 z m 353 447 b 549 274 496 447 549 404 l 549 63 b 561 0 549 38 553 13 l 603 0 b 583 63 590 13 583 38 l 583 274 b 442 464 583 399 544 450 b 596 674 544 488 596 558 l 596 749 b 361 981 596 899 528 981 l 117 981 l 117 0 l 151 0 l 151 447 z m 321 -281 b 397 -139 365 -249 397 -199 b 356 -72 397 -92 382 -72 b 317 -118 332 -72 317 -89 b 349 -160 317 -150 332 -160 b 367 -151 356 -160 361 -157 b 304 -261 363 -200 338 -237 z "},"Ś":{"ha":647,"x_min":0,"x_max":0,"o":"m 333 -14 b 585 218 503 -14 585 93 l 585 264 b 344 521 585 428 463 475 b 125 731 233 564 125 603 l 125 772 b 325 958 125 885 203 958 b 528 771 449 958 528 894 l 528 692 l 563 692 l 563 771 b 325 990 563 917 468 990 b 89 772 183 990 89 907 l 89 731 b 321 493 89 582 206 538 b 549 264 435 450 549 406 l 549 215 b 333 21 549 106 476 21 b 104 232 188 21 104 97 l 104 324 l 68 324 l 68 232 b 333 -14 68 72 163 -14 z m 306 1090 l 340 1090 l 485 1307 l 442 1307 z "},"Š":{"ha":647,"x_min":0,"x_max":0,"o":"m 333 -14 b 585 218 503 -14 585 93 l 585 264 b 344 521 585 428 463 475 b 125 731 233 564 125 603 l 125 772 b 325 958 125 885 203 958 b 528 771 449 958 528 894 l 528 692 l 563 692 l 563 771 b 325 990 563 917 468 990 b 89 772 183 990 89 907 l 89 731 b 321 493 89 582 206 538 b 549 264 435 450 549 406 l 549 215 b 333 21 549 106 476 21 b 104 232 188 21 104 97 l 104 324 l 68 324 l 68 232 b 333 -14 68 72 163 -14 z m 338 1088 l 465 1254 l 424 1254 l 325 1119 l 231 1254 l 189 1254 l 310 1088 z "},"Ş":{"ha":647,"x_min":0,"x_max":0,"o":"m 333 -272 b 464 -171 413 -272 464 -232 b 346 -85 464 -114 424 -86 l 346 -14 b 585 218 507 -8 585 96 l 585 264 b 344 521 585 428 463 475 b 125 731 233 564 125 603 l 125 772 b 325 958 125 885 203 958 b 528 771 449 958 528 894 l 528 692 l 563 692 l 563 771 b 325 990 563 917 468 990 b 89 772 183 990 89 907 l 89 731 b 321 493 89 582 206 538 b 549 264 435 450 549 406 l 549 215 b 333 21 549 106 476 21 b 104 232 188 21 104 97 l 104 324 l 68 324 l 68 232 b 311 -14 68 79 154 -6 l 311 -114 l 332 -114 b 429 -174 403 -114 429 -128 b 333 -240 429 -221 392 -240 b 235 -168 278 -240 242 -219 l 199 -168 b 333 -272 208 -236 253 -272 z "},"Ŝ":{"ha":647,"x_min":0,"x_max":0,"o":"m 333 -14 b 585 218 503 -14 585 93 l 585 264 b 344 521 585 428 463 475 b 125 731 233 564 125 603 l 125 772 b 325 958 125 885 203 958 b 528 771 449 958 528 894 l 528 692 l 563 692 l 563 771 b 325 990 563 917 468 990 b 89 772 183 990 89 907 l 89 731 b 321 493 89 582 206 538 b 549 264 435 450 549 406 l 549 215 b 333 21 549 106 476 21 b 104 232 188 21 104 97 l 104 324 l 68 324 l 68 232 b 333 -14 68 72 163 -14 z m 426 1083 l 467 1083 l 346 1254 l 313 1254 l 189 1083 l 229 1083 l 329 1224 z "},"Ș":{"ha":647,"x_min":0,"x_max":0,"o":"m 333 -14 b 585 218 503 -14 585 93 l 585 264 b 344 521 585 428 463 475 b 125 731 233 564 125 603 l 125 772 b 325 958 125 885 203 958 b 528 771 449 958 528 894 l 528 692 l 563 692 l 563 771 b 325 990 563 917 468 990 b 89 772 183 990 89 907 l 89 731 b 321 493 89 582 206 538 b 549 264 435 450 549 406 l 549 215 b 333 21 549 106 476 21 b 104 232 188 21 104 97 l 104 324 l 68 324 l 68 232 b 333 -14 68 72 163 -14 z m 297 -304 b 374 -162 342 -272 374 -222 b 332 -96 374 -115 358 -96 b 293 -142 308 -96 293 -112 b 325 -183 293 -174 308 -183 b 343 -175 332 -183 338 -181 b 281 -285 339 -224 314 -261 z "},"Ŧ":{"ha":546,"x_min":0,"x_max":0,"o":"m 411 469 l 411 501 l 286 501 l 286 947 l 504 947 l 504 981 l 42 981 l 42 947 l 251 947 l 251 501 l 128 501 l 128 469 l 251 469 l 251 0 l 286 0 l 286 469 z "},"Ť":{"ha":546,"x_min":0,"x_max":0,"o":"m 504 947 l 504 981 l 42 981 l 42 947 l 251 947 l 251 0 l 286 0 l 286 947 z m 282 1078 l 410 1244 l 368 1244 l 269 1110 l 175 1244 l 133 1244 l 254 1078 z "},"Ţ":{"ha":546,"x_min":0,"x_max":0,"o":"m 504 947 l 504 981 l 42 981 l 42 947 l 251 947 l 251 0 l 286 0 l 286 947 z m 238 -290 b 314 -149 282 -258 314 -208 b 272 -82 314 -101 299 -82 b 233 -128 249 -82 233 -99 b 265 -169 233 -160 249 -169 b 283 -161 272 -169 278 -167 b 221 -271 279 -210 254 -247 z "},"Ú":{"ha":697,"x_min":0,"x_max":0,"o":"m 349 -14 b 589 278 513 -14 589 81 l 589 981 l 554 981 l 554 278 b 349 19 554 100 490 19 b 143 278 204 19 143 100 l 143 981 l 108 981 l 108 278 b 349 -14 108 81 181 -14 z m 326 1067 l 361 1067 l 506 1283 l 463 1283 z "},"Ŭ":{"ha":697,"x_min":0,"x_max":0,"o":"m 349 -14 b 589 278 513 -14 589 81 l 589 981 l 554 981 l 554 278 b 349 19 554 100 490 19 b 143 278 204 19 143 100 l 143 981 l 108 981 l 108 278 b 349 -14 108 81 181 -14 z m 344 1061 b 508 1226 451 1061 503 1135 l 476 1226 b 346 1092 471 1150 429 1093 b 218 1226 254 1093 224 1150 l 185 1226 b 344 1061 190 1135 232 1061 z "},"Û":{"ha":697,"x_min":0,"x_max":0,"o":"m 349 -14 b 589 278 513 -14 589 81 l 589 981 l 554 981 l 554 278 b 349 19 554 100 490 19 b 143 278 204 19 143 100 l 143 981 l 108 981 l 108 278 b 349 -14 108 81 181 -14 z m 447 1065 l 488 1065 l 367 1236 l 333 1236 l 210 1065 l 250 1065 l 350 1206 z "},"Ü":{"ha":697,"x_min":0,"x_max":0,"o":"m 349 -14 b 589 278 513 -14 589 81 l 589 981 l 554 981 l 554 278 b 349 19 554 100 490 19 b 143 278 204 19 143 100 l 143 981 l 108 981 l 108 278 b 349 -14 108 81 181 -14 z m 264 1071 b 303 1114 288 1071 303 1083 b 265 1160 303 1143 290 1160 b 226 1115 240 1160 226 1143 b 264 1071 226 1083 242 1071 z m 424 1071 b 460 1114 446 1071 460 1083 b 424 1160 460 1143 449 1160 b 385 1115 399 1160 385 1143 b 424 1071 385 1083 399 1071 z "},"Ù":{"ha":697,"x_min":0,"x_max":0,"o":"m 349 -14 b 589 278 513 -14 589 81 l 589 981 l 554 981 l 554 278 b 349 19 554 100 490 19 b 143 278 204 19 143 100 l 143 981 l 108 981 l 108 278 b 349 -14 108 81 181 -14 z m 335 1067 l 371 1067 l 251 1240 l 207 1240 z "},"Ű":{"ha":697,"x_min":0,"x_max":0,"o":"m 349 -14 b 589 278 513 -14 589 81 l 589 981 l 554 981 l 554 278 b 349 19 554 100 490 19 b 143 278 204 19 143 100 l 143 981 l 108 981 l 108 278 b 349 -14 108 81 181 -14 z m 560 1240 l 513 1240 l 385 1067 l 421 1067 z m 422 1240 l 376 1240 l 265 1067 l 300 1067 z "},"Ū":{"ha":697,"x_min":0,"x_max":0,"o":"m 349 -14 b 589 278 513 -14 589 81 l 589 981 l 554 981 l 554 278 b 349 19 554 100 490 19 b 143 278 204 19 143 100 l 143 981 l 108 981 l 108 278 b 349 -14 108 81 181 -14 z m 211 1093 l 485 1093 l 485 1126 l 211 1126 z "},"Ų":{"ha":697,"x_min":0,"x_max":0,"o":"m 432 -236 b 578 -136 507 -236 553 -200 l 540 -136 b 432 -204 522 -181 486 -204 b 342 -128 376 -204 342 -172 b 444 0 342 -86 372 -46 b 589 278 543 33 589 124 l 589 981 l 554 981 l 554 278 b 349 19 554 100 490 19 b 143 278 204 19 143 100 l 143 981 l 108 981 l 108 278 b 349 -14 108 81 181 -14 b 375 -12 357 -14 367 -14 b 308 -129 331 -50 308 -89 b 432 -236 308 -193 351 -236 z "},"Ů":{"ha":697,"x_min":0,"x_max":0,"o":"m 349 -14 b 589 278 513 -14 589 81 l 589 981 l 554 981 l 554 278 b 349 19 554 100 490 19 b 143 278 204 19 143 100 l 143 981 l 108 981 l 108 278 b 349 -14 108 81 181 -14 z m 344 1058 b 454 1167 410 1058 454 1101 b 344 1275 454 1233 410 1275 b 236 1167 282 1275 236 1232 b 344 1058 236 1104 281 1058 z m 344 1090 b 271 1167 299 1090 271 1122 b 344 1243 271 1213 300 1243 b 421 1167 390 1243 421 1213 b 344 1090 421 1119 390 1090 z "},"Ũ":{"ha":697,"x_min":0,"x_max":0,"o":"m 349 -14 b 589 278 513 -14 589 81 l 589 981 l 554 981 l 554 278 b 349 19 554 100 490 19 b 143 278 204 19 143 100 l 143 981 l 108 981 l 108 278 b 349 -14 108 81 181 -14 z m 168 1069 l 199 1069 b 253 1143 199 1118 213 1143 b 433 1068 310 1143 361 1068 b 521 1174 492 1068 521 1107 l 490 1174 b 435 1099 490 1121 471 1099 b 253 1174 381 1099 331 1174 b 168 1069 196 1174 168 1138 z "},"Ẃ":{"ha":951,"x_min":0,"x_max":0,"o":"m 465 899 l 469 936 l 474 899 l 685 0 l 717 0 l 892 981 l 858 981 l 704 101 l 699 46 l 690 106 l 483 981 l 457 981 l 236 106 l 226 49 l 224 103 l 93 981 l 60 981 l 207 0 l 240 0 z m 450 1081 l 485 1081 l 629 1297 l 586 1297 z "},"Ŵ":{"ha":951,"x_min":0,"x_max":0,"o":"m 465 899 l 469 936 l 474 899 l 685 0 l 717 0 l 892 981 l 858 981 l 704 101 l 699 46 l 690 106 l 483 981 l 457 981 l 236 106 l 226 49 l 224 103 l 93 981 l 60 981 l 207 0 l 240 0 z m 571 1079 l 611 1079 l 490 1250 l 457 1250 l 333 1079 l 374 1079 l 474 1219 z "},"Ẅ":{"ha":951,"x_min":0,"x_max":0,"o":"m 465 899 l 469 936 l 474 899 l 685 0 l 717 0 l 892 981 l 858 981 l 704 101 l 699 46 l 690 106 l 483 981 l 457 981 l 236 106 l 226 49 l 224 103 l 93 981 l 60 981 l 207 0 l 240 0 z m 388 1085 b 426 1128 411 1085 426 1097 b 389 1174 426 1157 414 1174 b 350 1129 364 1174 350 1157 b 388 1085 350 1097 365 1085 z m 547 1085 b 583 1128 569 1085 583 1097 b 547 1174 583 1157 572 1174 b 508 1129 522 1174 508 1157 b 547 1085 508 1097 522 1085 z "},"Ẁ":{"ha":951,"x_min":0,"x_max":0,"o":"m 465 899 l 469 936 l 474 899 l 685 0 l 717 0 l 892 981 l 858 981 l 704 101 l 699 46 l 690 106 l 483 981 l 457 981 l 236 106 l 226 49 l 224 103 l 93 981 l 60 981 l 207 0 l 240 0 z m 458 1081 l 494 1081 l 375 1254 l 331 1254 z "},"Ý":{"ha":613,"x_min":0,"x_max":0,"o":"m 318 0 l 318 350 l 565 981 l 528 981 l 307 407 l 301 376 l 296 407 l 85 981 l 47 981 l 283 351 l 283 0 z m 282 1074 l 317 1074 l 461 1290 l 418 1290 z "},"Ŷ":{"ha":613,"x_min":0,"x_max":0,"o":"m 318 0 l 318 350 l 565 981 l 528 981 l 307 407 l 301 376 l 296 407 l 85 981 l 47 981 l 283 351 l 283 0 z m 403 1072 l 443 1072 l 322 1243 l 289 1243 l 165 1072 l 206 1072 l 306 1213 z "},"Ÿ":{"ha":613,"x_min":0,"x_max":0,"o":"m 318 0 l 318 350 l 565 981 l 528 981 l 307 407 l 301 376 l 296 407 l 85 981 l 47 981 l 283 351 l 283 0 z m 219 1078 b 258 1121 243 1078 258 1090 b 221 1167 258 1150 246 1167 b 182 1122 196 1167 182 1150 b 219 1078 182 1090 197 1078 z m 379 1078 b 415 1121 401 1078 415 1090 b 379 1167 415 1150 404 1167 b 340 1122 354 1167 340 1150 b 379 1078 340 1090 354 1078 z "},"Ỳ":{"ha":613,"x_min":0,"x_max":0,"o":"m 318 0 l 318 350 l 565 981 l 528 981 l 307 407 l 301 376 l 296 407 l 85 981 l 47 981 l 283 351 l 283 0 z m 290 1074 l 326 1074 l 207 1247 l 163 1247 z "},"Ĳ":{"ha":849,"x_min":0,"x_max":0,"o":"m 382 0 l 382 33 l 231 33 l 231 947 l 382 947 l 382 981 l 44 981 l 44 947 l 196 947 l 196 33 l 44 33 l 44 0 z m 497 0 l 539 0 b 743 239 681 0 743 81 l 743 981 l 708 981 l 708 239 b 539 35 708 99 660 35 l 497 35 z "},"Ź":{"ha":578,"x_min":0,"x_max":0,"o":"m 524 0 l 524 35 l 92 35 l 513 950 l 513 981 l 81 981 l 81 947 l 472 947 l 50 32 l 50 0 z m 275 1081 l 310 1081 l 454 1297 l 411 1297 z "},"Ž":{"ha":578,"x_min":0,"x_max":0,"o":"m 524 0 l 524 35 l 92 35 l 513 950 l 513 981 l 81 981 l 81 947 l 472 947 l 50 32 l 50 0 z m 307 1078 l 435 1244 l 393 1244 l 294 1110 l 200 1244 l 158 1244 l 279 1078 z "},"Ż":{"ha":578,"x_min":0,"x_max":0,"o":"m 524 0 l 524 35 l 92 35 l 513 950 l 513 981 l 81 981 l 81 947 l 472 947 l 50 32 l 50 0 z m 293 1079 b 335 1126 318 1079 335 1093 b 294 1178 335 1158 321 1178 b 251 1128 267 1178 251 1160 b 293 1079 251 1093 267 1079 z "},"Þ":{"ha":639,"x_min":0,"x_max":0,"o":"m 318 213 b 565 444 485 213 565 292 l 565 586 b 313 810 565 733 489 810 l 151 810 l 151 981 l 117 981 l 117 0 l 151 0 l 151 213 z m 313 776 b 531 586 464 776 531 713 l 531 444 b 317 246 531 313 457 246 l 151 246 l 151 776 z "},"a":{"ha":660,"x_min":0,"x_max":0,"o":"m 271 21 b 103 185 160 21 103 82 l 103 193 b 181 353 103 265 138 322 b 351 426 224 383 257 396 b 524 539 436 458 501 482 l 524 349 b 271 21 524 178 440 21 z m 531 0 l 556 0 l 556 607 b 328 797 556 717 490 797 b 88 582 171 797 88 711 l 88 526 l 122 526 l 122 579 b 328 765 122 700 199 765 b 524 608 468 765 524 701 l 524 601 b 336 456 524 511 424 486 b 160 379 239 422 203 410 b 67 194 108 343 67 281 l 67 179 b 271 -14 67 58 135 -14 b 524 229 413 -14 499 86 z "},"b":{"ha":692,"x_min":0,"x_max":0,"o":"m 353 -14 b 603 276 513 -14 603 89 l 603 504 b 361 797 603 707 518 797 b 140 619 240 797 168 729 l 140 1047 l 108 1047 l 108 0 l 133 0 l 140 153 b 353 -14 167 47 235 -14 z m 353 21 b 140 282 211 21 140 122 l 140 492 b 361 765 140 653 214 765 b 568 499 497 765 568 678 l 568 281 b 353 21 568 114 500 21 z "},"c":{"ha":643,"x_min":0,"x_max":0,"o":"m 324 -14 b 567 242 485 -14 567 71 l 567 293 l 531 293 l 531 244 b 324 21 531 90 464 21 b 117 275 179 21 117 108 l 117 500 b 331 765 117 679 190 765 b 531 549 456 765 531 714 l 531 510 l 567 510 l 567 553 b 331 797 567 732 474 797 b 82 506 169 797 82 708 l 82 271 b 324 -14 82 83 167 -14 z "},"d":{"ha":685,"x_min":0,"x_max":0,"o":"m 326 21 b 117 279 179 21 117 113 l 117 492 b 332 765 117 671 193 765 b 544 492 486 765 544 653 l 544 294 b 326 21 544 135 468 21 z m 551 0 l 576 0 l 576 1047 l 544 1047 l 544 629 b 332 797 519 733 456 797 b 82 497 175 797 82 700 l 82 272 b 326 -14 82 85 167 -14 b 543 174 446 -14 517 60 z "},"e":{"ha":657,"x_min":0,"x_max":0,"o":"m 578 215 l 578 269 l 542 269 l 542 217 b 333 21 542 71 449 21 b 115 264 188 21 115 104 l 115 392 l 578 392 l 578 511 b 333 797 578 710 488 797 b 82 507 175 797 82 701 l 82 260 b 333 -14 82 81 164 -14 b 578 215 469 -14 578 54 z m 115 504 b 333 765 115 683 196 765 b 543 508 471 765 543 688 l 543 422 l 115 422 z "},"f":{"ha":367,"x_min":0,"x_max":0,"o":"m 342 753 l 342 783 l 169 783 l 169 842 b 306 1024 169 996 196 1024 l 342 1024 l 342 1056 l 306 1056 b 136 843 174 1056 136 1015 l 136 783 l 19 783 l 19 753 l 136 753 l 136 0 l 169 0 l 169 753 z "},"g":{"ha":628,"x_min":0,"x_max":0,"o":"m 306 -268 b 590 -89 479 -268 590 -190 l 590 -85 b 396 54 590 6 529 54 l 235 54 b 106 128 149 53 106 76 b 275 218 106 178 153 218 l 313 218 b 544 432 453 218 544 283 l 544 575 b 400 783 544 725 458 774 b 364 788 385 786 375 788 b 525 928 488 800 525 839 l 525 950 l 490 950 l 490 929 b 342 806 490 854 463 819 b 247 789 307 800 275 796 b 88 568 147 763 88 697 l 88 432 b 218 238 88 318 133 258 b 69 125 117 225 69 176 b 208 24 69 64 114 26 b 60 -128 119 -1 60 -53 b 283 -268 60 -212 124 -268 z m 311 249 b 122 432 189 249 122 306 l 122 568 b 257 760 122 683 171 738 b 325 768 276 765 301 768 b 510 575 438 768 510 711 l 510 432 b 311 249 510 308 438 249 z m 285 -235 b 94 -125 149 -235 94 -187 b 347 24 94 -32 197 24 l 390 24 b 557 -86 508 24 557 -7 l 557 -90 b 306 -235 557 -174 451 -235 z "},"h":{"ha":681,"x_min":0,"x_max":0,"o":"m 140 499 b 353 765 140 656 218 765 b 542 543 483 765 542 685 l 542 0 l 576 0 l 576 544 b 354 797 576 704 506 797 b 140 621 242 797 167 729 l 140 1047 l 108 1047 l 108 0 l 140 0 z "},"i":{"ha":251,"x_min":0,"x_max":0,"o":"m 125 894 b 154 936 146 894 154 908 b 126 978 154 963 146 978 b 97 936 106 978 97 963 b 125 894 97 908 104 894 z m 143 0 l 143 783 l 108 783 l 108 0 z "},"j":{"ha":256,"x_min":0,"x_max":0,"o":"m 129 894 b 158 936 150 894 158 908 b 131 978 158 963 150 978 b 101 936 110 978 101 963 b 129 894 101 908 108 894 z m -12 -210 b 146 -28 111 -210 146 -171 l 146 783 l 111 783 l 111 -28 b -14 -179 111 -149 86 -179 l -43 -179 l -43 -210 z "},"k":{"ha":610,"x_min":0,"x_max":0,"o":"m 535 0 l 574 0 l 340 503 l 549 783 l 507 783 l 142 294 l 142 1047 l 108 1047 l 108 0 l 142 0 l 142 249 l 315 478 z "},"l":{"ha":254,"x_min":0,"x_max":0,"o":"m 144 0 l 144 1047 l 110 1047 l 110 0 z "},"m":{"ha":1017,"x_min":0,"x_max":0,"o":"m 143 506 b 326 765 143 658 201 765 b 493 554 450 765 493 681 l 493 0 l 528 0 l 528 554 b 704 765 528 664 581 765 b 878 546 825 765 878 686 l 878 0 l 913 0 l 913 547 b 706 797 913 707 843 797 b 514 632 599 797 535 733 b 326 797 497 732 443 797 b 139 633 226 797 163 735 l 133 783 l 108 783 l 108 0 l 143 0 z "},"n":{"ha":681,"x_min":0,"x_max":0,"o":"m 143 499 b 354 765 143 664 217 765 b 543 539 488 765 543 683 l 543 0 l 578 0 l 578 540 b 356 797 578 708 508 797 b 139 621 235 797 163 728 l 133 783 l 108 783 l 108 0 l 143 0 z "},"o":{"ha":668,"x_min":0,"x_max":0,"o":"m 331 -14 b 579 261 488 -14 579 74 l 579 508 b 331 797 579 711 489 797 b 82 508 172 797 82 711 l 82 261 b 331 -14 82 74 174 -14 z m 331 21 b 117 265 186 21 117 107 l 117 506 b 331 765 117 685 193 765 b 544 506 468 765 544 685 l 544 265 b 331 21 544 107 475 21 z "},"p":{"ha":692,"x_min":0,"x_max":0,"o":"m 353 21 b 140 282 211 21 140 122 l 140 492 b 361 765 140 653 215 765 b 568 499 497 765 568 678 l 568 281 b 353 21 568 114 500 21 z m 353 -14 b 603 276 513 -14 603 89 l 603 504 b 361 797 603 707 518 797 b 140 618 240 797 168 728 l 133 783 l 108 783 l 108 -278 l 140 -278 l 140 156 b 353 -14 165 47 235 -14 z "},"q":{"ha":685,"x_min":0,"x_max":0,"o":"m 576 -278 l 576 783 l 554 783 l 546 621 b 332 797 524 729 458 797 b 82 497 175 797 82 700 l 82 272 b 326 -14 82 85 167 -14 b 544 181 447 -14 519 63 l 544 -278 z m 326 21 b 117 279 179 21 117 113 l 117 492 b 332 765 117 671 193 765 b 544 492 486 765 544 653 l 544 294 b 326 21 544 135 468 21 z "},"r":{"ha":422,"x_min":0,"x_max":0,"o":"m 142 0 l 142 478 b 363 750 142 658 201 750 l 386 750 l 386 783 l 364 783 b 140 624 233 783 167 725 l 133 783 l 108 783 l 108 0 z "},"s":{"ha":618,"x_min":0,"x_max":0,"o":"m 314 -14 b 542 203 471 -14 542 68 l 542 218 b 328 421 542 346 433 385 b 128 593 226 456 128 488 l 128 608 b 306 765 128 699 188 765 b 490 606 428 765 490 707 l 490 547 l 526 547 l 526 604 b 307 797 526 728 447 797 b 93 607 169 797 93 721 l 93 592 b 306 393 93 467 200 429 b 507 218 407 358 507 325 l 507 203 b 314 21 507 88 449 21 b 113 203 179 21 113 97 l 113 271 l 76 271 l 76 203 b 314 -14 76 68 157 -14 z "},"t":{"ha":393,"x_min":0,"x_max":0,"o":"m 351 33 l 317 33 b 167 218 201 33 167 64 l 167 753 l 351 753 l 351 783 l 167 783 l 167 947 l 140 947 b 138 840 140 928 138 850 b 88 782 133 783 132 782 l 25 781 l 25 753 l 133 753 l 133 218 b 315 0 133 40 176 0 l 351 0 z "},"u":{"ha":657,"x_min":0,"x_max":0,"o":"m 522 0 l 549 0 l 549 783 l 514 783 l 514 286 b 315 21 514 121 436 21 b 139 242 193 21 139 101 l 139 783 l 104 783 l 104 240 b 314 -14 104 81 171 -14 b 517 157 419 -14 490 51 z "},"v":{"ha":635,"x_min":0,"x_max":0,"o":"m 332 0 l 586 783 l 550 783 l 321 64 l 317 50 l 313 64 l 85 783 l 49 783 l 300 0 z "},"w":{"ha":883,"x_min":0,"x_max":0,"o":"m 428 672 l 440 732 l 451 674 l 626 0 l 658 0 l 829 783 l 794 783 l 651 104 l 640 42 l 629 107 l 451 783 l 429 783 l 240 106 l 226 42 l 218 106 l 89 783 l 54 783 l 208 0 l 240 0 z "},"x":{"ha":565,"x_min":0,"x_max":0,"o":"m 276 369 l 286 392 l 296 369 l 492 0 l 532 0 l 306 419 l 513 783 l 472 783 l 296 464 l 286 446 l 276 464 l 103 783 l 63 783 l 267 419 l 33 0 l 74 0 z "},"y":{"ha":585,"x_min":0,"x_max":0,"o":"m 92 -210 b 303 -40 221 -210 253 -178 l 542 783 l 506 783 l 315 114 l 301 51 l 286 113 l 85 783 l 49 783 l 283 11 l 271 -36 b 90 -178 226 -156 199 -178 l 68 -178 l 68 -210 z "},"z":{"ha":556,"x_min":0,"x_max":0,"o":"m 506 0 l 506 33 l 86 33 l 508 753 l 508 783 l 72 783 l 72 751 l 471 751 l 46 28 l 46 0 z "},"á":{"ha":660,"x_min":0,"x_max":0,"o":"m 271 21 b 103 185 160 21 103 82 l 103 193 b 181 353 103 265 138 322 b 351 426 224 383 257 396 b 524 539 436 458 501 482 l 524 349 b 271 21 524 178 440 21 z m 531 0 l 556 0 l 556 607 b 328 797 556 717 490 797 b 88 582 171 797 88 711 l 88 526 l 122 526 l 122 579 b 328 765 122 700 199 765 b 524 608 468 765 524 701 l 524 601 b 336 456 524 511 424 486 b 160 379 239 422 203 410 b 67 194 108 343 67 281 l 67 179 b 271 -14 67 58 135 -14 b 524 229 413 -14 499 86 z m 310 897 l 344 897 l 489 1114 l 446 1114 z "},"ă":{"ha":660,"x_min":0,"x_max":0,"o":"m 271 21 b 103 185 160 21 103 82 l 103 193 b 181 353 103 265 138 322 b 351 426 224 383 257 396 b 524 539 436 458 501 482 l 524 349 b 271 21 524 178 440 21 z m 531 0 l 556 0 l 556 607 b 328 797 556 717 490 797 b 88 582 171 797 88 711 l 88 526 l 122 526 l 122 579 b 328 765 122 700 199 765 b 524 608 468 765 524 701 l 524 601 b 336 456 524 511 424 486 b 160 379 239 422 203 410 b 67 194 108 343 67 281 l 67 179 b 271 -14 67 58 135 -14 b 524 229 413 -14 499 86 z m 328 892 b 492 1057 435 892 486 965 l 460 1057 b 329 922 454 981 413 924 b 201 1057 238 924 207 981 l 168 1057 b 328 892 174 965 215 892 z "},"â":{"ha":660,"x_min":0,"x_max":0,"o":"m 271 21 b 103 185 160 21 103 82 l 103 193 b 181 353 103 265 138 322 b 351 426 224 383 257 396 b 524 539 436 458 501 482 l 524 349 b 271 21 524 178 440 21 z m 531 0 l 556 0 l 556 607 b 328 797 556 717 490 797 b 88 582 171 797 88 711 l 88 526 l 122 526 l 122 579 b 328 765 122 700 199 765 b 524 608 468 765 524 701 l 524 601 b 336 456 524 511 424 486 b 160 379 239 422 203 410 b 67 194 108 343 67 281 l 67 179 b 271 -14 67 58 135 -14 b 524 229 413 -14 499 86 z m 431 896 l 471 896 l 350 1067 l 317 1067 l 193 896 l 233 896 l 333 1036 z "},"ä":{"ha":660,"x_min":0,"x_max":0,"o":"m 271 21 b 103 185 160 21 103 82 l 103 193 b 181 353 103 265 138 322 b 351 426 224 383 257 396 b 524 539 436 458 501 482 l 524 349 b 271 21 524 178 440 21 z m 531 0 l 556 0 l 556 607 b 328 797 556 717 490 797 b 88 582 171 797 88 711 l 88 526 l 122 526 l 122 579 b 328 765 122 700 199 765 b 524 608 468 765 524 701 l 524 601 b 336 456 524 511 424 486 b 160 379 239 422 203 410 b 67 194 108 343 67 281 l 67 179 b 271 -14 67 58 135 -14 b 524 229 413 -14 499 86 z m 247 901 b 286 944 271 901 286 914 b 249 990 286 974 274 990 b 210 946 224 990 210 974 b 247 901 210 914 225 901 z m 407 901 b 443 944 429 901 443 914 b 407 990 443 974 432 990 b 368 946 382 990 368 974 b 407 901 368 914 382 901 z "},"à":{"ha":660,"x_min":0,"x_max":0,"o":"m 271 21 b 103 185 160 21 103 82 l 103 193 b 181 353 103 265 138 322 b 351 426 224 383 257 396 b 524 539 436 458 501 482 l 524 349 b 271 21 524 178 440 21 z m 531 0 l 556 0 l 556 607 b 328 797 556 717 490 797 b 88 582 171 797 88 711 l 88 526 l 122 526 l 122 579 b 328 765 122 700 199 765 b 524 608 468 765 524 701 l 524 601 b 336 456 524 511 424 486 b 160 379 239 422 203 410 b 67 194 108 343 67 281 l 67 179 b 271 -14 67 58 135 -14 b 524 229 413 -14 499 86 z m 318 897 l 354 897 l 235 1071 l 190 1071 z "},"ā":{"ha":660,"x_min":0,"x_max":0,"o":"m 271 21 b 103 185 160 21 103 82 l 103 193 b 181 353 103 265 138 322 b 351 426 224 383 257 396 b 524 539 436 458 501 482 l 524 349 b 271 21 524 178 440 21 z m 531 0 l 556 0 l 556 607 b 328 797 556 717 490 797 b 88 582 171 797 88 711 l 88 526 l 122 526 l 122 579 b 328 765 122 700 199 765 b 524 608 468 765 524 701 l 524 601 b 336 456 524 511 424 486 b 160 379 239 422 203 410 b 67 194 108 343 67 281 l 67 179 b 271 -14 67 58 135 -14 b 524 229 413 -14 499 86 z m 194 924 l 468 924 l 468 957 l 194 957 z "},"ą":{"ha":660,"x_min":0,"x_max":0,"o":"m 271 21 b 103 185 160 21 103 82 l 103 193 b 181 353 103 265 138 322 b 351 426 224 383 257 396 b 524 539 436 458 501 482 l 524 349 b 271 21 524 178 440 21 z m 678 -143 l 640 -143 b 532 -211 622 -187 586 -211 b 442 -135 476 -211 442 -179 b 556 0 442 -90 475 -49 l 556 607 b 328 797 556 717 490 797 b 88 582 171 797 88 711 l 88 526 l 122 526 l 122 579 b 328 765 122 700 199 765 b 524 608 468 765 524 701 l 524 601 b 336 456 524 511 424 486 b 160 379 239 422 203 410 b 67 194 108 343 67 281 l 67 179 b 271 -14 67 58 135 -14 b 524 229 413 -14 499 86 l 531 19 b 408 -136 451 -28 408 -81 b 532 -243 408 -200 451 -243 b 678 -143 607 -243 653 -207 z "},"å":{"ha":660,"x_min":0,"x_max":0,"o":"m 271 21 b 103 185 160 21 103 82 l 103 193 b 181 353 103 265 138 322 b 351 426 224 383 257 396 b 524 539 436 458 501 482 l 524 349 b 271 21 524 178 440 21 z m 531 0 l 556 0 l 556 607 b 328 797 556 717 490 797 b 88 582 171 797 88 711 l 88 526 l 122 526 l 122 579 b 328 765 122 700 199 765 b 524 608 468 765 524 701 l 524 601 b 336 456 524 511 424 486 b 160 379 239 422 203 410 b 67 194 108 343 67 281 l 67 179 b 271 -14 67 58 135 -14 b 524 229 413 -14 499 86 z m 328 894 b 438 1003 393 894 438 938 b 328 1111 438 1069 393 1111 b 219 1003 265 1111 219 1068 b 328 894 219 940 264 894 z m 328 926 b 254 1003 282 926 254 958 b 328 1079 254 1049 283 1079 b 404 1003 374 1079 404 1049 b 328 926 404 956 374 926 z "},"ǻ":{"ha":660,"x_min":0,"x_max":0,"o":"m 271 21 b 103 185 160 21 103 82 l 103 193 b 181 353 103 265 138 322 b 351 426 224 383 257 396 b 524 539 436 458 501 482 l 524 349 b 271 21 524 178 440 21 z m 531 0 l 556 0 l 556 607 b 328 797 556 717 490 797 b 88 582 171 797 88 711 l 88 526 l 122 526 l 122 579 b 328 765 122 700 199 765 b 524 608 468 765 524 701 l 524 601 b 336 456 524 511 424 486 b 160 379 239 422 203 410 b 67 194 108 343 67 281 l 67 179 b 271 -14 67 58 135 -14 b 524 229 413 -14 499 86 z m 331 874 b 440 982 396 874 440 917 b 331 1090 440 1049 396 1090 b 222 982 268 1090 222 1047 b 331 874 222 919 267 874 z m 331 906 b 257 982 285 906 257 938 b 331 1058 257 1028 286 1058 b 407 982 376 1058 407 1028 b 331 906 407 935 376 906 z m 321 1175 l 356 1175 l 500 1392 l 457 1392 z "},"ã":{"ha":660,"x_min":0,"x_max":0,"o":"m 271 21 b 103 185 160 21 103 82 l 103 193 b 181 353 103 265 138 322 b 351 426 224 383 257 396 b 524 539 436 458 501 482 l 524 349 b 271 21 524 178 440 21 z m 531 0 l 556 0 l 556 607 b 328 797 556 717 490 797 b 88 582 171 797 88 711 l 88 526 l 122 526 l 122 579 b 328 765 122 700 199 765 b 524 608 468 765 524 701 l 524 601 b 336 456 524 511 424 486 b 160 379 239 422 203 410 b 67 194 108 343 67 281 l 67 179 b 271 -14 67 58 135 -14 b 524 229 413 -14 499 86 z m 151 900 l 182 900 b 236 974 182 949 196 974 b 417 899 293 974 344 899 b 504 1004 475 899 504 938 l 474 1004 b 418 929 474 951 454 929 b 236 1004 364 929 314 1004 b 151 900 179 1004 151 968 z "},"æ":{"ha":1097,"x_min":0,"x_max":0,"o":"m 1018 215 l 1018 269 l 982 269 l 982 217 b 774 21 982 71 889 21 b 556 264 628 21 556 104 l 556 392 l 1018 392 l 1018 511 b 774 797 1018 710 928 797 b 551 651 660 797 583 747 b 328 797 536 738 468 797 b 88 582 171 797 88 711 l 88 526 l 122 526 l 122 579 b 328 765 122 700 199 765 b 524 608 468 765 524 701 l 524 601 b 336 456 524 511 424 486 b 160 379 239 422 203 410 b 67 194 108 343 67 281 l 67 179 b 271 -14 67 58 135 -14 b 525 194 403 -14 492 68 b 774 -14 544 69 626 -14 b 1018 215 910 -14 1018 54 z m 556 504 b 774 765 556 683 636 765 b 983 508 911 765 983 688 l 983 422 l 556 422 z m 271 21 b 103 185 160 21 103 82 l 103 193 b 181 353 103 265 138 322 b 351 426 224 383 257 396 b 524 539 436 458 501 482 l 524 349 b 271 21 524 178 440 21 z "},"ǽ":{"ha":1097,"x_min":0,"x_max":0,"o":"m 1018 215 l 1018 269 l 982 269 l 982 217 b 774 21 982 71 889 21 b 556 264 628 21 556 104 l 556 392 l 1018 392 l 1018 511 b 774 797 1018 710 928 797 b 551 651 660 797 583 747 b 328 797 536 738 468 797 b 88 582 171 797 88 711 l 88 526 l 122 526 l 122 579 b 328 765 122 700 199 765 b 524 608 468 765 524 701 l 524 601 b 336 456 524 511 424 486 b 160 379 239 422 203 410 b 67 194 108 343 67 281 l 67 179 b 271 -14 67 58 135 -14 b 525 194 403 -14 492 68 b 774 -14 544 69 626 -14 b 1018 215 910 -14 1018 54 z m 556 504 b 774 765 556 683 636 765 b 983 508 911 765 983 688 l 983 422 l 556 422 z m 271 21 b 103 185 160 21 103 82 l 103 193 b 181 353 103 265 138 322 b 351 426 224 383 257 396 b 524 539 436 458 501 482 l 524 349 b 271 21 524 178 440 21 z m 536 881 l 571 881 l 715 1097 l 672 1097 z "},"ć":{"ha":643,"x_min":0,"x_max":0,"o":"m 324 -14 b 567 242 485 -14 567 71 l 567 293 l 531 293 l 531 244 b 324 21 531 90 464 21 b 117 275 179 21 117 108 l 117 500 b 331 765 117 679 190 765 b 531 549 456 765 531 714 l 531 510 l 567 510 l 567 553 b 331 797 567 732 474 797 b 82 506 169 797 82 708 l 82 271 b 324 -14 82 83 167 -14 z m 311 897 l 346 897 l 490 1114 l 447 1114 z "},"č":{"ha":643,"x_min":0,"x_max":0,"o":"m 324 -14 b 567 242 485 -14 567 71 l 567 293 l 531 293 l 531 244 b 324 21 531 90 464 21 b 117 275 179 21 117 108 l 117 500 b 331 765 117 679 190 765 b 531 549 456 765 531 714 l 531 510 l 567 510 l 567 553 b 331 797 567 732 474 797 b 82 506 169 797 82 708 l 82 271 b 324 -14 82 83 167 -14 z m 343 894 l 471 1061 l 429 1061 l 331 926 l 236 1061 l 194 1061 l 315 894 z "},"ç":{"ha":643,"x_min":0,"x_max":0,"o":"m 336 -272 b 467 -171 415 -272 467 -232 b 349 -85 467 -114 426 -86 l 349 -12 b 567 242 493 -4 567 81 l 567 293 l 531 293 l 531 244 b 324 21 531 90 464 21 b 117 275 179 21 117 108 l 117 500 b 331 765 117 679 190 765 b 531 549 456 765 531 714 l 531 510 l 567 510 l 567 553 b 331 797 567 732 474 797 b 82 506 169 797 82 708 l 82 271 b 314 -14 82 88 163 -10 l 314 -114 l 335 -114 b 432 -174 406 -114 432 -128 b 336 -240 432 -221 394 -240 b 238 -168 281 -240 244 -219 l 201 -168 b 336 -272 211 -236 256 -272 z "},"ĉ":{"ha":643,"x_min":0,"x_max":0,"o":"m 324 -14 b 567 242 485 -14 567 71 l 567 293 l 531 293 l 531 244 b 324 21 531 90 464 21 b 117 275 179 21 117 108 l 117 500 b 331 765 117 679 190 765 b 531 549 456 765 531 714 l 531 510 l 567 510 l 567 553 b 331 797 567 732 474 797 b 82 506 169 797 82 708 l 82 271 b 324 -14 82 83 167 -14 z m 432 896 l 472 896 l 351 1067 l 318 1067 l 194 896 l 235 896 l 335 1036 z "},"ċ":{"ha":643,"x_min":0,"x_max":0,"o":"m 324 -14 b 567 242 485 -14 567 71 l 567 293 l 531 293 l 531 244 b 324 21 531 90 464 21 b 117 275 179 21 117 108 l 117 500 b 331 765 117 679 190 765 b 531 549 456 765 531 714 l 531 510 l 567 510 l 567 553 b 331 797 567 732 474 797 b 82 506 169 797 82 708 l 82 271 b 324 -14 82 83 167 -14 z m 329 896 b 371 943 354 896 371 910 b 331 994 371 975 357 994 b 288 944 303 994 288 976 b 329 896 288 910 303 896 z "},"ď":{"ha":685,"x_min":0,"x_max":0,"o":"m 326 21 b 117 279 179 21 117 113 l 117 492 b 332 765 117 671 193 765 b 544 492 486 765 544 653 l 544 294 b 326 21 544 135 468 21 z m 551 0 l 576 0 l 576 1047 l 544 1047 l 544 629 b 332 797 519 733 456 797 b 82 497 175 797 82 700 l 82 272 b 326 -14 82 85 167 -14 b 543 174 446 -14 517 60 z m 668 926 l 699 926 l 768 1118 l 726 1118 z "},"đ":{"ha":686,"x_min":0,"x_max":0,"o":"m 326 21 b 117 279 179 21 117 113 l 117 492 b 332 765 117 671 193 765 b 544 492 486 765 544 653 l 544 294 b 326 21 544 135 468 21 z m 543 174 l 551 0 l 576 0 l 576 904 l 667 904 l 667 933 l 576 933 l 576 1047 l 544 1047 l 544 933 l 396 933 l 396 904 l 544 904 l 544 629 b 332 797 519 733 456 797 b 82 497 175 797 82 700 l 82 272 b 326 -14 82 85 167 -14 b 543 174 446 -14 517 60 z "},"ð":{"ha":664,"x_min":0,"x_max":0,"o":"m 332 -14 b 582 261 496 -14 582 82 l 582 536 b 406 975 582 708 528 851 l 536 1076 l 485 1076 l 383 997 b 283 1076 353 1025 319 1051 l 231 1076 b 357 978 278 1044 321 1011 l 215 867 l 268 867 l 381 954 b 543 656 469 865 522 768 b 328 797 510 744 435 797 b 82 535 182 797 82 708 l 82 244 b 332 -14 82 82 172 -14 z m 332 21 b 118 246 189 21 118 110 l 118 535 b 331 764 118 682 197 764 b 547 535 475 764 547 661 l 547 260 b 332 21 547 107 478 21 z "},"é":{"ha":657,"x_min":0,"x_max":0,"o":"m 578 215 l 578 269 l 542 269 l 542 217 b 333 21 542 71 449 21 b 115 264 188 21 115 104 l 115 392 l 578 392 l 578 511 b 333 797 578 710 488 797 b 82 507 175 797 82 701 l 82 260 b 333 -14 82 81 164 -14 b 578 215 469 -14 578 54 z m 115 504 b 333 765 115 683 196 765 b 543 508 471 765 543 688 l 543 422 l 115 422 z m 314 900 l 349 900 l 493 1117 l 450 1117 z "},"ĕ":{"ha":657,"x_min":0,"x_max":0,"o":"m 578 215 l 578 269 l 542 269 l 542 217 b 333 21 542 71 449 21 b 115 264 188 21 115 104 l 115 392 l 578 392 l 578 511 b 333 797 578 710 488 797 b 82 507 175 797 82 701 l 82 260 b 333 -14 82 81 164 -14 b 578 215 469 -14 578 54 z m 115 504 b 333 765 115 683 196 765 b 543 508 471 765 543 688 l 543 422 l 115 422 z m 332 894 b 496 1060 439 894 490 968 l 464 1060 b 333 925 458 983 417 926 b 206 1060 242 926 211 983 l 172 1060 b 332 894 178 968 219 894 z "},"ě":{"ha":657,"x_min":0,"x_max":0,"o":"m 578 215 l 578 269 l 542 269 l 542 217 b 333 21 542 71 449 21 b 115 264 188 21 115 104 l 115 392 l 578 392 l 578 511 b 333 797 578 710 488 797 b 82 507 175 797 82 701 l 82 260 b 333 -14 82 81 164 -14 b 578 215 469 -14 578 54 z m 115 504 b 333 765 115 683 196 765 b 543 508 471 765 543 688 l 543 422 l 115 422 z m 346 897 l 474 1064 l 432 1064 l 333 929 l 239 1064 l 197 1064 l 318 897 z "},"ê":{"ha":657,"x_min":0,"x_max":0,"o":"m 578 215 l 578 269 l 542 269 l 542 217 b 333 21 542 71 449 21 b 115 264 188 21 115 104 l 115 392 l 578 392 l 578 511 b 333 797 578 710 488 797 b 82 507 175 797 82 701 l 82 260 b 333 -14 82 81 164 -14 b 578 215 469 -14 578 54 z m 115 504 b 333 765 115 683 196 765 b 543 508 471 765 543 688 l 543 422 l 115 422 z m 435 899 l 475 899 l 354 1069 l 321 1069 l 197 899 l 238 899 l 338 1039 z "},"ë":{"ha":657,"x_min":0,"x_max":0,"o":"m 578 215 l 578 269 l 542 269 l 542 217 b 333 21 542 71 449 21 b 115 264 188 21 115 104 l 115 392 l 578 392 l 578 511 b 333 797 578 710 488 797 b 82 507 175 797 82 701 l 82 260 b 333 -14 82 81 164 -14 b 578 215 469 -14 578 54 z m 115 504 b 333 765 115 683 196 765 b 543 508 471 765 543 688 l 543 422 l 115 422 z m 251 904 b 290 947 275 904 290 917 b 253 993 290 976 278 993 b 214 949 228 993 214 976 b 251 904 214 917 229 904 z m 411 904 b 447 947 433 904 447 917 b 411 993 447 976 436 993 b 372 949 386 993 372 976 b 411 904 372 917 386 904 z "},"ė":{"ha":657,"x_min":0,"x_max":0,"o":"m 578 215 l 578 269 l 542 269 l 542 217 b 333 21 542 71 449 21 b 115 264 188 21 115 104 l 115 392 l 578 392 l 578 511 b 333 797 578 710 488 797 b 82 507 175 797 82 701 l 82 260 b 333 -14 82 81 164 -14 b 578 215 469 -14 578 54 z m 115 504 b 333 765 115 683 196 765 b 543 508 471 765 543 688 l 543 422 l 115 422 z m 332 899 b 374 946 357 899 374 913 b 333 997 374 978 360 997 b 290 947 306 997 290 979 b 332 899 290 913 306 899 z "},"è":{"ha":657,"x_min":0,"x_max":0,"o":"m 578 215 l 578 269 l 542 269 l 542 217 b 333 21 542 71 449 21 b 115 264 188 21 115 104 l 115 392 l 578 392 l 578 511 b 333 797 578 710 488 797 b 82 507 175 797 82 701 l 82 260 b 333 -14 82 81 164 -14 b 578 215 469 -14 578 54 z m 115 504 b 333 765 115 683 196 765 b 543 508 471 765 543 688 l 543 422 l 115 422 z m 322 900 l 358 900 l 239 1074 l 194 1074 z "},"ē":{"ha":657,"x_min":0,"x_max":0,"o":"m 578 215 l 578 269 l 542 269 l 542 217 b 333 21 542 71 449 21 b 115 264 188 21 115 104 l 115 392 l 578 392 l 578 511 b 333 797 578 710 488 797 b 82 507 175 797 82 701 l 82 260 b 333 -14 82 81 164 -14 b 578 215 469 -14 578 54 z m 115 504 b 333 765 115 683 196 765 b 543 508 471 765 543 688 l 543 422 l 115 422 z m 199 926 l 472 926 l 472 960 l 199 960 z "},"ę":{"ha":657,"x_min":0,"x_max":0,"o":"m 435 -231 b 581 -131 510 -231 556 -194 l 543 -131 b 435 -199 525 -175 489 -199 b 344 -122 379 -199 344 -167 b 447 6 344 -81 375 -40 b 578 215 525 36 578 103 l 578 269 l 542 269 l 542 217 b 333 21 542 71 449 21 b 115 264 188 21 115 104 l 115 392 l 578 392 l 578 511 b 333 797 578 710 488 797 b 82 507 175 797 82 701 l 82 260 b 333 -14 82 81 164 -14 b 372 -12 346 -14 360 -14 b 311 -124 332 -47 311 -85 b 435 -231 311 -187 354 -231 z m 115 504 b 333 765 115 683 196 765 b 543 508 471 765 543 688 l 543 422 l 115 422 z "},"ğ":{"ha":628,"x_min":0,"x_max":0,"o":"m 325 911 b 489 1076 432 911 483 985 l 457 1076 b 326 942 451 1000 410 943 b 199 1076 235 943 204 1000 l 165 1076 b 325 911 171 985 213 911 z m 306 -268 b 590 -89 479 -268 590 -190 l 590 -85 b 396 54 590 6 529 54 l 235 54 b 106 128 149 53 106 76 b 275 218 106 178 153 218 l 313 218 b 544 432 453 218 544 283 l 544 575 b 400 783 544 725 458 774 b 365 788 386 786 376 788 b 525 872 488 796 525 811 l 525 886 l 490 886 l 490 874 b 342 806 490 826 463 819 b 247 789 307 800 275 796 b 88 568 147 763 88 697 l 88 432 b 218 238 88 318 133 258 b 69 125 117 225 69 176 b 208 24 69 64 114 26 b 60 -128 119 -1 60 -53 b 283 -268 60 -212 124 -268 z m 311 249 b 122 432 189 249 122 306 l 122 568 b 257 760 122 683 171 738 b 325 768 276 765 301 768 b 510 575 438 768 510 711 l 510 432 b 311 249 510 308 438 249 z m 285 -235 b 94 -125 149 -235 94 -187 b 347 24 94 -32 197 24 l 390 24 b 557 -86 508 24 557 -7 l 557 -90 b 306 -235 557 -174 451 -235 z "},"ĝ":{"ha":628,"x_min":0,"x_max":0,"o":"m 404 926 l 444 926 l 324 1097 l 290 1097 l 167 926 l 207 926 l 307 1067 z m 306 -268 b 590 -89 479 -268 590 -190 l 590 -85 b 396 54 590 6 529 54 l 235 54 b 106 128 149 53 106 76 b 275 218 106 178 153 218 l 313 218 b 544 432 453 218 544 283 l 544 575 b 400 783 544 725 458 774 b 365 788 386 786 376 788 b 525 872 488 796 525 811 l 525 886 l 490 886 l 490 874 b 342 806 490 826 463 819 b 247 789 307 800 275 796 b 88 568 147 763 88 697 l 88 432 b 218 238 88 318 133 258 b 69 125 117 225 69 176 b 208 24 69 64 114 26 b 60 -128 119 -1 60 -53 b 283 -268 60 -212 124 -268 z m 311 249 b 122 432 189 249 122 306 l 122 568 b 257 760 122 683 171 738 b 325 768 276 765 301 768 b 510 575 438 768 510 711 l 510 432 b 311 249 510 308 438 249 z m 285 -235 b 94 -125 149 -235 94 -187 b 347 24 94 -32 197 24 l 390 24 b 557 -86 508 24 557 -7 l 557 -90 b 306 -235 557 -174 451 -235 z "},"ģ":{"ha":628,"x_min":0,"x_max":0,"o":"m 331 901 b 369 949 354 901 369 919 b 338 989 369 981 354 989 b 319 981 331 989 325 986 b 382 1092 324 1031 349 1067 l 365 1111 b 289 969 321 1078 289 1029 b 331 901 289 921 304 901 z m 306 -268 b 590 -89 479 -268 590 -190 l 590 -85 b 396 54 590 6 529 54 l 235 54 b 106 128 149 53 106 76 b 275 218 106 178 153 218 l 313 218 b 544 432 453 218 544 283 l 544 575 b 400 783 544 725 458 774 b 365 788 386 786 376 788 b 525 872 488 796 525 811 l 525 886 l 490 886 l 490 874 b 342 806 490 826 463 819 b 247 789 307 800 275 796 b 88 568 147 763 88 697 l 88 432 b 218 238 88 318 133 258 b 69 125 117 225 69 176 b 208 24 69 64 114 26 b 60 -128 119 -1 60 -53 b 283 -268 60 -212 124 -268 z m 311 249 b 122 432 189 249 122 306 l 122 568 b 257 760 122 683 171 738 b 325 768 276 765 301 768 b 510 575 438 768 510 711 l 510 432 b 311 249 510 308 438 249 z m 285 -235 b 94 -125 149 -235 94 -187 b 347 24 94 -32 197 24 l 390 24 b 557 -86 508 24 557 -7 l 557 -90 b 306 -235 557 -174 451 -235 z "},"ġ":{"ha":628,"x_min":0,"x_max":0,"o":"m 319 899 b 361 946 344 899 361 913 b 321 997 361 978 347 997 b 278 947 293 997 278 979 b 319 899 278 913 293 899 z m 306 -268 b 590 -89 479 -268 590 -190 l 590 -85 b 396 54 590 6 529 54 l 235 54 b 106 128 149 53 106 76 b 275 218 106 178 153 218 l 313 218 b 544 432 453 218 544 283 l 544 575 b 400 783 544 725 458 774 b 365 788 386 786 376 788 b 525 872 488 796 525 811 l 525 886 l 490 886 l 490 874 b 342 806 490 826 463 819 b 247 789 307 800 275 796 b 88 568 147 763 88 697 l 88 432 b 218 238 88 318 133 258 b 69 125 117 225 69 176 b 208 24 69 64 114 26 b 60 -128 119 -1 60 -53 b 283 -268 60 -212 124 -268 z m 311 249 b 122 432 189 249 122 306 l 122 568 b 257 760 122 683 171 738 b 325 768 276 765 301 768 b 510 575 438 768 510 711 l 510 432 b 311 249 510 308 438 249 z m 285 -235 b 94 -125 149 -235 94 -187 b 347 24 94 -32 197 24 l 390 24 b 557 -86 508 24 557 -7 l 557 -90 b 306 -235 557 -174 451 -235 z "},"ß":{"ha":710,"x_min":0,"x_max":0,"o":"m 397 -6 b 643 253 549 -6 643 79 l 643 301 b 456 550 643 457 575 528 b 614 765 551 574 614 638 l 614 808 b 364 1049 614 967 519 1049 b 108 800 206 1049 108 971 l 108 0 l 143 0 l 143 794 b 364 1017 143 954 226 1017 b 579 808 501 1017 579 949 l 579 765 b 361 563 579 628 494 563 l 322 563 l 322 528 l 365 528 b 608 299 524 528 608 469 l 608 256 b 399 28 608 101 519 28 b 307 38 344 28 325 32 l 307 4 b 397 -6 324 0 344 -6 z "},"ħ":{"ha":679,"x_min":0,"x_max":0,"o":"m 140 499 b 353 765 140 656 218 765 b 542 543 483 765 542 685 l 542 0 l 576 0 l 576 544 b 354 797 576 704 506 797 b 140 621 242 797 167 729 l 140 904 l 288 904 l 288 935 l 140 935 l 140 1047 l 108 1047 l 108 935 l 38 935 l 38 904 l 108 904 l 108 0 l 140 0 z "},"ĥ":{"ha":681,"x_min":0,"x_max":0,"o":"m 140 499 b 353 765 140 656 218 765 b 542 543 483 765 542 685 l 542 0 l 576 0 l 576 544 b 354 797 576 704 506 797 b 140 621 242 797 167 729 l 140 1047 l 108 1047 l 108 0 l 140 0 z m 225 1146 l 265 1146 l 144 1317 l 111 1317 l -12 1146 l 28 1146 l 128 1286 z "},"í":{"ha":251,"x_min":0,"x_max":0,"o":"m 143 0 l 143 783 l 108 783 l 108 0 z m 113 893 l 147 893 l 292 1110 l 249 1110 z "},"ĭ":{"ha":251,"x_min":0,"x_max":0,"o":"m 143 0 l 143 783 l 108 783 l 108 0 z m 124 878 b 288 1043 231 878 282 951 l 256 1043 b 125 908 250 967 208 910 b -3 1043 33 910 3 967 l -36 1043 b 124 878 -31 951 11 878 z "},"î":{"ha":251,"x_min":0,"x_max":0,"o":"m 143 0 l 143 783 l 108 783 l 108 0 z m 226 882 l 267 882 l 146 1053 l 113 1053 l -11 882 l 29 882 l 129 1022 z "},"ï":{"ha":251,"x_min":0,"x_max":0,"o":"m 143 0 l 143 783 l 108 783 l 108 0 z m 43 888 b 82 931 67 888 82 900 b 44 976 82 960 69 976 b 6 932 19 976 6 960 b 43 888 6 900 21 888 z m 203 888 b 239 931 225 888 239 900 b 203 976 239 960 228 976 b 164 932 178 976 164 960 b 203 888 164 900 178 888 z "},"ì":{"ha":251,"x_min":0,"x_max":0,"o":"m 143 0 l 143 783 l 108 783 l 108 0 z m 110 883 l 146 883 l 26 1057 l -18 1057 z "},"ī":{"ha":251,"x_min":0,"x_max":0,"o":"m 143 0 l 143 783 l 108 783 l 108 0 z m -10 910 l 264 910 l 264 943 l -10 943 z "},"į":{"ha":251,"x_min":0,"x_max":0,"o":"m 125 894 b 154 936 146 894 154 908 b 126 978 154 963 146 978 b 97 936 106 978 97 963 b 125 894 97 908 104 894 z m 265 -143 l 228 -143 b 119 -211 210 -187 174 -211 b 29 -135 64 -211 29 -179 b 143 0 29 -90 63 -49 l 143 783 l 108 783 l 108 14 b -4 -136 35 -33 -4 -83 b 119 -243 -4 -200 39 -243 b 265 -143 194 -243 240 -207 z "},"ĩ":{"ha":251,"x_min":0,"x_max":0,"o":"m 143 0 l 143 783 l 108 783 l 108 0 z m -53 886 l -22 886 b 32 960 -22 935 -8 960 b 213 885 89 960 140 885 b 300 990 271 885 300 924 l 269 990 b 214 915 269 938 250 915 b 32 990 160 915 110 990 b -53 886 -25 990 -53 954 z "},"ı":{"ha":251,"x_min":0,"x_max":0,"o":"m 143 0 l 143 783 l 108 783 l 108 0 z "},"ĵ":{"ha":256,"x_min":0,"x_max":0,"o":"m -43 -210 l -12 -210 b 146 -28 111 -210 146 -171 l 146 783 l 111 783 l 111 -28 b -14 -179 111 -149 86 -179 l -43 -179 z m 231 882 l 271 882 l 150 1053 l 117 1053 l -7 882 l 33 882 l 133 1022 z "},"ȷ":{"ha":256,"x_min":0,"x_max":0,"o":"m -43 -210 l -12 -210 b 146 -28 111 -210 146 -171 l 146 783 l 111 783 l 111 -28 b -14 -179 111 -149 86 -179 l -43 -179 z "},"ķ":{"ha":610,"x_min":0,"x_max":0,"o":"m 535 0 l 574 0 l 340 503 l 549 783 l 507 783 l 142 294 l 142 1047 l 108 1047 l 108 0 l 142 0 l 142 249 l 315 478 z m 296 -282 b 372 -140 340 -250 372 -200 b 331 -74 372 -93 357 -74 b 292 -119 307 -74 292 -90 b 324 -161 292 -151 307 -161 b 342 -153 331 -161 336 -158 b 279 -262 338 -201 313 -239 z "},"ĸ":{"ha":610,"x_min":0,"x_max":0,"o":"m 535 0 l 574 0 l 340 503 l 549 783 l 507 783 l 142 294 l 142 783 l 108 783 l 108 0 l 142 0 l 142 249 l 315 478 z "},"ĺ":{"ha":254,"x_min":0,"x_max":0,"o":"m 144 0 l 144 1047 l 110 1047 l 110 0 z m 108 1147 l 143 1147 l 288 1364 l 244 1364 z "},"ľ":{"ha":254,"x_min":0,"x_max":0,"o":"m 144 0 l 144 1047 l 110 1047 l 110 0 z m 249 918 l 279 918 l 349 1110 l 307 1110 z "},"ļ":{"ha":254,"x_min":0,"x_max":0,"o":"m 144 0 l 144 1047 l 110 1047 l 110 0 z m 108 -290 b 185 -149 153 -258 185 -208 b 143 -82 185 -101 169 -82 b 104 -128 119 -82 104 -99 b 136 -169 104 -160 119 -169 b 154 -161 143 -169 149 -167 b 92 -271 150 -210 125 -247 z "},"ŀ":{"ha":325,"x_min":0,"x_max":0,"o":"m 144 0 l 144 1047 l 110 1047 l 110 0 z m 283 322 b 325 369 308 322 325 336 b 285 421 325 401 311 421 b 242 371 257 421 242 403 b 283 322 242 336 257 322 z "},"ł":{"ha":268,"x_min":0,"x_max":0,"o":"m 153 0 l 153 449 l 260 488 l 250 515 l 153 479 l 153 1047 l 118 1047 l 118 467 l 8 426 l 18 399 l 118 435 l 118 0 z "},"ń":{"ha":681,"x_min":0,"x_max":0,"o":"m 143 499 b 354 765 143 664 217 765 b 543 539 488 765 543 683 l 543 0 l 578 0 l 578 540 b 356 797 578 708 508 797 b 139 621 235 797 163 728 l 133 783 l 108 783 l 108 0 l 143 0 z m 336 897 l 371 897 l 515 1114 l 472 1114 z "},"ň":{"ha":681,"x_min":0,"x_max":0,"o":"m 143 499 b 354 765 143 664 217 765 b 543 539 488 765 543 683 l 543 0 l 578 0 l 578 540 b 356 797 578 708 508 797 b 139 621 235 797 163 728 l 133 783 l 108 783 l 108 0 l 143 0 z m 368 894 l 496 1061 l 454 1061 l 356 926 l 261 1061 l 219 1061 l 340 894 z "},"ņ":{"ha":681,"x_min":0,"x_max":0,"o":"m 143 499 b 354 765 143 664 217 765 b 543 539 488 765 543 683 l 543 0 l 578 0 l 578 540 b 356 797 578 708 508 797 b 139 621 235 797 163 728 l 133 783 l 108 783 l 108 0 l 143 0 z m 317 -282 b 393 -140 361 -250 393 -200 b 351 -74 393 -93 378 -74 b 313 -119 328 -74 313 -90 b 344 -161 313 -151 328 -161 b 363 -153 351 -161 357 -158 b 300 -262 358 -201 333 -239 z "},"ñ":{"ha":681,"x_min":0,"x_max":0,"o":"m 143 499 b 354 765 143 664 217 765 b 543 539 488 765 543 683 l 543 0 l 578 0 l 578 540 b 356 797 578 708 508 797 b 139 621 235 797 163 728 l 133 783 l 108 783 l 108 0 l 143 0 z m 178 900 l 208 900 b 263 974 208 949 222 974 b 443 899 319 974 371 899 b 531 1004 501 899 531 938 l 500 1004 b 444 929 500 951 481 929 b 263 1004 390 929 340 1004 b 178 900 206 1004 178 968 z "},"ŋ":{"ha":681,"x_min":0,"x_max":0,"o":"m 419 -210 b 578 -28 543 -210 578 -171 l 578 540 b 356 797 578 708 508 797 b 139 621 235 797 163 728 l 133 783 l 108 783 l 108 0 l 143 0 l 143 499 b 354 765 143 664 217 765 b 543 539 488 765 543 683 l 543 -28 b 418 -179 543 -149 518 -179 l 389 -179 l 389 -210 z "},"ó":{"ha":668,"x_min":0,"x_max":0,"o":"m 331 -14 b 579 261 488 -14 579 74 l 579 508 b 331 797 579 711 489 797 b 82 508 172 797 82 711 l 82 261 b 331 -14 82 74 174 -14 z m 331 21 b 117 265 186 21 117 107 l 117 506 b 331 765 117 685 193 765 b 544 506 468 765 544 685 l 544 265 b 331 21 544 107 475 21 z m 311 896 l 346 896 l 490 1113 l 447 1113 z "},"ŏ":{"ha":668,"x_min":0,"x_max":0,"o":"m 331 -14 b 579 261 488 -14 579 74 l 579 508 b 331 797 579 711 489 797 b 82 508 172 797 82 711 l 82 261 b 331 -14 82 74 174 -14 z m 331 21 b 117 265 186 21 117 107 l 117 506 b 331 765 117 685 193 765 b 544 506 468 765 544 685 l 544 265 b 331 21 544 107 475 21 z m 329 890 b 493 1056 436 890 488 964 l 461 1056 b 331 921 456 979 414 922 b 203 1056 239 922 208 979 l 169 1056 b 329 890 175 964 217 890 z "},"ô":{"ha":668,"x_min":0,"x_max":0,"o":"m 331 -14 b 579 261 488 -14 579 74 l 579 508 b 331 797 579 711 489 797 b 82 508 172 797 82 711 l 82 261 b 331 -14 82 74 174 -14 z m 331 21 b 117 265 186 21 117 107 l 117 506 b 331 765 117 685 193 765 b 544 506 468 765 544 685 l 544 265 b 331 21 544 107 475 21 z m 432 894 l 472 894 l 351 1065 l 318 1065 l 194 894 l 235 894 l 335 1035 z "},"ö":{"ha":668,"x_min":0,"x_max":0,"o":"m 331 -14 b 579 261 488 -14 579 74 l 579 508 b 331 797 579 711 489 797 b 82 508 172 797 82 711 l 82 261 b 331 -14 82 74 174 -14 z m 331 21 b 117 265 186 21 117 107 l 117 506 b 331 765 117 685 193 765 b 544 506 468 765 544 685 l 544 265 b 331 21 544 107 475 21 z m 250 900 b 289 943 274 900 289 913 b 251 989 289 972 276 989 b 213 944 226 989 213 972 b 250 900 213 913 228 900 z m 410 900 b 446 943 432 900 446 913 b 410 989 446 972 435 989 b 371 944 385 989 371 972 b 410 900 371 913 385 900 z "},"œ":{"ha":1121,"x_min":0,"x_max":0,"o":"m 1042 215 l 1042 269 l 1006 269 l 1006 217 b 797 21 1006 71 913 21 b 579 264 651 21 579 104 l 579 392 l 1042 392 l 1042 511 b 797 797 1042 710 951 797 b 561 608 665 797 588 735 b 331 797 539 740 464 797 b 82 508 172 797 82 711 l 82 261 b 331 -14 82 74 174 -14 b 561 165 461 -14 538 43 b 797 -14 585 47 657 -14 b 1042 215 933 -14 1042 54 z m 579 504 b 797 765 579 683 660 765 b 1007 508 935 765 1007 688 l 1007 422 l 579 422 z m 331 21 b 117 265 186 21 117 107 l 117 506 b 331 765 117 685 193 765 b 544 506 468 765 544 685 l 544 265 b 331 21 544 107 475 21 z "},"ò":{"ha":668,"x_min":0,"x_max":0,"o":"m 331 -14 b 579 261 488 -14 579 74 l 579 508 b 331 797 579 711 489 797 b 82 508 172 797 82 711 l 82 261 b 331 -14 82 74 174 -14 z m 331 21 b 117 265 186 21 117 107 l 117 506 b 331 765 117 685 193 765 b 544 506 468 765 544 685 l 544 265 b 331 21 544 107 475 21 z m 319 896 l 356 896 l 236 1069 l 192 1069 z "},"ő":{"ha":668,"x_min":0,"x_max":0,"o":"m 331 -14 b 579 261 488 -14 579 74 l 579 508 b 331 797 579 711 489 797 b 82 508 172 797 82 711 l 82 261 b 331 -14 82 74 174 -14 z m 331 21 b 117 265 186 21 117 107 l 117 506 b 331 765 117 685 193 765 b 544 506 468 765 544 685 l 544 265 b 331 21 544 107 475 21 z m 544 1069 l 497 1069 l 369 896 l 406 896 z m 407 1069 l 361 1069 l 250 896 l 285 896 z "},"ō":{"ha":668,"x_min":0,"x_max":0,"o":"m 331 -14 b 579 261 488 -14 579 74 l 579 508 b 331 797 579 711 489 797 b 82 508 172 797 82 711 l 82 261 b 331 -14 82 74 174 -14 z m 331 21 b 117 265 186 21 117 107 l 117 506 b 331 765 117 685 193 765 b 544 506 468 765 544 685 l 544 265 b 331 21 544 107 475 21 z m 196 922 l 469 922 l 469 956 l 196 956 z "},"ø":{"ha":668,"x_min":0,"x_max":0,"o":"m 117 265 l 117 506 b 331 765 117 685 193 765 b 439 742 372 765 410 758 l 213 49 b 117 265 149 85 117 158 z m 331 21 b 240 35 296 21 267 25 l 465 725 b 544 506 517 685 544 613 l 544 265 b 331 21 544 107 475 21 z m 331 -14 b 579 261 488 -14 579 74 l 579 508 b 478 760 579 636 543 717 l 525 903 l 493 903 l 450 775 b 331 797 417 790 376 797 b 82 508 172 797 82 711 l 82 261 b 201 14 82 133 125 53 l 154 -125 l 188 -125 l 229 1 b 331 -14 258 -8 293 -14 z "},"ǿ":{"ha":668,"x_min":0,"x_max":0,"o":"m 117 265 l 117 506 b 331 765 117 685 193 765 b 439 742 372 765 410 758 l 213 49 b 117 265 149 85 117 158 z m 331 21 b 240 35 296 21 267 25 l 465 725 b 544 506 517 685 544 613 l 544 265 b 331 21 544 107 475 21 z m 331 -14 b 579 261 488 -14 579 74 l 579 508 b 478 760 579 636 543 717 l 525 903 l 493 903 l 450 775 b 331 797 417 790 376 797 b 82 508 172 797 82 711 l 82 261 b 201 14 82 133 125 53 l 154 -125 l 188 -125 l 229 1 b 331 -14 258 -8 293 -14 z m 308 925 l 343 925 l 488 1142 l 444 1142 z "},"õ":{"ha":668,"x_min":0,"x_max":0,"o":"m 331 -14 b 579 261 488 -14 579 74 l 579 508 b 331 797 579 711 489 797 b 82 508 172 797 82 711 l 82 261 b 331 -14 82 74 174 -14 z m 331 21 b 117 265 186 21 117 107 l 117 506 b 331 765 117 685 193 765 b 544 506 468 765 544 685 l 544 265 b 331 21 544 107 475 21 z m 153 899 l 183 899 b 238 972 183 947 197 972 b 418 897 294 972 346 897 b 506 1003 476 897 506 936 l 475 1003 b 419 928 475 950 456 928 b 238 1003 365 928 315 1003 b 153 899 181 1003 153 967 z "},"ŕ":{"ha":422,"x_min":0,"x_max":0,"o":"m 142 0 l 142 478 b 363 750 142 658 201 750 l 386 750 l 386 783 l 364 783 b 140 624 233 783 167 725 l 133 783 l 108 783 l 108 0 z m 207 876 l 242 876 l 386 1093 l 343 1093 z "},"ř":{"ha":422,"x_min":0,"x_max":0,"o":"m 142 0 l 142 478 b 363 750 142 658 201 750 l 386 750 l 386 783 l 364 783 b 140 624 233 783 167 725 l 133 783 l 108 783 l 108 0 z m 239 874 l 367 1040 l 325 1040 l 226 906 l 132 1040 l 90 1040 l 211 874 z "},"ŗ":{"ha":422,"x_min":0,"x_max":0,"o":"m 142 0 l 142 478 b 363 750 142 658 201 750 l 386 750 l 386 783 l 364 783 b 140 624 233 783 167 725 l 133 783 l 108 783 l 108 0 z m 92 -290 b 168 -149 136 -258 168 -208 b 126 -82 168 -101 153 -82 b 88 -128 103 -82 88 -99 b 119 -169 88 -160 103 -169 b 138 -161 126 -169 132 -167 b 75 -271 133 -210 108 -247 z "},"ś":{"ha":618,"x_min":0,"x_max":0,"o":"m 314 -14 b 542 203 471 -14 542 68 l 542 218 b 328 421 542 346 433 385 b 128 593 226 456 128 488 l 128 608 b 306 765 128 699 188 765 b 490 606 428 765 490 707 l 490 547 l 526 547 l 526 604 b 307 797 526 728 447 797 b 93 607 169 797 93 721 l 93 592 b 306 393 93 467 200 429 b 507 218 407 358 507 325 l 507 203 b 314 21 507 88 449 21 b 113 203 179 21 113 97 l 113 271 l 76 271 l 76 203 b 314 -14 76 68 157 -14 z m 288 897 l 322 897 l 467 1114 l 424 1114 z "},"š":{"ha":618,"x_min":0,"x_max":0,"o":"m 314 -14 b 542 203 471 -14 542 68 l 542 218 b 328 421 542 346 433 385 b 128 593 226 456 128 488 l 128 608 b 306 765 128 699 188 765 b 490 606 428 765 490 707 l 490 547 l 526 547 l 526 604 b 307 797 526 728 447 797 b 93 607 169 797 93 721 l 93 592 b 306 393 93 467 200 429 b 507 218 407 358 507 325 l 507 203 b 314 21 507 88 449 21 b 113 203 179 21 113 97 l 113 271 l 76 271 l 76 203 b 314 -14 76 68 157 -14 z m 319 894 l 447 1061 l 406 1061 l 307 926 l 213 1061 l 171 1061 l 292 894 z "},"ş":{"ha":618,"x_min":0,"x_max":0,"o":"m 317 -272 b 447 -171 396 -272 447 -232 b 329 -85 447 -114 407 -86 l 329 -14 b 542 203 475 -8 542 72 l 542 218 b 328 421 542 346 433 385 b 128 593 226 456 128 488 l 128 608 b 306 765 128 699 188 765 b 490 606 428 765 490 707 l 490 547 l 526 547 l 526 604 b 307 797 526 728 447 797 b 93 607 169 797 93 721 l 93 592 b 306 393 93 467 200 429 b 507 218 407 358 507 325 l 507 203 b 314 21 507 88 449 21 b 113 203 179 21 113 97 l 113 271 l 76 271 l 76 203 b 294 -14 76 74 150 -7 l 294 -114 l 315 -114 b 413 -174 386 -114 413 -128 b 317 -240 413 -221 375 -240 b 218 -168 261 -240 225 -219 l 182 -168 b 317 -272 192 -236 236 -272 z "},"ŝ":{"ha":618,"x_min":0,"x_max":0,"o":"m 314 -14 b 542 203 471 -14 542 68 l 542 218 b 328 421 542 346 433 385 b 128 593 226 456 128 488 l 128 608 b 306 765 128 699 188 765 b 490 606 428 765 490 707 l 490 547 l 526 547 l 526 604 b 307 797 526 728 447 797 b 93 607 169 797 93 721 l 93 592 b 306 393 93 467 200 429 b 507 218 407 358 507 325 l 507 203 b 314 21 507 88 449 21 b 113 203 179 21 113 97 l 113 271 l 76 271 l 76 203 b 314 -14 76 68 157 -14 z m 408 896 l 449 896 l 328 1067 l 294 1067 l 171 896 l 211 896 l 311 1036 z "},"ș":{"ha":618,"x_min":0,"x_max":0,"o":"m 314 -14 b 542 203 471 -14 542 68 l 542 218 b 328 421 542 346 433 385 b 128 593 226 456 128 488 l 128 608 b 306 765 128 699 188 765 b 490 606 428 765 490 707 l 490 547 l 526 547 l 526 604 b 307 797 526 728 447 797 b 93 607 169 797 93 721 l 93 592 b 306 393 93 467 200 429 b 507 218 407 358 507 325 l 507 203 b 314 21 507 88 449 21 b 113 203 179 21 113 97 l 113 271 l 76 271 l 76 203 b 314 -14 76 68 157 -14 z m 281 -304 b 357 -162 325 -272 357 -222 b 315 -96 357 -115 342 -96 b 276 -142 292 -96 276 -112 b 308 -183 276 -174 292 -183 b 326 -175 315 -183 321 -181 b 264 -285 322 -224 297 -261 z "},"ŧ":{"ha":393,"x_min":0,"x_max":0,"o":"m 351 33 l 317 33 b 167 218 201 33 167 64 l 167 400 l 306 400 l 306 429 l 167 429 l 167 753 l 351 753 l 351 783 l 167 783 l 167 947 l 140 947 b 138 840 140 928 138 850 b 88 782 133 783 132 782 l 25 781 l 25 753 l 133 753 l 133 429 l 49 429 l 49 400 l 133 400 l 133 218 b 315 0 133 40 176 0 l 351 0 z "},"ť":{"ha":393,"x_min":0,"x_max":0,"o":"m 351 33 l 317 33 b 167 218 201 33 167 64 l 167 753 l 351 753 l 351 783 l 167 783 l 167 947 l 140 947 b 138 840 140 928 138 850 b 88 782 133 783 132 782 l 25 781 l 25 753 l 133 753 l 133 218 b 315 0 133 40 176 0 l 351 0 z m 249 908 l 279 908 l 349 1100 l 307 1100 z "},"ţ":{"ha":393,"x_min":0,"x_max":0,"o":"m 351 33 l 317 33 b 167 218 201 33 167 64 l 167 753 l 351 753 l 351 783 l 167 783 l 167 947 l 140 947 b 138 840 140 928 138 850 b 88 782 133 783 132 782 l 25 781 l 25 753 l 133 753 l 133 218 b 315 0 133 40 176 0 l 351 0 z m 213 -289 b 289 -147 257 -257 289 -207 b 247 -81 289 -100 274 -81 b 208 -126 224 -81 208 -97 b 240 -168 208 -158 224 -168 b 258 -160 247 -168 253 -165 b 196 -269 254 -208 229 -246 z "},"ú":{"ha":657,"x_min":0,"x_max":0,"o":"m 522 0 l 549 0 l 549 783 l 514 783 l 514 286 b 315 21 514 121 436 21 b 139 242 193 21 139 101 l 139 783 l 104 783 l 104 240 b 314 -14 104 81 171 -14 b 517 157 419 -14 490 51 z m 303 861 l 338 861 l 482 1078 l 439 1078 z "},"ŭ":{"ha":657,"x_min":0,"x_max":0,"o":"m 522 0 l 549 0 l 549 783 l 514 783 l 514 286 b 315 21 514 121 436 21 b 139 242 193 21 139 101 l 139 783 l 104 783 l 104 240 b 314 -14 104 81 171 -14 b 517 157 419 -14 490 51 z m 325 872 b 489 1038 432 872 483 946 l 457 1038 b 326 903 451 961 410 904 b 199 1038 235 904 204 961 l 165 1038 b 325 872 171 946 213 872 z "},"û":{"ha":657,"x_min":0,"x_max":0,"o":"m 522 0 l 549 0 l 549 783 l 514 783 l 514 286 b 315 21 514 121 436 21 b 139 242 193 21 139 101 l 139 783 l 104 783 l 104 240 b 314 -14 104 81 171 -14 b 517 157 419 -14 490 51 z m 428 876 l 468 876 l 347 1047 l 314 1047 l 190 876 l 231 876 l 331 1017 z "},"ü":{"ha":657,"x_min":0,"x_max":0,"o":"m 522 0 l 549 0 l 549 783 l 514 783 l 514 286 b 315 21 514 121 436 21 b 139 242 193 21 139 101 l 139 783 l 104 783 l 104 240 b 314 -14 104 81 171 -14 b 517 157 419 -14 490 51 z m 244 882 b 283 925 268 882 283 894 b 246 971 283 954 271 971 b 207 926 221 971 207 954 b 244 882 207 894 222 882 z m 404 882 b 440 925 426 882 440 894 b 404 971 440 954 429 971 b 365 926 379 971 365 954 b 404 882 365 894 379 882 z "},"ù":{"ha":657,"x_min":0,"x_max":0,"o":"m 522 0 l 549 0 l 549 783 l 514 783 l 514 286 b 315 21 514 121 436 21 b 139 242 193 21 139 101 l 139 783 l 104 783 l 104 240 b 314 -14 104 81 171 -14 b 517 157 419 -14 490 51 z m 317 860 l 353 860 l 233 1033 l 189 1033 z "},"ű":{"ha":657,"x_min":0,"x_max":0,"o":"m 522 0 l 549 0 l 549 783 l 514 783 l 514 286 b 315 21 514 121 436 21 b 139 242 193 21 139 101 l 139 783 l 104 783 l 104 240 b 314 -14 104 81 171 -14 b 517 157 419 -14 490 51 z m 528 1049 l 481 1049 l 353 875 l 389 875 z m 390 1049 l 344 1049 l 233 875 l 268 875 z "},"ū":{"ha":657,"x_min":0,"x_max":0,"o":"m 522 0 l 549 0 l 549 783 l 514 783 l 514 286 b 315 21 514 121 436 21 b 139 242 193 21 139 101 l 139 783 l 104 783 l 104 240 b 314 -14 104 81 171 -14 b 517 157 419 -14 490 51 z m 192 904 l 465 904 l 465 938 l 192 938 z "},"ų":{"ha":657,"x_min":0,"x_max":0,"o":"m 671 -143 l 633 -143 b 525 -211 615 -187 579 -211 b 435 -135 469 -211 435 -179 b 549 0 435 -90 468 -49 l 549 783 l 514 783 l 514 286 b 315 21 514 121 436 21 b 139 242 193 21 139 101 l 139 783 l 104 783 l 104 240 b 314 -14 104 81 171 -14 b 517 157 419 -14 490 51 l 522 18 b 401 -136 444 -28 401 -81 b 525 -243 401 -200 444 -243 b 671 -143 600 -243 646 -207 z "},"ů":{"ha":657,"x_min":0,"x_max":0,"o":"m 522 0 l 549 0 l 549 783 l 514 783 l 514 286 b 315 21 514 121 436 21 b 139 242 193 21 139 101 l 139 783 l 104 783 l 104 240 b 314 -14 104 81 171 -14 b 517 157 419 -14 490 51 z m 325 865 b 435 974 390 865 435 908 b 325 1082 435 1040 390 1082 b 217 974 263 1082 217 1039 b 325 865 217 911 261 865 z m 325 897 b 251 974 279 897 251 929 b 325 1050 251 1019 281 1050 b 401 974 371 1050 401 1019 b 325 897 401 926 371 897 z "},"ũ":{"ha":657,"x_min":0,"x_max":0,"o":"m 522 0 l 549 0 l 549 783 l 514 783 l 514 286 b 315 21 514 121 436 21 b 139 242 193 21 139 101 l 139 783 l 104 783 l 104 240 b 314 -14 104 81 171 -14 b 517 157 419 -14 490 51 z m 149 881 l 179 881 b 233 954 179 929 193 954 b 414 879 290 954 342 879 b 501 985 472 879 501 918 l 471 985 b 415 910 471 932 451 910 b 233 985 361 910 311 985 b 149 881 176 985 149 949 z "},"ẃ":{"ha":883,"x_min":0,"x_max":0,"o":"m 428 672 l 440 732 l 451 674 l 626 0 l 658 0 l 829 783 l 794 783 l 651 104 l 640 42 l 629 107 l 451 783 l 429 783 l 240 106 l 226 42 l 218 106 l 89 783 l 54 783 l 208 0 l 240 0 z m 421 883 l 456 883 l 600 1100 l 557 1100 z "},"ŵ":{"ha":883,"x_min":0,"x_max":0,"o":"m 428 672 l 440 732 l 451 674 l 626 0 l 658 0 l 829 783 l 794 783 l 651 104 l 640 42 l 629 107 l 451 783 l 429 783 l 240 106 l 226 42 l 218 106 l 89 783 l 54 783 l 208 0 l 240 0 z m 542 882 l 582 882 l 461 1053 l 428 1053 l 304 882 l 344 882 l 444 1022 z "},"ẅ":{"ha":883,"x_min":0,"x_max":0,"o":"m 428 672 l 440 732 l 451 674 l 626 0 l 658 0 l 829 783 l 794 783 l 651 104 l 640 42 l 629 107 l 451 783 l 429 783 l 240 106 l 226 42 l 218 106 l 89 783 l 54 783 l 208 0 l 240 0 z m 358 888 b 397 931 382 888 397 900 b 360 976 397 960 385 976 b 321 932 335 976 321 960 b 358 888 321 900 336 888 z m 518 888 b 554 931 540 888 554 900 b 518 976 554 960 543 976 b 479 932 493 976 479 960 b 518 888 479 900 493 888 z "},"ẁ":{"ha":883,"x_min":0,"x_max":0,"o":"m 428 672 l 440 732 l 451 674 l 626 0 l 658 0 l 829 783 l 794 783 l 651 104 l 640 42 l 629 107 l 451 783 l 429 783 l 240 106 l 226 42 l 218 106 l 89 783 l 54 783 l 208 0 l 240 0 z m 429 883 l 465 883 l 346 1057 l 301 1057 z "},"ý":{"ha":585,"x_min":0,"x_max":0,"o":"m 92 -210 b 303 -40 221 -210 253 -178 l 542 783 l 506 783 l 315 114 l 301 51 l 286 113 l 85 783 l 49 783 l 283 11 l 271 -36 b 90 -178 226 -156 199 -178 l 68 -178 l 68 -210 z m 275 867 l 310 867 l 454 1083 l 411 1083 z "},"ŷ":{"ha":585,"x_min":0,"x_max":0,"o":"m 92 -210 b 303 -40 221 -210 253 -178 l 542 783 l 506 783 l 315 114 l 301 51 l 286 113 l 85 783 l 49 783 l 283 11 l 271 -36 b 90 -178 226 -156 199 -178 l 68 -178 l 68 -210 z m 396 871 l 436 871 l 315 1042 l 282 1042 l 158 871 l 199 871 l 299 1011 z "},"ÿ":{"ha":585,"x_min":0,"x_max":0,"o":"m 92 -210 b 303 -40 221 -210 253 -178 l 542 783 l 506 783 l 315 114 l 301 51 l 286 113 l 85 783 l 49 783 l 283 11 l 271 -36 b 90 -178 226 -156 199 -178 l 68 -178 l 68 -210 z m 213 876 b 251 919 236 876 251 889 b 214 965 251 949 239 965 b 175 921 189 965 175 949 b 213 876 175 889 190 876 z m 372 876 b 408 919 394 876 408 889 b 372 965 408 949 397 965 b 333 921 347 965 333 949 b 372 876 333 889 347 876 z "},"ỳ":{"ha":585,"x_min":0,"x_max":0,"o":"m 92 -210 b 303 -40 221 -210 253 -178 l 542 783 l 506 783 l 315 114 l 301 51 l 286 113 l 85 783 l 49 783 l 283 11 l 271 -36 b 90 -178 226 -156 199 -178 l 68 -178 l 68 -210 z m 285 850 l 321 850 l 201 1024 l 157 1024 z "},"ĳ":{"ha":504,"x_min":0,"x_max":0,"o":"m 381 900 b 408 942 400 900 408 914 b 381 983 408 968 401 983 b 351 942 361 983 351 968 b 381 900 351 914 360 900 z m 126 900 b 156 942 147 900 156 914 b 128 983 156 968 147 983 b 99 942 107 983 99 968 b 126 900 99 914 106 900 z m 239 -210 b 396 -28 361 -210 396 -171 l 396 783 l 363 783 l 363 -28 b 238 -179 363 -149 338 -179 l 103 -179 l 103 -210 z m 143 0 l 143 783 l 108 783 l 108 0 z "},"ź":{"ha":556,"x_min":0,"x_max":0,"o":"m 506 0 l 506 33 l 86 33 l 508 753 l 508 783 l 72 783 l 72 751 l 471 751 l 46 28 l 46 0 z m 271 883 l 306 883 l 450 1100 l 407 1100 z "},"ž":{"ha":556,"x_min":0,"x_max":0,"o":"m 506 0 l 506 33 l 86 33 l 508 753 l 508 783 l 72 783 l 72 751 l 471 751 l 46 28 l 46 0 z m 303 881 l 431 1047 l 389 1047 l 290 913 l 196 1047 l 154 1047 l 275 881 z "},"ż":{"ha":556,"x_min":0,"x_max":0,"o":"m 506 0 l 506 33 l 86 33 l 508 753 l 508 783 l 72 783 l 72 751 l 471 751 l 46 28 l 46 0 z m 289 882 b 331 929 314 882 331 896 b 290 981 331 961 317 981 b 247 931 263 981 247 963 b 289 882 247 896 263 882 z "},"þ":{"ha":692,"x_min":0,"x_max":0,"o":"m 353 21 b 140 282 211 21 140 122 l 140 492 b 361 765 140 653 215 765 b 568 499 497 765 568 678 l 568 281 b 353 21 568 114 500 21 z m 353 -14 b 603 276 513 -14 603 89 l 603 504 b 361 797 603 707 518 797 b 140 619 240 797 168 729 l 140 1047 l 108 1047 l 108 -278 l 140 -278 l 140 156 b 353 -14 165 47 235 -14 z "},"ª":{"ha":469,"x_min":0,"x_max":0,"o":"m 200 449 b 92 553 125 449 92 489 l 92 567 b 129 654 92 607 107 632 b 253 721 157 682 183 694 b 365 799 318 747 354 761 l 364 654 b 200 449 364 549 304 449 z m 365 426 l 394 426 l 396 868 b 239 999 396 942 340 999 b 67 853 133 999 71 936 l 67 797 l 103 797 l 103 854 b 239 968 106 915 151 968 b 364 869 324 968 364 928 l 364 846 b 246 751 364 794 310 778 b 110 681 174 725 138 707 b 57 567 82 654 57 621 l 57 549 b 200 417 57 468 103 417 b 364 558 281 417 342 471 z "},"º":{"ha":483,"x_min":0,"x_max":0,"o":"m 242 418 b 418 606 350 418 418 492 l 418 810 b 242 1000 418 925 350 1000 b 65 808 136 1000 65 926 l 65 604 b 242 418 65 492 126 418 z m 242 450 b 100 606 147 450 100 513 l 100 808 b 242 968 100 907 156 968 b 385 810 331 968 385 903 l 385 606 b 242 450 385 513 336 450 z "},"&":{"ha":821,"x_min":0,"x_max":0,"o":"m 243 803 l 243 814 b 374 958 243 904 297 958 b 497 833 453 958 497 906 l 497 821 b 297 554 497 699 397 629 b 243 803 261 643 243 722 z m 313 21 b 93 222 192 21 93 79 l 93 226 b 283 506 94 353 185 432 b 363 346 306 454 332 401 b 533 97 418 246 475 160 b 313 21 475 50 401 21 z m 715 -8 b 776 8 738 -8 760 -4 l 776 46 b 715 25 757 29 739 25 b 581 97 675 25 629 51 b 743 575 690 207 743 388 l 743 669 l 710 669 l 710 575 b 558 121 710 399 663 225 b 392 361 503 181 446 264 b 310 522 360 419 332 472 b 531 822 421 608 531 685 l 531 833 b 374 990 531 929 469 990 b 210 814 281 990 210 924 l 210 803 b 269 538 210 718 232 631 b 58 226 160 456 58 365 l 58 222 b 313 -12 58 57 165 -12 b 557 74 411 -12 492 19 b 715 -8 611 22 664 -8 z "},"´":{"ha":525,"x_min":0,"x_max":0,"o":"m 224 893 l 258 893 l 403 1110 l 360 1110 z "},"˘":{"ha":525,"x_min":0,"x_max":0,"o":"m 257 888 b 421 1053 364 888 415 961 l 389 1053 b 258 918 383 976 342 919 b 131 1053 167 919 136 976 l 97 1053 b 257 888 103 961 144 888 z "},"ˇ":{"ha":525,"x_min":0,"x_max":0,"o":"m 274 890 l 401 1057 l 360 1057 l 261 922 l 167 1057 l 125 1057 l 246 890 z "},"¸":{"ha":525,"x_min":0,"x_max":0,"o":"m 260 -258 b 390 -157 339 -258 390 -218 b 272 -71 390 -100 350 -72 l 272 7 l 238 7 l 238 -100 l 258 -100 b 356 -160 329 -100 356 -114 b 260 -226 356 -207 318 -226 b 161 -154 204 -226 168 -206 l 125 -154 b 260 -258 135 -222 179 -258 z "},"ˆ":{"ha":525,"x_min":0,"x_max":0,"o":"m 360 892 l 400 892 l 279 1063 l 246 1063 l 122 892 l 163 892 l 263 1032 z "},"¨":{"ha":526,"x_min":0,"x_max":0,"o":"m 175 897 b 214 940 199 897 214 910 b 176 986 214 969 201 986 b 138 942 151 986 138 969 b 175 897 138 910 153 897 z m 335 897 b 371 940 357 897 371 910 b 335 986 371 969 360 986 b 296 942 310 986 296 969 b 335 897 296 910 310 897 z "},"˙":{"ha":526,"x_min":0,"x_max":0,"o":"m 254 892 b 296 939 279 892 296 906 b 256 990 296 971 282 990 b 213 940 228 990 213 972 b 254 892 213 906 228 892 z "},"`":{"ha":525,"x_min":0,"x_max":0,"o":"m 269 892 l 306 892 l 186 1065 l 142 1065 z "},"˝":{"ha":525,"x_min":0,"x_max":0,"o":"m 458 1067 l 411 1067 l 283 893 l 319 893 z m 321 1067 l 275 1067 l 164 893 l 199 893 z "},"¯":{"ha":525,"x_min":0,"x_max":0,"o":"m 126 919 l 400 919 l 400 953 l 126 953 z "},"˛":{"ha":525,"x_min":0,"x_max":0,"o":"m 267 -243 b 413 -143 342 -243 388 -207 l 375 -143 b 267 -211 357 -187 321 -211 b 176 -135 211 -211 176 -179 b 290 0 176 -90 210 -49 l 267 21 b 143 -136 186 -28 143 -81 b 267 -243 143 -200 186 -243 z "},"˚":{"ha":525,"x_min":0,"x_max":0,"o":"m 257 890 b 367 999 322 890 367 933 b 257 1107 367 1065 322 1107 b 149 999 194 1107 149 1064 b 257 890 149 936 193 890 z m 257 922 b 183 999 211 922 183 954 b 257 1075 183 1044 213 1075 b 333 999 303 1075 333 1044 b 257 922 333 951 303 922 z "},"˜":{"ha":525,"x_min":0,"x_max":0,"o":"m 86 894 l 117 894 b 171 968 117 943 131 968 b 351 893 228 968 279 893 b 439 999 410 893 439 932 l 408 999 b 353 924 408 946 389 924 b 171 999 299 924 249 999 b 86 894 114 999 86 963 z "},".":{"ha":332,"x_min":0,"x_max":0,"o":"m 168 -10 b 210 39 194 -10 210 6 b 169 90 210 72 196 90 b 126 40 140 90 126 74 b 168 -10 126 6 140 -10 z "},",":{"ha":332,"x_min":0,"x_max":0,"o":"m 128 -144 b 214 15 178 -108 214 -51 b 167 90 214 68 197 90 b 125 38 140 90 125 71 b 160 -8 125 3 140 -8 b 182 6 168 -8 176 -3 b 110 -124 178 -51 147 -94 z "},":":{"ha":343,"x_min":0,"x_max":0,"o":"m 172 526 b 214 578 199 526 214 543 b 172 628 214 611 201 628 b 129 578 143 628 129 611 b 172 526 129 542 144 526 z m 172 83 b 215 133 200 83 215 99 b 174 185 215 168 201 185 b 131 133 144 185 131 168 b 172 83 131 97 144 83 z "},";":{"ha":343,"x_min":0,"x_max":0,"o":"m 172 526 b 214 578 199 526 214 543 b 172 628 214 611 201 628 b 129 578 143 628 129 611 b 172 526 129 542 144 526 z m 133 -144 b 219 15 183 -108 219 -51 b 172 90 219 68 203 90 b 131 38 146 90 131 71 b 165 -8 131 3 146 -8 b 188 6 174 -8 182 -3 b 115 -124 183 -51 153 -94 z "},"…":{"ha":765,"x_min":0,"x_max":0,"o":"m 169 -8 b 208 40 193 -8 208 7 b 169 89 208 74 196 89 b 131 40 143 89 131 74 b 169 -8 131 7 143 -8 z m 383 -8 b 422 40 407 -8 422 7 b 383 89 422 74 410 89 b 344 40 357 89 344 74 b 383 -8 344 7 357 -8 z m 597 -8 b 636 40 621 -8 636 7 b 597 89 636 74 624 89 b 558 40 571 89 558 74 b 597 -8 558 7 571 -8 z "},"!":{"ha":358,"x_min":0,"x_max":0,"o":"m 188 189 b 193 832 189 222 193 599 l 193 982 l 158 982 l 158 831 b 164 189 158 599 163 222 z m 176 -10 b 217 40 201 -10 217 7 b 176 89 217 72 204 89 b 136 40 149 89 136 72 b 176 -10 136 6 150 -10 z "},"¡":{"ha":358,"x_min":0,"x_max":0,"o":"m 176 818 b 136 769 151 818 136 803 b 176 721 136 736 149 721 b 217 769 204 721 217 736 b 176 818 217 803 203 818 z m 194 -179 l 194 -22 b 188 621 194 211 189 588 b 176 619 186 619 179 619 b 164 621 172 619 165 619 b 160 -22 163 588 160 211 l 160 -179 z "},"?":{"ha":701,"x_min":0,"x_max":0,"o":"m 361 183 l 361 274 b 471 504 361 400 415 451 b 582 732 526 556 582 608 l 582 789 b 356 990 582 901 511 990 b 121 761 196 990 121 904 l 121 639 l 156 639 l 156 761 b 356 958 156 885 217 958 b 546 788 493 958 546 882 l 546 731 b 440 522 546 619 493 572 b 326 276 383 469 326 414 l 326 183 z m 347 -10 b 388 40 374 -10 388 7 b 347 89 388 72 375 89 b 307 40 319 89 307 72 b 347 -10 307 6 321 -10 z "},"¿":{"ha":701,"x_min":0,"x_max":0,"o":"m 342 624 l 342 533 b 232 303 342 407 288 356 b 121 75 176 251 121 199 l 121 18 b 347 -183 121 -94 192 -183 b 582 46 507 -183 582 -97 l 582 168 l 547 168 l 547 46 b 347 -151 547 -78 486 -151 b 157 19 210 -151 157 -75 l 157 76 b 263 285 157 188 210 235 b 376 531 319 338 376 393 l 376 624 z m 356 817 b 315 767 329 817 315 800 b 356 718 315 735 328 718 b 396 767 383 718 396 735 b 356 817 396 801 382 817 z "},"‽":{"ha":701,"x_min":0,"x_max":0,"o":"m 363 183 l 363 274 b 582 732 363 526 582 483 l 582 789 b 356 990 582 901 511 990 b 121 761 196 990 121 904 l 121 639 l 156 639 l 156 761 b 331 957 156 876 210 949 l 331 831 b 331 235 331 621 329 349 b 332 183 331 208 332 190 z m 365 832 l 365 958 b 546 788 493 958 546 882 l 546 731 b 360 394 546 539 407 549 b 365 832 363 524 365 696 z m 347 -10 b 388 40 374 -10 388 7 b 347 89 388 72 375 89 b 307 40 319 89 307 72 b 347 -10 307 6 321 -10 z "},"⸘":{"ha":701,"x_min":0,"x_max":0,"o":"m 356 725 b 315 675 329 725 315 708 b 356 626 315 643 328 626 b 396 675 383 626 396 643 b 356 725 396 710 382 725 z m 347 -275 b 582 -46 507 -275 582 -189 l 582 76 l 547 76 l 547 -46 b 372 -242 547 -161 493 -233 l 372 -115 b 372 481 372 94 374 367 b 371 532 372 507 371 525 l 340 532 l 340 442 b 121 -17 340 189 121 232 l 121 -74 b 347 -275 121 -186 192 -275 z m 157 -72 l 157 -15 b 343 321 157 176 296 167 b 338 -117 340 192 338 19 l 338 -243 b 157 -72 210 -243 157 -167 z "},"‘":{"ha":317,"x_min":0,"x_max":0,"o":"m 158 760 b 201 811 185 760 201 778 b 167 857 201 847 186 857 b 142 840 157 857 147 850 b 208 975 142 897 171 940 l 186 994 b 111 836 144 956 111 900 b 158 760 111 781 128 760 z "},"’":{"ha":317,"x_min":0,"x_max":0,"o":"m 132 760 b 207 918 174 799 207 853 b 160 994 207 974 190 994 b 117 943 133 994 117 976 b 151 897 117 907 132 897 b 176 914 161 897 171 904 b 110 779 176 857 147 814 z "},"“":{"ha":481,"x_min":0,"x_max":0,"o":"m 158 760 b 201 811 185 760 201 778 b 167 857 201 847 186 857 b 142 840 157 857 147 850 b 208 975 142 897 171 940 l 186 994 b 111 836 144 956 111 900 b 158 760 111 781 128 760 z m 322 760 b 365 811 349 760 365 778 b 331 857 365 847 350 857 b 306 840 321 857 311 850 b 372 975 306 897 335 940 l 350 994 b 275 836 308 956 275 900 b 322 760 275 781 292 760 z "},"”":{"ha":481,"x_min":0,"x_max":0,"o":"m 296 760 b 371 918 338 799 371 854 b 324 994 371 974 354 994 b 281 943 297 994 281 976 b 315 897 281 907 296 897 b 340 914 325 897 335 904 b 274 779 340 857 311 814 z m 132 760 b 207 918 174 799 207 854 b 160 994 207 974 190 994 b 117 943 133 994 117 976 b 151 897 117 907 132 897 b 176 914 161 897 171 904 b 110 779 176 857 147 814 z "},"‚":{"ha":317,"x_min":0,"x_max":0,"o":"m 132 -144 b 207 14 174 -106 207 -51 b 160 90 207 69 190 90 b 117 39 133 90 117 72 b 151 -7 117 3 132 -7 b 176 10 161 -7 171 0 b 110 -125 176 -47 147 -90 z "},"„":{"ha":485,"x_min":0,"x_max":0,"o":"m 300 -144 b 375 14 342 -106 375 -51 b 328 90 375 69 358 90 b 285 39 301 90 285 72 b 319 -7 285 3 300 -7 b 344 10 329 -7 339 0 b 278 -125 344 -47 315 -90 z m 132 -144 b 207 14 174 -106 207 -51 b 160 90 207 69 190 90 b 117 39 133 90 117 72 b 151 -7 117 3 132 -7 b 176 10 161 -7 171 0 b 110 -125 176 -47 147 -90 z "},"‛":{"ha":317,"x_min":0,"x_max":0,"o":"m 207 779 b 140 914 171 813 142 854 b 165 897 146 904 156 897 b 200 943 185 897 200 907 b 158 994 200 976 185 994 b 110 918 128 994 110 974 b 185 760 110 853 143 799 z "},"‟":{"ha":481,"x_min":0,"x_max":0,"o":"m 371 779 b 304 914 335 813 306 854 b 329 897 310 904 319 897 b 364 943 349 897 364 907 b 322 994 364 976 349 994 b 274 918 292 994 274 974 b 349 760 274 853 307 799 z m 207 779 b 140 914 171 813 142 854 b 165 897 146 904 156 897 b 200 943 185 897 200 907 b 158 994 200 976 185 994 b 110 918 128 994 110 974 b 185 760 110 853 143 799 z "},"‹":{"ha":408,"x_min":0,"x_max":0,"o":"m 322 140 l 115 410 l 314 688 l 271 688 l 79 413 l 79 404 l 279 140 z "},"›":{"ha":408,"x_min":0,"x_max":0,"o":"m 131 140 l 331 404 l 331 413 l 138 688 l 96 688 l 293 410 l 86 140 z "},"«":{"ha":653,"x_min":0,"x_max":0,"o":"m 322 140 l 119 410 l 317 688 l 275 688 l 82 413 l 82 404 l 278 140 z m 568 140 l 360 411 l 557 688 l 514 688 l 322 414 l 322 404 l 524 140 z "},"»":{"ha":653,"x_min":0,"x_max":0,"o":"m 375 140 l 571 404 l 571 413 l 378 688 l 336 688 l 533 410 l 331 140 z m 129 140 l 331 404 l 331 414 l 139 688 l 96 688 l 293 411 l 85 140 z "},"/":{"ha":382,"x_min":0,"x_max":0,"o":"m 97 0 l 324 981 l 288 981 l 61 0 z "},"\\":{"ha":382,"x_min":0,"x_max":0,"o":"m 60 981 l 286 0 l 322 0 l 96 981 z "},"|":{"ha":274,"x_min":0,"x_max":0,"o":"m 154 -201 l 154 1142 l 119 1142 l 119 -201 z "},"‖":{"ha":492,"x_min":0,"x_max":0,"o":"m 154 -201 l 154 1142 l 119 1142 l 119 -201 z m 372 -201 l 372 1142 l 338 1142 l 338 -201 z "},"¦":{"ha":274,"x_min":0,"x_max":0,"o":"m 119 567 l 154 567 l 154 1142 l 119 1142 z m 119 407 l 119 -201 l 154 -201 l 154 407 z "},"•":{"ha":357,"x_min":0,"x_max":0,"o":"m 178 343 b 238 401 215 343 238 361 b 178 461 238 444 215 461 b 119 401 142 461 119 442 b 178 343 119 361 138 343 z "},"·":{"ha":335,"x_min":0,"x_max":0,"o":"m 169 372 b 211 421 196 372 211 386 b 171 472 211 454 197 472 b 128 421 142 472 128 454 b 169 372 128 386 142 372 z "},"-":{"ha":606,"x_min":0,"x_max":0,"o":"m 521 440 l 88 440 l 88 407 l 521 407 z "},"­":{"ha":606,"x_min":0,"x_max":0,"o":"m 521 440 l 88 440 l 88 407 l 521 407 z "},"–":{"ha":613,"x_min":0,"x_max":0,"o":"m 525 440 l 88 440 l 88 407 l 525 407 z "},"—":{"ha":800,"x_min":0,"x_max":0,"o":"m 713 440 l 88 440 l 88 407 l 713 407 z "},"‒":{"ha":710,"x_min":0,"x_max":0,"o":"m 622 440 l 88 440 l 88 407 l 622 407 z "},"―":{"ha":1092,"x_min":0,"x_max":0,"o":"m 1004 440 l 88 440 l 88 407 l 1004 407 z "},"(":{"ha":435,"x_min":0,"x_max":0,"o":"m 113 175 b 378 -265 113 -118 210 -250 l 378 -232 b 149 174 238 -218 149 -99 l 149 611 b 378 1017 149 885 236 999 l 378 1050 b 113 610 215 1031 113 903 z "},")":{"ha":435,"x_min":0,"x_max":0,"o":"m 57 -265 b 322 175 225 -250 322 -118 l 322 610 b 57 1050 322 903 219 1031 l 57 1015 b 286 611 199 999 286 885 l 286 174 b 57 -232 286 -99 197 -218 z "},"[":{"ha":414,"x_min":0,"x_max":0,"o":"m 357 -229 l 163 -229 l 163 1014 l 357 1014 l 357 1047 l 128 1047 l 128 -262 l 357 -262 z "},"]":{"ha":414,"x_min":0,"x_max":0,"o":"m 286 -262 l 286 1047 l 57 1047 l 57 1013 l 253 1013 l 253 -229 l 57 -229 l 57 -262 z "},"{":{"ha":415,"x_min":0,"x_max":0,"o":"m 358 -264 l 358 -231 l 307 -231 b 161 -94 190 -231 161 -178 b 221 275 161 -1 221 189 b 131 415 221 353 188 404 b 218 543 189 425 218 468 b 167 879 218 629 167 786 b 311 1017 167 965 194 1017 l 358 1017 l 358 1049 l 311 1049 b 133 879 169 1049 133 981 b 185 543 133 783 185 626 b 82 433 185 468 150 433 l 42 433 l 42 399 l 82 399 b 188 275 149 399 188 361 b 128 -94 188 193 128 3 b 307 -264 128 -196 167 -264 z "},"}":{"ha":415,"x_min":0,"x_max":0,"o":"m 108 -264 b 288 -94 249 -264 288 -196 b 228 275 288 3 228 193 b 333 399 228 361 267 399 l 374 399 l 374 433 l 333 433 b 231 543 265 433 231 468 b 282 879 231 626 282 783 b 104 1049 282 981 246 1049 l 57 1049 l 57 1017 l 104 1017 b 249 879 221 1017 249 965 b 197 543 249 786 197 629 b 285 415 197 468 226 425 b 194 275 228 404 194 353 b 254 -94 194 189 254 -1 b 108 -231 254 -178 225 -231 l 57 -231 l 57 -264 z "},"〈":{"ha":433,"x_min":0,"x_max":0,"o":"m 375 -278 l 126 376 l 378 1035 l 342 1035 l 90 376 l 338 -278 z "},"〉":{"ha":433,"x_min":0,"x_max":0,"o":"m 97 -278 l 343 376 l 93 1035 l 56 1035 l 307 376 l 58 -278 z "},"*":{"ha":453,"x_min":0,"x_max":0,"o":"m 358 726 l 375 757 l 238 824 l 375 889 l 358 918 l 232 833 l 244 985 l 210 985 l 222 833 l 96 918 l 79 888 l 217 824 l 78 757 l 96 728 l 221 814 l 210 661 l 244 661 l 233 814 z "},"†":{"ha":582,"x_min":0,"x_max":0,"o":"m 500 657 l 500 690 l 308 690 l 308 981 l 274 981 l 274 690 l 82 690 l 82 657 l 274 657 l 274 0 l 308 0 l 308 657 z "},"‡":{"ha":582,"x_min":0,"x_max":0,"o":"m 500 318 l 500 351 l 308 351 l 308 657 l 500 657 l 500 690 l 308 690 l 308 981 l 274 981 l 274 690 l 82 690 l 82 657 l 274 657 l 274 351 l 82 351 l 82 318 l 274 318 l 274 0 l 308 0 l 308 318 z "},"§":{"ha":618,"x_min":0,"x_max":0,"o":"m 289 418 b 81 599 154 475 81 501 l 81 606 b 131 715 81 639 106 692 b 314 622 174 669 244 647 b 533 442 415 586 533 549 l 533 429 b 500 317 533 390 515 344 b 289 418 456 360 378 382 z m 314 -14 b 542 203 471 -14 542 68 l 542 211 b 514 301 542 250 532 278 b 568 429 539 332 568 378 l 568 442 b 336 650 568 569 442 610 b 128 821 228 692 128 715 l 128 825 b 306 982 128 915 188 982 b 490 822 428 982 490 924 l 490 764 l 526 764 l 526 821 b 307 1014 526 944 447 1014 b 93 824 169 1014 93 938 l 93 819 b 118 732 93 783 103 754 b 46 604 82 707 46 649 l 46 597 b 271 388 46 478 133 447 b 507 211 403 333 507 318 l 507 203 b 314 21 507 88 449 21 b 113 203 179 21 113 97 l 113 271 l 76 271 l 76 203 b 314 -14 76 68 157 -14 z "},"¶":{"ha":721,"x_min":0,"x_max":0,"o":"m 329 482 b 101 703 189 481 101 564 l 101 721 b 336 947 101 854 185 947 l 400 947 l 400 482 z m 435 0 l 435 947 l 571 947 l 571 0 l 606 0 l 606 981 l 336 981 b 67 721 160 981 67 875 l 67 703 b 328 449 67 544 161 447 l 400 449 l 400 0 z "},"^":{"ha":528,"x_min":0,"x_max":0,"o":"m 375 704 l 415 704 l 279 981 l 247 981 l 110 704 l 150 704 l 263 944 z "},"~":{"ha":528,"x_min":0,"x_max":0,"o":"m 76 758 l 110 758 b 169 854 110 814 126 854 b 357 756 232 854 274 756 b 449 879 418 756 449 804 l 415 879 b 357 786 415 819 396 786 b 169 885 294 786 250 885 b 76 758 108 885 76 833 z "},"_":{"ha":564,"x_min":0,"x_max":0,"o":"m 514 -89 l 51 -89 l 51 -122 l 514 -122 z "},"'":{"ha":189,"x_min":0,"x_max":0,"o":"m 85 661 l 106 661 b 111 864 108 697 111 818 l 111 981 l 78 981 l 78 864 b 85 661 78 819 82 697 z "},"\"":{"ha":315,"x_min":0,"x_max":0,"o":"m 83 661 l 107 661 b 111 875 110 697 111 829 l 111 981 l 78 981 l 78 875 b 83 661 78 831 81 697 z m 210 661 l 233 661 b 238 875 236 697 238 829 l 238 981 l 204 981 l 204 875 b 210 661 204 831 207 697 z "},"‴":{"ha":442,"x_min":0,"x_max":0,"o":"m 78 981 l 78 875 b 83 661 78 831 81 697 l 107 661 b 111 875 110 697 111 829 l 111 981 z m 204 981 l 204 875 b 210 661 204 831 207 697 l 233 661 b 238 875 236 697 238 829 l 238 981 z m 331 981 l 331 875 b 336 661 331 831 333 697 l 360 661 b 364 875 363 697 364 829 l 364 981 z "},"@":{"ha":949,"x_min":0,"x_max":0,"o":"m 485 -153 b 774 -18 613 -153 713 -107 l 740 -6 b 485 -121 689 -81 604 -121 b 124 249 263 -121 124 -11 l 124 568 b 479 940 124 811 271 940 b 824 588 706 940 824 793 l 824 279 b 724 103 824 163 794 103 b 632 210 661 103 632 143 l 632 754 l 606 754 l 603 661 b 471 760 583 724 544 760 b 303 546 364 760 303 689 l 303 267 b 465 61 303 135 351 61 b 607 168 540 61 588 100 b 724 71 619 108 660 71 b 857 279 814 71 857 144 l 857 589 b 479 972 857 808 721 972 b 90 568 254 972 90 829 l 90 249 b 485 -153 90 -32 249 -153 z m 465 93 b 336 267 379 93 336 154 l 336 544 b 471 728 336 668 388 728 b 600 539 565 728 600 665 l 600 269 b 465 93 600 154 551 93 z "},"©":{"ha":921,"x_min":0,"x_max":0,"o":"m 461 -14 b 839 357 674 -14 839 108 l 839 611 b 460 990 839 858 672 990 b 82 610 240 990 82 850 l 82 357 b 461 -14 82 107 239 -14 z m 461 19 b 115 356 258 19 115 133 l 115 611 b 460 958 115 829 258 958 b 806 611 657 958 806 835 l 806 357 b 461 19 806 132 658 19 z m 465 183 b 640 388 582 183 640 246 l 640 435 l 606 435 l 606 388 b 465 217 606 265 561 217 b 322 388 368 217 322 267 l 322 593 b 465 765 322 707 369 765 b 604 593 560 765 604 710 l 604 565 l 639 565 l 639 593 b 465 797 639 726 583 797 b 289 593 346 797 289 729 l 289 388 b 465 183 289 244 347 183 z "},"®":{"ha":618,"x_min":0,"x_max":0,"o":"m 310 536 b 539 763 436 536 539 619 l 539 765 b 308 994 539 910 436 994 b 79 765 175 994 79 904 l 79 763 b 310 536 79 619 174 536 z m 310 564 b 108 763 192 564 108 638 l 108 765 b 308 968 108 888 192 968 b 510 764 424 968 510 892 l 510 763 b 310 564 510 636 425 564 z m 319 860 b 376 821 358 860 376 850 b 314 771 376 790 361 771 l 254 771 l 254 860 z m 314 749 b 371 703 365 749 371 733 l 371 667 b 372 656 371 661 371 658 l 403 656 b 400 667 401 658 400 661 l 400 703 b 356 760 400 740 389 756 b 406 821 390 767 406 786 b 318 886 406 858 382 886 l 225 886 l 225 656 l 254 656 l 254 749 z "},"℗":{"ha":921,"x_min":0,"x_max":0,"o":"m 461 -14 b 839 357 674 -14 839 108 l 839 611 b 460 990 839 858 672 990 b 82 610 240 990 82 850 l 82 357 b 461 -14 82 107 239 -14 z m 461 19 b 115 356 258 19 115 133 l 115 611 b 460 958 115 829 258 958 b 806 611 657 958 806 835 l 806 357 b 461 19 806 132 658 19 z m 478 375 b 639 540 588 375 639 436 l 639 633 b 475 790 639 735 589 790 l 329 790 l 329 190 l 363 190 l 363 375 z m 476 758 b 606 633 574 758 606 713 l 606 540 b 475 407 606 454 564 407 l 363 407 l 363 758 z "},"™":{"ha":692,"x_min":0,"x_max":0,"o":"m 254 954 l 254 981 l 35 981 l 35 954 l 129 954 l 129 558 l 157 558 l 157 954 z m 347 847 l 342 944 l 344 933 l 453 669 l 468 669 l 575 935 l 578 946 l 572 847 l 572 558 l 600 558 l 600 981 l 568 981 l 460 714 l 351 981 l 319 981 l 319 558 l 347 558 z "},"℠":{"ha":721,"x_min":0,"x_max":0,"o":"m 376 847 l 371 944 l 374 933 l 482 669 l 497 669 l 604 935 l 607 946 l 601 847 l 601 558 l 629 558 l 629 981 l 597 981 l 489 714 l 381 981 l 349 981 l 349 558 l 376 558 z m 153 550 b 265 651 229 550 265 594 l 265 665 b 169 783 265 738 218 763 b 74 875 122 804 74 821 l 74 888 b 150 958 74 932 100 958 b 229 886 204 958 229 936 l 229 851 l 256 851 l 256 886 b 150 983 256 950 218 983 b 46 888 86 983 46 946 l 46 875 b 142 764 46 808 94 785 b 238 665 190 744 238 725 l 238 650 b 153 575 238 607 210 575 b 64 657 93 575 64 607 l 64 697 l 38 697 l 38 657 b 153 550 38 588 76 550 z "},"€":{"ha":739,"x_min":0,"x_max":0,"o":"m 661 281 l 661 308 l 625 308 l 625 281 b 410 21 625 94 549 21 b 175 293 254 21 175 104 l 175 364 l 386 364 l 399 397 l 175 397 l 175 586 l 461 586 l 474 619 l 175 619 l 175 674 b 404 958 175 857 247 958 b 617 721 561 958 617 865 l 617 701 l 653 701 l 653 721 b 404 990 653 886 579 990 b 140 674 225 990 140 878 l 140 619 l 38 619 l 38 586 l 140 586 l 140 397 l 38 397 l 38 364 l 140 364 l 140 293 b 410 -14 140 78 228 -14 b 661 281 582 -14 661 79 z "},"$":{"ha":661,"x_min":0,"x_max":0,"o":"m 125 731 l 125 772 b 318 958 125 882 200 956 l 318 531 b 125 731 217 571 125 613 z m 549 264 l 549 215 b 349 21 549 110 482 26 l 349 482 b 549 264 453 442 549 394 z m 349 -178 l 349 -14 b 585 218 508 -7 585 97 l 585 264 b 349 519 585 426 465 474 l 349 957 b 528 771 458 950 528 886 l 528 692 l 563 692 l 563 771 b 349 989 563 908 478 982 l 349 1157 l 318 1157 l 318 990 b 89 772 183 990 89 907 l 89 731 b 318 494 89 583 204 539 l 318 21 b 104 232 182 26 104 101 l 104 324 l 68 324 l 68 232 b 318 -14 68 76 157 -8 l 318 -178 z "},"¢":{"ha":643,"x_min":0,"x_max":0,"o":"m 567 242 l 567 293 l 531 293 l 531 244 b 324 21 531 90 464 21 b 117 275 179 21 117 108 l 117 500 b 331 765 117 679 190 765 b 531 549 456 765 531 714 l 531 510 l 567 510 l 567 553 b 351 797 567 724 482 790 l 351 1000 l 318 1000 l 318 797 b 82 506 165 793 82 703 l 82 271 b 318 -14 82 86 165 -11 l 318 -243 l 351 -243 l 351 -12 b 567 242 494 -4 567 81 z "},"£":{"ha":761,"x_min":0,"x_max":0,"o":"m 167 17 b 75 86 104 17 75 43 b 158 157 75 126 96 157 b 293 100 204 157 247 132 b 167 17 269 47 225 17 z m 535 -14 b 692 190 642 -14 692 39 l 692 261 l 658 261 l 658 196 b 535 19 658 58 622 19 b 329 113 461 19 394 68 b 343 203 339 139 343 169 b 300 426 343 279 324 353 l 481 426 l 481 458 l 290 458 b 207 797 251 571 207 681 b 372 976 207 910 271 976 b 535 796 482 976 535 917 l 535 763 l 569 763 l 569 796 b 372 1007 569 933 504 1007 b 175 797 253 1007 175 931 b 257 458 175 679 218 568 l 110 458 l 110 426 l 268 426 b 313 204 293 353 313 281 b 304 131 313 176 310 151 b 158 189 256 163 208 189 b 42 86 86 189 42 144 b 167 -15 42 25 78 -15 b 318 83 233 -15 288 22 b 535 -14 383 38 453 -14 z "},"ƒ":{"ha":410,"x_min":0,"x_max":0,"o":"m 213 118 l 213 517 l 371 517 l 371 547 l 213 547 l 213 842 b 349 1024 213 996 239 1024 l 371 1024 l 371 1056 l 349 1056 b 179 843 217 1056 179 1015 l 179 547 l 39 547 l 39 517 l 179 517 l 179 119 b 43 -62 179 -35 153 -62 l 21 -62 l 21 -94 l 43 -94 b 213 118 175 -94 213 -54 z "},"¥":{"ha":613,"x_min":0,"x_max":0,"o":"m 517 151 l 517 182 l 317 182 l 317 322 l 517 322 l 517 353 l 319 353 l 565 981 l 528 981 l 307 407 l 301 376 l 296 407 l 85 981 l 47 981 l 283 353 l 97 353 l 97 322 l 285 322 l 285 182 l 97 182 l 97 151 l 285 151 l 285 0 l 317 0 l 317 151 z "},"₡":{"ha":719,"x_min":0,"x_max":0,"o":"m 126 296 l 126 674 b 357 958 126 854 196 956 l 204 69 b 126 296 151 113 126 188 z m 339 21 b 232 49 297 24 261 33 l 389 957 b 496 925 432 954 467 943 z m 306 -162 l 339 -162 l 365 -14 b 635 296 547 -14 635 82 l 635 365 l 597 365 l 597 296 b 371 21 597 108 525 24 l 524 904 b 596 674 574 856 596 778 l 596 640 l 633 640 l 633 674 b 531 944 633 803 601 894 l 568 1143 l 538 1143 l 503 961 b 394 989 472 976 436 986 l 422 1143 l 390 1143 l 363 990 b 90 674 175 990 90 878 l 90 296 b 196 26 90 161 124 74 l 160 -162 l 192 -162 l 225 11 b 333 -12 256 -3 292 -11 z "},"₢":{"ha":715,"x_min":0,"x_max":0,"o":"m 635 296 l 635 374 l 597 374 l 597 296 b 381 21 597 113 528 28 l 381 293 b 536 496 381 435 414 496 l 556 496 l 556 529 l 538 529 b 379 428 447 529 400 493 l 376 529 l 347 529 l 347 21 b 126 296 197 26 126 113 l 126 674 b 363 958 126 857 197 958 b 596 674 528 958 596 856 l 596 649 l 633 649 l 633 674 b 363 990 633 881 550 990 b 90 674 175 990 90 878 l 90 296 b 363 -14 90 81 176 -14 b 635 296 547 -14 635 82 z "},"₣":{"ha":576,"x_min":0,"x_max":0,"o":"m 468 344 l 468 376 l 151 376 l 151 574 l 468 574 l 468 606 l 151 606 l 151 947 l 529 947 l 529 981 l 117 981 l 117 0 l 151 0 l 151 344 z "},"₤":{"ha":771,"x_min":0,"x_max":0,"o":"m 167 17 b 75 86 104 17 75 43 b 158 157 75 126 96 157 b 293 100 204 157 247 132 b 167 17 269 47 225 17 z m 535 -14 b 692 190 642 -14 692 39 l 692 261 l 658 261 l 658 196 b 535 19 658 58 622 19 b 329 113 461 19 394 68 b 343 203 339 139 343 169 b 321 358 343 256 333 307 l 486 358 l 486 389 l 311 389 b 268 518 299 432 283 475 l 486 518 l 486 549 l 258 549 b 207 797 231 631 207 713 b 372 976 207 910 271 976 b 535 796 482 976 535 917 l 535 763 l 569 763 l 569 796 b 372 1007 569 933 504 1007 b 175 797 253 1007 175 931 b 225 549 175 711 199 629 l 88 549 l 88 518 l 236 518 b 281 389 251 475 267 432 l 88 389 l 88 358 l 289 358 b 313 204 303 307 313 256 b 304 131 313 176 310 151 b 158 189 256 163 208 189 b 42 86 86 189 42 144 b 167 -15 42 25 78 -15 b 318 83 233 -15 288 22 b 535 -14 383 38 453 -14 z "},"₦":{"ha":771,"x_min":0,"x_max":0,"o":"m 164 817 l 160 933 l 174 894 l 317 604 l 164 604 z m 607 444 l 426 444 l 363 574 l 607 574 z m 394 444 l 164 444 l 164 574 l 331 574 z m 590 113 l 442 414 l 607 414 l 607 182 l 613 53 z m 613 0 l 642 0 l 642 414 l 757 414 l 757 444 l 642 444 l 642 574 l 757 574 l 757 604 l 642 604 l 642 981 l 607 981 l 607 604 l 347 604 l 161 981 l 129 981 l 129 604 l 14 604 l 14 574 l 129 574 l 129 444 l 14 444 l 14 414 l 129 414 l 129 0 l 164 0 l 164 414 l 410 414 z "},"₧":{"ha":1507,"x_min":0,"x_max":0,"o":"m 319 357 l 151 357 l 151 947 l 314 947 b 532 729 467 947 532 856 l 532 578 b 319 357 532 446 460 356 z m 151 324 l 319 324 b 568 578 486 322 568 426 l 568 753 l 718 753 l 718 289 b 1014 0 718 82 789 0 l 1196 0 b 1431 217 1357 0 1431 82 l 1431 226 b 1224 425 1431 351 1328 390 b 1017 599 1121 461 1017 492 l 1017 608 b 1194 765 1017 699 1076 765 b 1379 606 1317 765 1379 707 l 1379 547 l 1415 547 l 1415 604 b 1196 797 1415 728 1336 797 b 982 607 1058 797 982 721 l 982 597 b 1189 401 982 475 1086 436 b 1396 226 1293 367 1396 336 l 1396 217 b 1196 33 1396 101 1339 33 l 1017 33 b 751 289 818 33 751 101 l 751 753 l 926 753 l 926 783 l 751 783 l 751 996 l 726 996 b 724 840 726 976 724 850 b 674 782 721 783 719 782 l 564 781 b 314 981 547 900 469 981 l 117 981 l 117 0 l 151 0 z "},"₨":{"ha":1274,"x_min":0,"x_max":0,"o":"m 963 -15 b 1197 201 1124 -15 1197 67 l 1197 211 b 783 599 1197 461 783 383 l 783 608 b 961 765 783 699 843 765 b 1146 606 1083 765 1146 707 l 1146 547 l 1182 547 l 1182 604 b 963 797 1182 728 1103 797 b 749 607 825 797 749 721 l 749 597 b 1163 211 749 351 1163 429 l 1163 201 b 963 18 1163 86 1106 18 l 938 18 b 669 208 800 18 736 65 l 629 294 b 451 464 578 404 526 449 b 594 663 547 489 594 554 l 594 772 b 346 981 594 914 519 981 l 117 981 l 117 0 l 151 0 l 151 447 l 350 447 b 601 275 464 447 538 418 l 639 190 b 936 -15 706 40 781 -15 z m 346 947 b 558 772 499 947 558 890 l 558 663 b 349 478 558 536 482 478 l 151 478 l 151 947 z "},"₩":{"ha":1007,"x_min":0,"x_max":0,"o":"m 493 899 l 497 936 l 501 899 l 571 604 l 419 604 z m 793 444 l 636 444 l 606 574 l 817 574 z m 608 444 l 379 444 l 411 574 l 578 574 z m 351 444 l 199 444 l 181 574 l 383 574 z m 717 106 l 643 414 l 788 414 l 733 101 l 726 42 z m 713 0 l 744 0 l 818 414 l 993 414 l 993 444 l 824 444 l 847 574 l 993 574 l 993 604 l 853 604 l 919 981 l 888 981 l 821 604 l 599 604 l 510 981 l 486 981 l 392 604 l 175 604 l 119 981 l 88 981 l 144 604 l 14 604 l 14 574 l 149 574 l 168 444 l 14 444 l 14 414 l 172 414 l 235 0 l 268 0 l 372 414 l 615 414 z m 250 103 l 204 414 l 343 414 l 265 106 l 254 44 z "},"₪":{"ha":868,"x_min":0,"x_max":0,"o":"m 325 947 b 524 733 478 947 524 864 l 524 211 b 558 254 553 211 558 222 l 558 733 b 325 981 558 892 500 981 l 117 981 l 117 0 l 151 0 l 151 947 z m 546 0 b 760 246 699 0 760 86 l 760 988 l 725 988 l 725 246 b 547 33 725 111 676 33 l 353 33 l 353 729 b 318 772 353 764 347 772 l 318 0 z "},"₮":{"ha":546,"x_min":0,"x_max":0,"o":"m 454 450 l 454 483 l 286 414 l 286 569 l 454 639 l 454 672 l 286 603 l 286 947 l 504 947 l 504 981 l 42 981 l 42 947 l 251 947 l 251 589 l 92 522 l 92 489 l 251 556 l 251 400 l 92 333 l 92 300 l 251 367 l 251 0 l 286 0 l 286 381 z "},"₱":{"ha":707,"x_min":0,"x_max":0,"o":"m 307 288 b 568 525 482 286 561 385 l 683 525 l 683 557 l 568 557 l 568 718 l 683 718 l 683 750 l 568 750 b 301 981 561 886 485 981 l 156 981 l 156 750 l 31 750 l 31 718 l 156 718 l 156 557 l 31 557 l 31 525 l 156 525 l 156 0 l 190 0 l 190 288 z m 301 947 b 533 750 463 947 526 865 l 190 750 l 190 947 z m 533 557 l 190 557 l 190 718 l 533 718 z m 306 321 l 190 321 l 190 525 l 533 525 b 306 321 525 404 457 319 z "},"฿":{"ha":708,"x_min":0,"x_max":0,"o":"m 404 0 b 638 229 588 0 638 81 l 638 306 b 481 510 638 426 592 490 b 625 715 586 532 625 603 l 625 767 b 388 981 625 906 563 981 l 385 981 l 385 1113 l 351 1113 l 351 981 l 117 981 l 117 0 l 351 0 l 351 -146 l 385 -146 l 385 0 z m 393 525 l 385 525 l 385 947 l 388 947 b 589 767 544 947 589 881 l 589 715 b 393 525 589 590 531 524 z m 351 525 l 151 525 l 151 947 l 351 947 z m 394 493 b 601 306 544 493 601 428 l 601 229 b 404 33 601 106 564 33 l 385 33 l 385 493 z m 151 33 l 151 493 l 351 493 l 351 33 z "},"#":{"ha":910,"x_min":0,"x_max":0,"o":"m 546 394 l 319 394 l 357 626 l 583 626 z m 482 0 l 515 0 l 574 363 l 797 363 l 797 394 l 579 394 l 617 626 l 839 626 l 839 658 l 622 658 l 674 981 l 642 981 l 589 658 l 363 658 l 414 981 l 382 981 l 329 658 l 113 658 l 113 626 l 324 626 l 286 394 l 69 394 l 69 363 l 282 363 l 222 0 l 257 0 l 315 363 l 542 363 z "},"⁰":{"ha":389,"x_min":0,"x_max":0,"o":"m 194 499 b 329 654 278 499 329 553 l 329 831 b 196 989 329 931 279 989 b 61 831 110 989 61 929 l 61 654 b 194 499 61 553 107 499 z m 194 529 b 93 654 126 529 93 574 l 93 829 b 196 960 93 911 128 960 b 297 829 261 960 297 911 l 297 654 b 194 529 297 574 257 529 z "},"¹":{"ha":261,"x_min":0,"x_max":0,"o":"m 226 504 l 226 535 l 149 535 l 149 982 l 121 982 b 53 908 114 932 99 908 l 53 876 b 118 919 92 878 110 893 l 118 535 l 39 535 l 39 504 z "},"²":{"ha":363,"x_min":0,"x_max":0,"o":"m 314 504 l 314 536 l 86 536 b 307 860 94 674 307 717 l 307 874 b 185 988 307 938 265 988 b 61 861 106 988 61 939 l 61 799 l 94 799 l 94 861 b 185 958 94 925 124 958 b 275 874 246 958 275 925 l 275 860 b 56 529 275 733 56 689 l 56 504 z "},"³":{"ha":372,"x_min":0,"x_max":0,"o":"m 189 497 b 317 624 281 497 317 546 l 317 640 b 247 751 317 697 296 736 b 310 861 293 767 310 808 l 310 871 b 188 988 310 940 271 988 b 63 874 106 988 63 942 l 63 826 l 96 826 l 96 874 b 188 958 96 925 126 958 b 279 872 250 958 279 924 l 279 861 b 193 765 279 804 263 765 l 147 765 l 147 735 l 194 735 b 285 640 261 735 285 701 l 285 624 b 189 528 285 558 256 528 b 89 614 119 528 89 557 l 89 672 l 56 672 l 56 614 b 189 497 56 536 99 497 z "},"⁴":{"ha":358,"x_min":0,"x_max":0,"o":"m 324 619 l 324 647 l 264 647 l 264 982 l 232 982 l 38 646 l 38 619 l 235 619 l 235 504 l 264 504 l 264 619 z m 235 919 l 235 647 l 72 647 l 238 936 z "},"⁵":{"ha":376,"x_min":0,"x_max":0,"o":"m 190 497 b 318 629 269 497 318 540 l 318 694 b 201 826 318 786 276 826 b 100 768 151 826 121 804 b 119 951 104 813 115 907 l 264 951 b 297 982 290 951 297 960 l 93 982 l 67 728 l 93 721 l 100 733 b 200 797 121 772 143 797 b 288 692 260 797 288 771 l 288 628 b 190 528 288 558 253 528 b 94 618 125 528 94 558 l 94 649 l 63 649 l 63 617 b 190 497 63 544 100 497 z "},"⁶":{"ha":382,"x_min":0,"x_max":0,"o":"m 324 629 l 324 674 b 196 799 324 758 281 799 b 92 728 140 799 107 768 l 92 828 b 192 958 92 914 122 958 b 279 865 257 958 279 924 l 279 846 l 313 846 l 313 867 b 192 988 313 944 269 988 b 61 828 100 988 61 931 l 61 643 b 194 497 61 549 104 497 b 324 629 285 497 324 554 z m 194 528 b 92 643 128 528 92 568 l 92 657 b 193 769 90 713 122 769 b 293 672 264 769 293 739 l 293 629 b 194 528 293 569 263 528 z "},"⁷":{"ha":311,"x_min":0,"x_max":0,"o":"m 126 504 b 275 957 149 663 210 832 l 275 982 l 35 982 l 35 950 l 242 950 b 93 504 181 832 118 663 z "},"⁸":{"ha":372,"x_min":0,"x_max":0,"o":"m 186 497 b 319 617 272 497 319 540 l 319 639 b 242 749 319 703 286 738 b 311 851 282 761 311 793 l 311 871 b 188 988 311 944 271 988 b 65 871 101 988 65 940 l 65 851 b 128 749 65 793 89 760 b 54 639 85 736 54 699 l 54 617 b 186 497 54 539 96 497 z m 196 763 l 176 763 b 97 850 122 763 97 796 l 97 869 b 188 958 97 921 122 958 b 279 871 250 958 279 926 l 279 851 b 196 763 279 794 250 763 z m 186 528 b 86 618 118 528 86 563 l 86 642 b 176 733 86 699 121 733 l 196 733 b 288 642 254 733 288 704 l 288 618 b 186 528 288 563 254 528 z "},"⁹":{"ha":381,"x_min":0,"x_max":0,"o":"m 189 728 b 89 831 118 728 89 764 l 89 854 b 188 958 89 914 119 958 b 290 840 254 958 290 915 b 189 728 292 785 260 728 z m 190 497 b 321 656 282 497 321 553 l 321 840 b 188 988 321 935 278 988 b 58 854 97 988 58 929 l 58 829 b 186 699 58 744 101 699 b 290 769 242 699 275 729 l 290 656 b 190 528 290 569 260 528 b 96 625 125 528 96 554 l 96 644 l 63 644 l 63 624 b 190 497 63 529 113 497 z "},"⁺":{"ha":371,"x_min":0,"x_max":0,"o":"m 304 735 l 304 764 l 197 764 l 197 865 l 168 865 l 168 764 l 63 764 l 63 735 l 168 735 l 168 628 l 197 628 l 197 735 z "},"⁻":{"ha":371,"x_min":0,"x_max":0,"o":"m 304 733 l 304 764 l 63 764 l 63 733 z "},"⁼":{"ha":371,"x_min":0,"x_max":0,"o":"m 297 789 l 297 819 l 69 819 l 69 789 z m 297 658 l 297 689 l 69 689 l 69 658 z "},"⁽":{"ha":256,"x_min":0,"x_max":0,"o":"m 75 617 b 235 396 75 469 133 401 l 235 426 b 106 621 153 432 106 490 l 106 861 b 235 1058 106 989 149 1053 l 235 1089 b 75 863 129 1082 75 1006 z "},"⁾":{"ha":256,"x_min":0,"x_max":0,"o":"m 21 396 b 181 617 122 401 181 469 l 181 863 b 21 1089 181 1006 126 1082 l 21 1058 b 150 861 106 1053 150 990 l 150 621 b 21 426 150 490 103 431 z "},"₀":{"ha":389,"x_min":0,"x_max":0,"o":"m 194 -7 b 329 149 278 -7 329 47 l 329 325 b 196 483 329 425 279 483 b 61 325 110 483 61 424 l 61 149 b 194 -7 61 47 107 -7 z m 194 24 b 93 149 126 24 93 68 l 93 324 b 196 454 93 406 128 454 b 297 324 261 454 297 406 l 297 149 b 194 24 297 68 257 24 z "},"₁":{"ha":261,"x_min":0,"x_max":0,"o":"m 226 0 l 226 31 l 149 31 l 149 478 l 121 478 b 53 404 114 428 99 404 l 53 372 b 118 415 92 374 110 389 l 118 31 l 39 31 l 39 0 z "},"₂":{"ha":363,"x_min":0,"x_max":0,"o":"m 314 0 l 314 32 l 86 32 b 307 356 94 169 307 213 l 307 369 b 185 483 307 433 265 483 b 61 357 106 483 61 435 l 61 294 l 94 294 l 94 357 b 185 454 94 421 124 454 b 275 369 246 454 275 421 l 275 356 b 56 25 275 229 56 185 l 56 0 z "},"₃":{"ha":372,"x_min":0,"x_max":0,"o":"m 189 -7 b 317 119 281 -7 317 42 l 317 136 b 247 247 317 193 296 232 b 310 357 293 263 310 304 l 310 367 b 188 483 310 436 271 483 b 63 369 106 483 63 438 l 63 322 l 96 322 l 96 369 b 188 454 96 421 126 454 b 279 368 250 454 279 419 l 279 357 b 193 261 279 300 263 261 l 147 261 l 147 231 l 194 231 b 285 136 261 231 285 197 l 285 119 b 189 24 285 54 256 24 b 89 110 119 24 89 53 l 89 168 l 56 168 l 56 110 b 189 -7 56 32 99 -7 z "},"₄":{"ha":358,"x_min":0,"x_max":0,"o":"m 324 115 l 324 143 l 264 143 l 264 478 l 232 478 l 38 142 l 38 115 l 235 115 l 235 0 l 264 0 l 264 115 z m 235 415 l 235 143 l 72 143 l 238 432 z "},"₅":{"ha":376,"x_min":0,"x_max":0,"o":"m 190 -7 b 318 125 269 -7 318 36 l 318 190 b 201 322 318 282 276 322 b 100 264 151 322 121 300 b 119 447 104 308 115 403 l 264 447 b 297 478 290 447 297 456 l 93 478 l 67 224 l 93 217 l 100 229 b 200 293 121 268 143 293 b 288 188 260 293 288 267 l 288 124 b 190 24 288 54 253 24 b 94 114 125 24 94 54 l 94 144 l 63 144 l 63 113 b 190 -7 63 40 100 -7 z "},"₆":{"ha":382,"x_min":0,"x_max":0,"o":"m 324 125 l 324 169 b 196 294 324 254 281 294 b 92 224 140 294 107 264 l 92 324 b 192 454 92 410 122 454 b 279 361 257 454 279 419 l 279 342 l 313 342 l 313 363 b 192 483 313 440 269 483 b 61 324 100 483 61 426 l 61 139 b 194 -7 61 44 104 -7 b 324 125 285 -7 324 50 z m 194 24 b 92 139 128 24 92 64 l 92 153 b 193 265 90 208 122 265 b 293 168 264 265 293 235 l 293 125 b 194 24 293 65 263 24 z "},"₇":{"ha":311,"x_min":0,"x_max":0,"o":"m 126 0 b 275 453 149 158 210 328 l 275 478 l 35 478 l 35 446 l 242 446 b 93 0 181 328 118 158 z "},"₈":{"ha":371,"x_min":0,"x_max":0,"o":"m 185 -7 b 318 113 271 -7 318 36 l 318 135 b 240 244 318 199 285 233 b 310 347 281 257 310 289 l 310 367 b 186 483 310 440 269 483 b 64 367 100 483 64 436 l 64 347 b 126 244 64 289 88 256 b 53 135 83 232 53 194 l 53 113 b 185 -7 53 35 94 -7 z m 194 258 l 175 258 b 96 346 121 258 96 292 l 96 365 b 186 454 96 417 121 454 b 278 367 249 454 278 422 l 278 347 b 194 258 278 290 249 258 z m 185 24 b 85 114 117 24 85 58 l 85 138 b 175 229 85 194 119 229 l 194 229 b 286 138 253 229 286 200 l 286 114 b 185 24 286 58 253 24 z "},"₉":{"ha":381,"x_min":0,"x_max":0,"o":"m 189 224 b 89 326 118 224 89 260 l 89 350 b 188 454 89 410 119 454 b 290 336 254 454 290 411 b 189 224 292 281 260 224 z m 190 -7 b 321 151 282 -7 321 49 l 321 336 b 188 483 321 431 278 483 b 58 350 97 483 58 425 l 58 325 b 186 194 58 240 101 194 b 290 265 242 194 275 225 l 290 151 b 190 24 290 65 260 24 b 96 121 125 24 96 50 l 96 140 l 63 140 l 63 119 b 190 -7 63 25 113 -7 z "},"₊":{"ha":371,"x_min":0,"x_max":0,"o":"m 304 229 l 304 258 l 197 258 l 197 360 l 168 360 l 168 258 l 63 258 l 63 229 l 168 229 l 168 122 l 197 122 l 197 229 z "},"₋":{"ha":371,"x_min":0,"x_max":0,"o":"m 304 228 l 304 258 l 63 258 l 63 228 z "},"₌":{"ha":371,"x_min":0,"x_max":0,"o":"m 297 292 l 297 322 l 69 322 l 69 292 z m 297 161 l 297 192 l 69 192 l 69 161 z "},"₍":{"ha":256,"x_min":0,"x_max":0,"o":"m 75 90 b 235 -131 75 -57 133 -125 l 235 -100 b 106 94 153 -94 106 -36 l 106 335 b 235 532 106 463 149 526 l 235 563 b 75 336 129 556 75 479 z "},"₎":{"ha":256,"x_min":0,"x_max":0,"o":"m 21 -131 b 181 90 122 -125 181 -57 l 181 336 b 21 563 181 479 126 556 l 21 532 b 150 335 106 526 150 464 l 150 94 b 21 -100 150 -36 103 -96 z "},"⁄":{"ha":808,"x_min":0,"x_max":0,"o":"m 450 553 l 729 981 l 693 1003 l 435 561 z m 367 456 l 75 7 l 113 -19 l 382 446 z "},"⅟":{"ha":808,"x_min":0,"x_max":0,"o":"m 450 553 l 729 981 l 693 1003 l 435 561 z m 367 456 l 75 7 l 113 -19 l 382 446 z m 289 504 l 289 535 l 211 535 l 211 982 l 183 982 b 115 908 176 932 161 908 l 115 876 b 181 919 154 878 172 893 l 181 535 l 101 535 l 101 504 z "},"½":{"ha":808,"x_min":0,"x_max":0,"o":"m 450 553 l 729 981 l 693 1003 l 435 561 z m 367 456 l 75 7 l 113 -19 l 382 446 z m 289 504 l 289 535 l 211 535 l 211 982 l 183 982 b 115 908 176 932 161 908 l 115 876 b 181 919 154 878 172 893 l 181 535 l 101 535 l 101 504 z m 740 0 l 740 32 l 513 32 b 733 356 521 169 733 213 l 733 369 b 611 483 733 433 692 483 b 488 357 532 483 488 435 l 488 294 l 521 294 l 521 357 b 611 454 521 421 550 454 b 701 369 672 454 701 421 l 701 356 b 482 25 701 229 482 185 l 482 0 z "},"⅓":{"ha":808,"x_min":0,"x_max":0,"o":"m 450 553 l 729 981 l 693 1003 l 435 561 z m 367 456 l 75 7 l 113 -19 l 382 446 z m 289 504 l 289 535 l 211 535 l 211 982 l 183 982 b 115 908 176 932 161 908 l 115 876 b 181 919 154 878 172 893 l 181 535 l 101 535 l 101 504 z m 608 -7 b 736 119 700 -7 736 42 l 736 136 b 667 247 736 193 715 232 b 729 357 713 263 729 304 l 729 367 b 607 483 729 436 690 483 b 482 369 525 483 482 438 l 482 322 l 515 322 l 515 369 b 607 454 515 421 546 454 b 699 368 669 454 699 419 l 699 357 b 613 261 699 300 682 261 l 567 261 l 567 231 l 614 231 b 704 136 681 231 704 197 l 704 119 b 608 24 704 54 675 24 b 508 110 539 24 508 53 l 508 168 l 475 168 l 475 110 b 608 -7 475 32 518 -7 z "},"⅔":{"ha":808,"x_min":0,"x_max":0,"o":"m 450 553 l 729 981 l 693 1003 l 435 561 z m 367 456 l 75 7 l 113 -19 l 382 446 z m 321 504 l 321 536 l 93 536 b 314 860 101 674 314 717 l 314 874 b 192 988 314 938 272 988 b 68 861 113 988 68 939 l 68 799 l 101 799 l 101 861 b 192 958 101 925 131 958 b 282 874 253 958 282 925 l 282 860 b 63 529 282 733 63 689 l 63 504 z m 608 -7 b 736 119 700 -7 736 42 l 736 136 b 667 247 736 193 715 232 b 729 357 713 263 729 304 l 729 367 b 607 483 729 436 690 483 b 482 369 525 483 482 438 l 482 322 l 515 322 l 515 369 b 607 454 515 421 546 454 b 699 368 669 454 699 419 l 699 357 b 613 261 699 300 682 261 l 567 261 l 567 231 l 614 231 b 704 136 681 231 704 197 l 704 119 b 608 24 704 54 675 24 b 508 110 539 24 508 53 l 508 168 l 475 168 l 475 110 b 608 -7 475 32 518 -7 z "},"¼":{"ha":808,"x_min":0,"x_max":0,"o":"m 450 553 l 729 981 l 693 1003 l 435 561 z m 367 456 l 75 7 l 113 -19 l 382 446 z m 701 115 l 701 143 l 642 143 l 642 478 l 610 478 l 415 142 l 415 115 l 613 115 l 613 0 l 642 0 l 642 115 z m 613 415 l 613 143 l 450 143 l 615 432 z m 290 504 l 290 535 l 213 535 l 213 982 l 185 982 b 117 908 178 932 163 908 l 117 876 b 182 919 156 878 174 893 l 182 535 l 103 535 l 103 504 z "},"¾":{"ha":808,"x_min":0,"x_max":0,"o":"m 450 553 l 729 981 l 693 1003 l 435 561 z m 367 456 l 75 7 l 113 -19 l 382 446 z m 701 115 l 701 143 l 642 143 l 642 478 l 610 478 l 415 142 l 415 115 l 613 115 l 613 0 l 642 0 l 642 115 z m 613 415 l 613 143 l 450 143 l 615 432 z m 200 497 b 328 624 292 497 328 546 l 328 640 b 258 751 328 697 307 736 b 321 861 304 767 321 808 l 321 871 b 199 988 321 940 282 988 b 74 874 117 988 74 942 l 74 826 l 107 826 l 107 874 b 199 958 107 925 138 958 b 290 872 261 958 290 924 l 290 861 b 204 765 290 804 274 765 l 158 765 l 158 735 l 206 735 b 296 640 272 735 296 701 l 296 624 b 200 528 296 558 267 528 b 100 614 131 528 100 557 l 100 672 l 67 672 l 67 614 b 200 497 67 536 110 497 z "},"⅕":{"ha":808,"x_min":0,"x_max":0,"o":"m 450 553 l 729 981 l 693 1003 l 435 561 z m 367 456 l 75 7 l 113 -19 l 382 446 z m 610 -7 b 738 125 689 -7 738 36 l 738 190 b 621 322 738 282 696 322 b 519 264 571 322 540 300 b 539 447 524 308 535 403 l 683 447 b 717 478 710 447 717 456 l 513 478 l 486 224 l 513 217 l 519 229 b 619 293 540 268 563 293 b 707 188 679 293 707 267 l 707 124 b 610 24 707 54 672 24 b 514 114 544 24 514 54 l 514 144 l 482 144 l 482 113 b 610 -7 482 40 519 -7 z m 290 504 l 290 535 l 213 535 l 213 982 l 185 982 b 117 908 178 932 163 908 l 117 876 b 182 919 156 878 174 893 l 182 535 l 103 535 l 103 504 z "},"⅖":{"ha":808,"x_min":0,"x_max":0,"o":"m 450 553 l 729 981 l 693 1003 l 435 561 z m 367 456 l 75 7 l 113 -19 l 382 446 z m 610 -7 b 738 125 689 -7 738 36 l 738 190 b 621 322 738 282 696 322 b 519 264 571 322 540 300 b 539 447 524 308 535 403 l 683 447 b 717 478 710 447 717 456 l 513 478 l 486 224 l 513 217 l 519 229 b 619 293 540 268 563 293 b 707 188 679 293 707 267 l 707 124 b 610 24 707 54 672 24 b 514 114 544 24 514 54 l 514 144 l 482 144 l 482 113 b 610 -7 482 40 519 -7 z m 321 504 l 321 536 l 93 536 b 314 860 101 674 314 717 l 314 874 b 192 988 314 938 272 988 b 68 861 113 988 68 939 l 68 799 l 101 799 l 101 861 b 192 958 101 925 131 958 b 282 874 253 958 282 925 l 282 860 b 63 529 282 733 63 689 l 63 504 z "},"⅗":{"ha":808,"x_min":0,"x_max":0,"o":"m 450 553 l 729 981 l 693 1003 l 435 561 z m 367 456 l 75 7 l 113 -19 l 382 446 z m 610 -7 b 738 125 689 -7 738 36 l 738 190 b 621 322 738 282 696 322 b 519 264 571 322 540 300 b 539 447 524 308 535 403 l 683 447 b 717 478 710 447 717 456 l 513 478 l 486 224 l 513 217 l 519 229 b 619 293 540 268 563 293 b 707 188 679 293 707 267 l 707 124 b 610 24 707 54 672 24 b 514 114 544 24 514 54 l 514 144 l 482 144 l 482 113 b 610 -7 482 40 519 -7 z m 200 497 b 328 624 292 497 328 546 l 328 640 b 258 751 328 697 307 736 b 321 861 304 767 321 808 l 321 871 b 199 988 321 940 282 988 b 74 874 117 988 74 942 l 74 826 l 107 826 l 107 874 b 199 958 107 925 138 958 b 290 872 261 958 290 924 l 290 861 b 204 765 290 804 274 765 l 158 765 l 158 735 l 206 735 b 296 640 272 735 296 701 l 296 624 b 200 528 296 558 267 528 b 100 614 131 528 100 557 l 100 672 l 67 672 l 67 614 b 200 497 67 536 110 497 z "},"⅘":{"ha":808,"x_min":0,"x_max":0,"o":"m 450 553 l 729 981 l 693 1003 l 435 561 z m 367 456 l 75 7 l 113 -19 l 382 446 z m 610 -7 b 738 125 689 -7 738 36 l 738 190 b 621 322 738 282 696 322 b 519 264 571 322 540 300 b 539 447 524 308 535 403 l 683 447 b 717 478 710 447 717 456 l 513 478 l 486 224 l 513 217 l 519 229 b 619 293 540 268 563 293 b 707 188 679 293 707 267 l 707 124 b 610 24 707 54 672 24 b 514 114 544 24 514 54 l 514 144 l 482 144 l 482 113 b 610 -7 482 40 519 -7 z m 336 619 l 336 647 l 276 647 l 276 982 l 244 982 l 50 646 l 50 619 l 247 619 l 247 504 l 276 504 l 276 619 z m 247 919 l 247 647 l 85 647 l 250 936 z "},"⅙":{"ha":808,"x_min":0,"x_max":0,"o":"m 450 553 l 729 981 l 693 1003 l 435 561 z m 367 456 l 75 7 l 113 -19 l 382 446 z m 290 504 l 290 535 l 213 535 l 213 982 l 185 982 b 117 908 178 932 163 908 l 117 876 b 182 919 156 878 174 893 l 182 535 l 103 535 l 103 504 z m 738 125 l 738 169 b 610 294 738 254 694 294 b 506 224 554 294 521 264 l 506 324 b 606 454 506 410 536 454 b 693 361 671 454 693 419 l 693 342 l 726 342 l 726 363 b 606 483 726 440 683 483 b 475 324 514 483 475 426 l 475 139 b 608 -7 475 44 518 -7 b 738 125 699 -7 738 50 z m 608 24 b 506 139 542 24 506 64 l 506 153 b 607 265 504 208 536 265 b 707 168 678 265 707 235 l 707 125 b 608 24 707 65 676 24 z "},"⅚":{"ha":808,"x_min":0,"x_max":0,"o":"m 450 553 l 729 981 l 693 1003 l 435 561 z m 367 456 l 75 7 l 113 -19 l 382 446 z m 204 497 b 332 629 283 497 332 540 l 332 694 b 215 826 332 786 290 826 b 114 768 165 826 135 804 b 133 951 118 813 129 907 l 278 951 b 311 982 304 951 311 960 l 107 982 l 81 728 l 107 721 l 114 733 b 214 797 135 772 157 797 b 301 692 274 797 301 771 l 301 628 b 204 528 301 558 267 528 b 108 618 139 528 108 558 l 108 649 l 76 649 l 76 617 b 204 497 76 544 114 497 z m 738 125 l 738 169 b 610 294 738 254 694 294 b 506 224 554 294 521 264 l 506 324 b 606 454 506 410 536 454 b 693 361 671 454 693 419 l 693 342 l 726 342 l 726 363 b 606 483 726 440 683 483 b 475 324 514 483 475 426 l 475 139 b 608 -7 475 44 518 -7 b 738 125 699 -7 738 50 z m 608 24 b 506 139 542 24 506 64 l 506 153 b 607 265 504 208 536 265 b 707 168 678 265 707 235 l 707 125 b 608 24 707 65 676 24 z "},"⅛":{"ha":808,"x_min":0,"x_max":0,"o":"m 450 553 l 729 981 l 693 1003 l 435 561 z m 367 456 l 75 7 l 113 -19 l 382 446 z m 290 504 l 290 535 l 213 535 l 213 982 l 185 982 b 117 908 178 932 163 908 l 117 876 b 182 919 156 878 174 893 l 182 535 l 103 535 l 103 504 z m 610 -7 b 743 113 696 -7 743 36 l 743 135 b 665 244 743 199 710 233 b 735 347 706 257 735 289 l 735 367 b 611 483 735 440 694 483 b 489 367 525 483 489 436 l 489 347 b 551 244 489 289 513 256 b 478 135 508 232 478 194 l 478 113 b 610 -7 478 35 519 -7 z m 619 258 l 600 258 b 521 346 546 258 521 292 l 521 365 b 611 454 521 417 546 454 b 703 367 674 454 703 422 l 703 347 b 619 258 703 290 674 258 z m 610 24 b 510 114 542 24 510 58 l 510 138 b 600 229 510 194 544 229 l 619 229 b 711 138 678 229 711 200 l 711 114 b 610 24 711 58 678 24 z "},"⅜":{"ha":808,"x_min":0,"x_max":0,"o":"m 450 553 l 729 981 l 693 1003 l 435 561 z m 367 456 l 75 7 l 113 -19 l 382 446 z m 610 -7 b 743 113 696 -7 743 36 l 743 135 b 665 244 743 199 710 233 b 735 347 706 257 735 289 l 735 367 b 611 483 735 440 694 483 b 489 367 525 483 489 436 l 489 347 b 551 244 489 289 513 256 b 478 135 508 232 478 194 l 478 113 b 610 -7 478 35 519 -7 z m 619 258 l 600 258 b 521 346 546 258 521 292 l 521 365 b 611 454 521 417 546 454 b 703 367 674 454 703 422 l 703 347 b 619 258 703 290 674 258 z m 610 24 b 510 114 542 24 510 58 l 510 138 b 600 229 510 194 544 229 l 619 229 b 711 138 678 229 711 200 l 711 114 b 610 24 711 58 678 24 z m 200 497 b 328 624 292 497 328 546 l 328 640 b 258 751 328 697 307 736 b 321 861 304 767 321 808 l 321 871 b 199 988 321 940 282 988 b 74 874 117 988 74 942 l 74 826 l 107 826 l 107 874 b 199 958 107 925 138 958 b 290 872 261 958 290 924 l 290 861 b 204 765 290 804 274 765 l 158 765 l 158 735 l 206 735 b 296 640 272 735 296 701 l 296 624 b 200 528 296 558 267 528 b 100 614 131 528 100 557 l 100 672 l 67 672 l 67 614 b 200 497 67 536 110 497 z "},"⅝":{"ha":808,"x_min":0,"x_max":0,"o":"m 450 553 l 729 981 l 693 1003 l 435 561 z m 367 456 l 75 7 l 113 -19 l 382 446 z m 610 -7 b 743 113 696 -7 743 36 l 743 135 b 665 244 743 199 710 233 b 735 347 706 257 735 289 l 735 367 b 611 483 735 440 694 483 b 489 367 525 483 489 436 l 489 347 b 551 244 489 289 513 256 b 478 135 508 232 478 194 l 478 113 b 610 -7 478 35 519 -7 z m 619 258 l 600 258 b 521 346 546 258 521 292 l 521 365 b 611 454 521 417 546 454 b 703 367 674 454 703 422 l 703 347 b 619 258 703 290 674 258 z m 610 24 b 510 114 542 24 510 58 l 510 138 b 600 229 510 194 544 229 l 619 229 b 711 138 678 229 711 200 l 711 114 b 610 24 711 58 678 24 z m 204 497 b 332 629 283 497 332 540 l 332 694 b 215 826 332 786 290 826 b 114 768 165 826 135 804 b 133 951 118 813 129 907 l 278 951 b 311 982 304 951 311 960 l 107 982 l 81 728 l 107 721 l 114 733 b 214 797 135 772 157 797 b 301 692 274 797 301 771 l 301 628 b 204 528 301 558 267 528 b 108 618 139 528 108 558 l 108 649 l 76 649 l 76 617 b 204 497 76 544 114 497 z "},"⅞":{"ha":808,"x_min":0,"x_max":0,"o":"m 450 553 l 729 981 l 693 1003 l 435 561 z m 367 456 l 75 7 l 113 -19 l 382 446 z m 610 -7 b 743 113 696 -7 743 36 l 743 135 b 665 244 743 199 710 233 b 735 347 706 257 735 289 l 735 367 b 611 483 735 440 694 483 b 489 367 525 483 489 436 l 489 347 b 551 244 489 289 513 256 b 478 135 508 232 478 194 l 478 113 b 610 -7 478 35 519 -7 z m 619 258 l 600 258 b 521 346 546 258 521 292 l 521 365 b 611 454 521 417 546 454 b 703 367 674 454 703 422 l 703 347 b 619 258 703 290 674 258 z m 610 24 b 510 114 542 24 510 58 l 510 138 b 600 229 510 194 544 229 l 619 229 b 711 138 678 229 711 200 l 711 114 b 610 24 711 58 678 24 z m 221 504 b 369 957 243 663 304 832 l 369 982 l 129 982 l 129 950 l 336 950 b 188 504 275 832 213 663 z "},"%":{"ha":793,"x_min":0,"x_max":0,"o":"m 213 599 b 356 751 304 599 356 660 l 356 839 b 213 990 356 932 303 990 b 71 839 129 990 71 935 l 71 751 b 213 599 71 653 122 599 z m 90 0 l 131 0 l 701 981 l 664 981 z m 213 632 b 104 751 144 632 104 675 l 104 839 b 213 958 104 915 149 958 b 321 839 276 958 321 914 l 321 751 b 213 632 321 679 282 632 z m 576 -14 b 719 140 668 -14 719 49 l 719 228 b 578 381 719 321 667 381 b 435 228 493 381 435 324 l 435 140 b 576 -14 435 42 486 -14 z m 576 21 b 469 140 510 21 469 64 l 469 228 b 578 349 469 304 513 349 b 686 228 640 349 686 303 l 686 140 b 576 21 686 68 646 21 z "},"‰":{"ha":1189,"x_min":0,"x_max":0,"o":"m 213 599 b 356 751 304 599 356 660 l 356 839 b 213 990 356 932 303 990 b 71 839 129 990 71 935 l 71 751 b 213 599 71 653 122 599 z m 90 0 l 131 0 l 701 981 l 664 981 z m 213 632 b 104 751 144 632 104 675 l 104 839 b 213 958 104 915 149 958 b 321 839 276 958 321 914 l 321 751 b 213 632 321 679 282 632 z m 576 -14 b 719 140 668 -14 719 49 l 719 228 b 578 381 719 321 667 381 b 435 228 493 381 435 324 l 435 140 b 576 -14 435 42 486 -14 z m 972 -14 b 1115 140 1064 -14 1115 49 l 1115 228 b 974 381 1115 321 1063 381 b 831 228 889 381 831 324 l 831 140 b 972 -14 831 42 882 -14 z m 576 21 b 469 140 510 21 469 64 l 469 228 b 578 349 469 304 513 349 b 686 228 640 349 686 303 l 686 140 b 576 21 686 68 646 21 z m 972 21 b 865 140 906 21 865 64 l 865 228 b 974 349 865 304 908 349 b 1082 228 1036 349 1082 303 l 1082 140 b 972 21 1082 68 1042 21 z "},"№":{"ha":1163,"x_min":0,"x_max":0,"o":"m 942 418 b 1118 606 1050 418 1118 492 l 1118 810 b 942 1000 1118 925 1050 1000 b 765 808 836 1000 765 926 l 765 604 b 942 418 765 492 826 418 z m 942 450 b 800 606 847 450 800 513 l 800 808 b 942 968 800 907 856 968 b 1085 810 1031 968 1085 903 l 1085 606 b 942 450 1085 513 1036 450 z m 151 817 l 147 931 l 160 894 l 599 0 l 629 0 l 629 981 l 594 981 l 594 182 l 600 54 l 579 113 l 150 981 l 117 981 l 117 0 l 151 0 z m 1106 289 l 782 289 l 782 254 l 1106 254 z "},"¤":{"ha":674,"x_min":0,"x_max":0,"o":"m 340 289 b 161 474 236 289 161 372 l 161 518 b 340 703 161 621 238 703 b 519 518 444 703 519 621 l 519 475 b 340 289 519 371 443 289 z m 340 258 b 481 308 396 258 443 276 l 574 206 l 594 228 l 501 331 b 553 475 535 368 553 418 l 553 518 b 503 661 553 574 535 624 l 594 768 l 569 788 l 481 683 b 340 735 444 715 396 735 b 197 682 285 735 235 715 l 104 789 l 82 767 l 176 660 b 126 517 144 622 126 572 l 126 474 b 175 333 126 419 144 371 l 76 224 l 101 201 l 197 310 b 340 258 235 278 283 258 z "},"←":{"ha":1053,"x_min":0,"x_max":0,"o":"m 961 481 l 961 515 l 125 515 b 329 761 190 556 288 651 l 290 761 b 61 507 251 658 138 546 l 61 489 b 290 236 136 453 249 338 l 331 236 b 128 481 286 340 193 438 z "},"→":{"ha":1053,"x_min":0,"x_max":0,"o":"m 754 236 b 983 489 794 338 907 453 l 983 507 b 754 761 908 544 794 660 l 715 761 b 921 515 758 654 856 557 l 83 515 l 83 482 l 919 482 b 715 236 854 439 757 343 z "},"↑":{"ha":1053,"x_min":0,"x_max":0,"o":"m 776 647 l 776 685 b 524 915 675 725 561 839 l 506 915 b 253 685 469 839 353 726 l 253 646 b 497 850 357 690 454 785 l 497 63 l 531 63 l 531 853 b 776 647 571 786 668 688 z "},"↓":{"ha":1053,"x_min":0,"x_max":0,"o":"m 524 63 b 776 292 560 138 675 250 l 776 332 b 532 128 672 288 574 193 l 532 914 l 497 914 l 497 126 b 251 331 457 192 361 289 l 251 292 b 506 63 354 253 467 139 z "},"↖":{"ha":1053,"x_min":0,"x_max":0,"o":"m 840 192 l 249 783 b 567 813 324 765 463 764 l 540 839 b 199 822 440 796 279 796 l 186 810 b 169 469 214 731 211 569 l 197 440 b 226 758 239 546 242 682 l 817 167 z "},"↗":{"ha":1053,"x_min":0,"x_max":0,"o":"m 821 442 l 849 468 b 832 810 804 568 804 729 l 819 822 b 478 839 740 794 579 797 l 450 811 b 767 782 556 769 690 767 l 176 192 l 200 168 l 792 760 b 821 442 775 685 774 547 z "},"↘":{"ha":1053,"x_min":0,"x_max":0,"o":"m 819 176 l 832 189 b 847 531 804 268 806 429 l 819 558 b 792 242 778 454 775 318 l 200 832 l 176 808 l 769 217 b 450 188 694 233 556 235 l 478 160 b 819 176 578 204 738 204 z "},"↙":{"ha":1053,"x_min":0,"x_max":0,"o":"m 540 160 l 568 188 b 251 217 463 229 328 232 l 842 807 l 818 831 l 226 239 b 197 557 243 314 244 451 l 169 531 b 186 189 214 431 214 269 l 199 176 b 540 160 278 204 439 201 z "},"○":{"ha":1258,"x_min":0,"x_max":0,"o":"m 629 -14 b 1133 490 919 -14 1133 196 b 629 994 1133 781 924 994 b 125 490 339 994 125 785 b 629 -14 125 196 335 -14 z m 629 25 b 168 490 360 25 168 226 b 629 956 168 758 368 956 b 1090 490 894 956 1090 754 b 629 25 1090 226 890 25 z "},"●":{"ha":1258,"x_min":0,"x_max":0,"o":"m 629 -14 b 1133 490 919 -14 1133 196 b 629 994 1133 781 924 994 b 125 490 339 994 125 785 b 629 -14 125 196 335 -14 z "},"■":{"ha":1246,"x_min":0,"x_max":0,"o":"m 136 0 l 1111 0 l 1111 981 l 136 981 z "},"□":{"ha":1246,"x_min":0,"x_max":0,"o":"m 136 0 l 1111 0 l 1111 981 l 136 981 z m 178 940 l 1068 940 l 1068 40 l 178 40 z "},"⊠":{"ha":1246,"x_min":0,"x_max":0,"o":"m 136 0 l 1111 0 l 1111 981 l 136 981 z m 178 940 l 1068 940 l 1068 40 l 178 40 z m 889 196 l 918 224 l 656 494 l 911 758 l 883 788 l 628 522 l 368 789 l 339 761 l 600 493 l 332 217 l 358 188 l 626 465 z "},"▪":{"ha":1063,"x_min":0,"x_max":0,"o":"m 140 0 l 922 0 l 922 782 l 140 782 z "},"▫":{"ha":1063,"x_min":0,"x_max":0,"o":"m 140 0 l 922 0 l 922 782 l 140 782 z m 182 742 l 881 742 l 881 40 l 182 40 z "},"▲":{"ha":1207,"x_min":0,"x_max":0,"o":"m 1179 0 l 604 997 l 28 0 z "},"▼":{"ha":1207,"x_min":0,"x_max":0,"o":"m 28 981 l 604 -17 l 1179 981 z "},"◄":{"ha":1207,"x_min":0,"x_max":0,"o":"m 1072 1075 l 75 500 l 1072 -76 z "},"►":{"ha":1207,"x_min":0,"x_max":0,"o":"m 136 -76 l 1132 500 l 136 1075 z "},"◤":{"ha":1207,"x_min":0,"x_max":0,"o":"m 1153 -72 l 854 1039 l 40 225 z "},"◥":{"ha":1207,"x_min":0,"x_max":0,"o":"m 1172 219 l 360 1035 l 61 -78 z "},"◢":{"ha":1207,"x_min":0,"x_max":0,"o":"m 1174 715 l 63 1014 l 360 -99 z "},"◣":{"ha":1207,"x_min":0,"x_max":0,"o":"m 850 -99 l 1149 1014 l 36 715 z "},"◎":{"ha":1221,"x_min":0,"x_max":0,"o":"m 607 -14 b 1100 475 896 -14 1100 196 b 607 969 1100 763 892 969 b 121 475 325 969 121 758 b 607 -14 121 192 325 -14 z m 607 161 b 297 475 433 161 297 297 b 607 797 297 658 433 797 b 924 475 790 797 924 654 b 607 161 924 297 790 161 z m 608 249 b 840 474 742 249 840 346 b 608 704 840 604 740 704 b 382 474 481 704 382 604 b 608 249 382 343 476 249 z m 608 399 b 539 474 569 399 539 433 b 608 554 539 521 569 554 b 683 474 653 554 683 521 b 608 399 683 433 653 399 z "},"★":{"ha":1253,"x_min":0,"x_max":0,"o":"m 782 421 l 1042 607 l 722 608 l 624 911 l 524 608 l 206 610 l 464 422 l 364 118 l 622 306 l 882 118 z "},"☼":{"ha":1292,"x_min":0,"x_max":0,"o":"m 628 789 l 656 789 l 679 986 l 604 986 z m 485 743 l 506 757 l 429 942 l 364 903 z m 778 757 l 799 743 l 919 903 l 854 942 z m 381 632 l 394 653 l 235 774 l 196 708 z m 889 654 l 903 632 l 1088 710 l 1046 774 z m 400 494 b 642 253 400 363 510 253 b 883 494 774 253 883 363 b 642 736 883 626 774 736 b 400 494 510 736 400 626 z m 349 482 l 349 510 l 151 533 l 151 458 z m 935 510 l 935 482 l 1132 458 l 1132 533 z m 903 360 l 889 339 l 1049 218 l 1088 283 z m 394 338 l 381 360 l 196 282 l 238 218 z m 799 249 l 778 235 l 854 50 l 919 89 z m 506 235 l 485 249 l 364 89 l 429 50 z m 656 203 l 628 203 l 604 6 l 679 6 z "},"☾":{"ha":1096,"x_min":0,"x_max":0,"o":"m 743 840 b 842 824 776 840 810 832 b 594 903 771 874 685 903 b 183 492 368 903 183 718 b 594 81 183 265 368 81 b 842 160 685 81 771 110 b 743 143 810 150 776 143 b 411 492 560 143 411 300 b 743 840 411 683 560 840 z "},"♻":{"ha":1154,"x_min":0,"x_max":0,"o":"m 488 944 b 594 878 488 944 558 940 l 679 731 l 632 703 l 833 665 l 907 863 l 856 833 l 822 890 b 715 946 793 943 758 944 l 488 946 z m 247 732 l 424 631 l 560 867 b 367 908 536 913 436 950 b 326 872 347 899 332 882 z m 960 649 l 785 549 l 921 313 b 1053 460 969 313 1054 378 b 1042 511 1053 481 1047 501 z m 232 174 b 236 300 232 174 201 240 b 321 447 239 306 321 447 l 369 418 l 300 614 l 94 578 l 144 549 l 111 490 b 117 371 81 439 96 408 l 229 174 z m 1028 342 b 915 281 1028 342 985 281 l 744 281 l 744 339 l 613 179 l 744 19 l 744 78 l 813 78 b 915 143 874 78 892 107 l 1029 340 z m 538 78 l 538 281 l 265 281 b 326 93 239 238 256 135 b 379 78 344 82 365 78 z "},"♼":{"ha":1154,"x_min":0,"x_max":0,"o":"m 1047 492 b 579 964 1047 753 838 964 b 107 492 318 964 107 753 b 579 24 107 232 318 24 b 1047 492 838 24 1047 232 z m 500 850 l 676 850 b 760 807 711 850 736 847 l 786 763 l 825 785 l 769 632 l 613 661 l 650 683 l 583 797 b 500 849 557 843 500 849 z m 382 792 b 411 821 385 801 397 813 b 561 789 465 853 543 824 l 457 606 l 319 685 z m 933 514 b 944 474 939 504 944 490 b 842 357 944 410 881 357 l 735 540 l 872 619 z m 306 251 l 218 403 b 214 497 203 433 189 456 l 240 542 l 201 565 l 360 592 l 414 440 l 376 464 l 310 350 b 307 251 283 303 307 251 z m 925 379 l 836 228 b 757 178 819 200 806 178 l 706 178 l 706 132 l 601 256 l 706 378 l 706 335 l 836 335 b 924 381 892 335 924 381 z m 417 178 b 376 189 407 178 390 181 b 328 335 321 221 307 300 l 540 335 l 540 178 z "},"♽":{"ha":1154,"x_min":0,"x_max":0,"o":"m 1047 492 b 579 964 1047 753 838 964 b 107 492 318 964 107 753 b 579 24 107 232 318 24 b 1047 492 838 24 1047 232 z m 1024 492 b 579 46 1024 244 825 46 b 131 492 331 46 131 244 b 579 940 131 740 331 940 b 1024 492 825 940 1024 740 z m 500 849 b 583 797 500 849 557 843 l 650 683 l 613 661 l 769 632 l 825 785 l 786 763 l 760 807 b 676 850 736 847 711 850 l 500 850 z m 319 685 l 457 606 l 561 789 b 411 821 543 824 465 853 b 382 792 397 813 385 801 z m 872 619 l 735 540 l 842 357 b 944 474 881 357 944 410 b 933 514 944 490 939 504 z m 307 251 b 310 350 307 251 283 303 l 376 464 l 414 440 l 360 592 l 201 565 l 240 542 l 214 497 b 218 403 189 456 203 433 l 306 251 z m 924 381 b 836 335 924 381 892 335 l 706 335 l 706 378 l 601 256 l 706 132 l 706 178 l 757 178 b 836 228 806 178 819 200 l 925 379 z m 540 178 l 540 335 l 328 335 b 376 189 307 300 321 221 b 417 178 390 181 407 178 z "},"⌂":{"ha":1186,"x_min":0,"x_max":0,"o":"m 1046 0 l 1046 564 l 593 999 l 140 564 l 140 0 z "},"♠":{"ha":1256,"x_min":0,"x_max":0,"o":"m 672 394 b 919 211 708 300 786 211 b 1133 425 1038 211 1133 307 b 824 864 1133 581 1049 685 l 633 1015 l 632 1015 l 442 864 b 121 425 217 685 121 581 b 354 210 121 307 228 210 b 585 394 478 210 551 300 b 456 0 585 231 494 69 l 808 0 b 672 394 774 69 672 231 z "},"♣":{"ha":1256,"x_min":0,"x_max":0,"o":"m 900 178 b 1140 421 1033 178 1140 288 b 901 661 1140 554 1035 661 b 839 650 879 661 857 657 b 864 771 854 688 864 729 b 625 1008 864 903 757 1008 b 385 771 493 1008 385 903 b 413 653 385 731 396 689 b 356 661 394 657 376 661 b 114 421 222 661 114 554 b 356 178 114 288 222 178 b 583 342 461 178 546 247 b 457 0 567 197 492 61 l 810 0 b 678 340 779 61 696 197 b 900 178 714 246 796 178 z "},"♥":{"ha":1256,"x_min":0,"x_max":0,"o":"m 624 -24 l 815 190 b 1132 751 1043 442 1132 593 b 874 1008 1132 892 1014 1008 b 624 790 735 1008 639 914 b 372 1008 608 914 510 1008 b 122 751 232 1008 122 892 b 432 190 122 593 206 442 z "},"♦":{"ha":1256,"x_min":0,"x_max":0,"o":"m 182 506 l 628 -14 l 1072 506 l 628 1019 z "},"+":{"ha":650,"x_min":0,"x_max":0,"o":"m 525 468 l 525 501 l 342 501 l 342 678 l 307 678 l 307 501 l 128 501 l 128 468 l 307 468 l 307 292 l 342 292 l 342 468 z "},"−":{"ha":650,"x_min":0,"x_max":0,"o":"m 540 468 l 540 501 l 107 501 l 107 468 z "},"±":{"ha":650,"x_min":0,"x_max":0,"o":"m 518 589 l 518 622 l 340 622 l 340 792 l 306 792 l 306 622 l 133 622 l 133 589 l 306 589 l 306 419 l 340 419 l 340 589 z m 519 294 l 519 328 l 135 328 l 135 294 z "},"×":{"ha":650,"x_min":0,"x_max":0,"o":"m 489 303 l 513 326 l 343 504 l 506 671 l 483 694 l 319 528 l 165 689 l 143 665 l 297 504 l 124 326 l 146 303 l 319 481 z "},"÷":{"ha":650,"x_min":0,"x_max":0,"o":"m 319 621 b 354 658 340 621 354 632 b 321 701 354 686 343 701 b 286 660 297 701 286 686 b 319 621 286 632 299 621 z m 540 468 l 540 501 l 107 501 l 107 468 z m 319 265 b 353 303 340 265 353 275 b 319 344 353 331 342 344 b 283 304 296 344 283 331 b 319 265 283 275 297 265 z "},"=":{"ha":650,"x_min":0,"x_max":0,"o":"m 533 607 l 533 640 l 114 640 l 114 607 z m 533 350 l 533 383 l 114 383 l 114 350 z "},"≠":{"ha":650,"x_min":0,"x_max":0,"o":"m 533 350 l 533 383 l 306 383 l 368 607 l 533 607 l 533 640 l 378 640 l 414 767 l 383 767 l 347 640 l 114 640 l 114 607 l 338 607 l 275 383 l 114 383 l 114 350 l 265 350 l 226 213 l 257 213 l 296 350 z "},"≈":{"ha":650,"x_min":0,"x_max":0,"o":"m 215 640 b 126 594 172 640 139 615 l 126 553 b 214 607 142 585 179 607 b 436 557 276 607 353 557 b 521 600 474 557 508 581 l 521 646 b 436 592 507 614 476 592 b 215 640 369 592 292 640 z m 126 381 l 126 338 b 213 392 140 364 174 392 b 436 343 276 392 356 343 b 521 386 482 343 508 365 l 521 428 b 436 376 500 396 476 376 b 213 426 372 376 292 426 b 126 381 172 426 139 401 z "},"<":{"ha":650,"x_min":0,"x_max":0,"o":"m 506 314 l 506 353 l 167 503 l 506 650 l 506 688 l 124 518 l 124 488 z "},">":{"ha":650,"x_min":0,"x_max":0,"o":"m 149 314 l 531 488 l 531 518 l 149 688 l 149 650 l 488 503 l 149 353 z "},"≤":{"ha":650,"x_min":0,"x_max":0,"o":"m 510 397 l 510 436 l 171 571 l 510 706 l 510 743 l 126 588 l 126 557 z m 510 264 l 510 297 l 126 297 l 126 264 z "},"≥":{"ha":650,"x_min":0,"x_max":0,"o":"m 139 397 l 522 557 l 522 588 l 139 743 l 139 706 l 478 571 l 139 436 z m 522 264 l 522 297 l 139 297 l 139 264 z "},"¬":{"ha":706,"x_min":0,"x_max":0,"o":"m 611 304 l 611 607 l 67 607 l 67 574 l 576 574 l 576 304 z "},"≡":{"ha":650,"x_min":0,"x_max":0,"o":"m 533 661 l 533 694 l 114 694 l 114 661 z m 533 479 l 533 513 l 114 513 l 114 479 z m 533 299 l 533 332 l 114 332 l 114 299 z "},"′":{"ha":215,"x_min":0,"x_max":0,"o":"m 82 707 l 158 981 l 119 981 l 57 707 z "},"″":{"ha":325,"x_min":0,"x_max":0,"o":"m 82 707 l 157 981 l 118 981 l 56 707 z m 192 707 l 275 981 l 236 981 l 167 707 z "},"℅":{"ha":793,"x_min":0,"x_max":0,"o":"m 90 0 l 131 0 l 701 981 l 664 981 z m 214 599 b 353 742 307 599 353 658 l 353 746 l 318 746 l 318 742 b 214 632 318 678 285 632 b 104 751 146 632 104 675 l 104 839 b 214 958 104 915 150 958 b 317 854 279 958 317 921 l 317 850 l 351 850 l 351 854 b 214 990 351 939 306 990 b 71 839 131 990 71 935 l 71 751 b 214 599 71 653 124 599 z m 576 -14 b 719 140 668 -14 719 49 l 719 228 b 578 381 719 321 667 381 b 435 228 493 381 435 324 l 435 140 b 576 -14 435 42 486 -14 z m 576 21 b 469 140 510 21 469 64 l 469 228 b 578 349 469 304 513 349 b 686 228 640 349 686 303 l 686 140 b 576 21 686 68 646 21 z "},"‗":{"ha":564,"x_min":0,"x_max":0,"o":"m 514 33 l 51 33 l 51 0 l 514 0 z m 514 -107 l 51 -107 l 51 -140 l 514 -140 z "},"‼":{"ha":565,"x_min":0,"x_max":0,"o":"m 157 988 l 157 831 b 164 189 157 599 163 222 b 176 190 165 189 172 190 b 188 189 179 190 186 189 b 194 832 189 222 194 599 l 194 988 z m 372 988 l 372 831 b 379 189 372 599 378 222 b 392 190 381 189 388 190 b 403 189 394 190 401 189 b 410 832 404 222 410 599 l 410 988 z m 176 -10 b 217 40 201 -10 217 7 b 176 89 217 72 204 89 b 136 40 149 89 136 72 b 176 -10 136 6 150 -10 z m 392 -10 b 432 40 417 -10 432 7 b 392 89 432 72 419 89 b 351 40 364 89 351 72 b 392 -10 351 6 365 -10 z "},"∞":{"ha":950,"x_min":0,"x_max":0,"o":"m 236 342 b 475 471 333 342 415 421 b 715 342 535 421 615 342 b 869 496 804 342 869 404 b 715 650 869 585 808 650 b 474 514 618 650 535 565 b 236 650 413 565 331 650 b 81 496 144 650 81 585 b 236 342 81 404 149 342 z m 236 374 b 115 494 165 374 115 428 b 236 618 115 564 165 618 b 451 493 319 618 396 542 b 236 374 399 447 322 374 z m 715 374 b 497 492 626 374 550 446 b 715 618 553 540 629 618 b 836 494 788 618 836 564 b 715 374 836 428 788 374 z "},"∂":{"ha":664,"x_min":0,"x_max":0,"o":"m 332 -14 b 582 261 496 -14 582 82 l 582 536 b 283 1076 582 758 492 932 l 231 1076 b 543 656 413 954 513 821 b 328 797 510 744 435 797 b 82 535 182 797 82 708 l 82 244 b 332 -14 82 82 172 -14 z m 332 21 b 118 246 189 21 118 110 l 118 535 b 331 764 118 682 197 764 b 547 535 475 764 547 661 l 547 260 b 332 21 547 107 478 21 z "},"π":{"ha":763,"x_min":0,"x_max":0,"o":"m 519 183 b 681 0 519 38 550 0 l 711 0 l 711 33 l 682 33 b 556 183 576 33 556 63 l 556 949 l 715 949 l 715 981 l 46 981 l 46 949 l 199 949 l 199 0 l 233 0 l 233 949 l 519 949 z "},"μ":{"ha":661,"x_min":0,"x_max":0,"o":"m 318 -14 b 521 157 424 -14 494 51 l 526 0 l 553 0 l 553 783 l 518 783 l 518 286 b 319 21 518 121 440 21 b 143 242 197 21 143 101 l 143 783 l 108 783 l 108 -278 l 140 -278 l 140 121 b 318 -14 163 35 215 -14 z "},"∫":{"ha":349,"x_min":0,"x_max":0,"o":"m -24 -219 l 7 -219 b 178 -7 139 -219 179 -179 l 178 842 b 315 1024 178 996 206 1024 l 344 1024 l 344 1056 l 315 1056 b 144 843 183 1056 144 1015 l 144 -6 b 7 -189 144 -160 117 -189 l -24 -189 z "},"√":{"ha":822,"x_min":0,"x_max":0,"o":"m 379 0 l 776 981 l 740 981 l 365 56 l 183 618 l 49 618 l 49 586 l 157 586 l 346 0 z "},"∆":{"ha":799,"x_min":0,"x_max":0,"o":"m 779 0 l 400 997 l 21 0 z m 729 33 l 72 33 l 400 903 z "},"Ω":{"ha":850,"x_min":0,"x_max":0,"o":"m 342 29 b 129 560 253 158 129 326 b 422 958 129 842 256 958 b 719 560 582 958 719 854 b 510 29 719 324 599 164 l 529 0 l 817 0 l 817 33 l 553 33 b 756 560 639 154 756 324 b 422 990 756 869 610 990 b 93 560 228 990 93 854 b 297 33 93 324 210 150 l 35 33 l 35 0 l 322 0 z "},"∏":{"ha":763,"x_min":0,"x_max":0,"o":"m 522 0 l 558 0 l 558 949 l 717 949 l 717 981 l 46 981 l 46 949 l 200 949 l 200 0 l 235 0 l 235 949 l 522 949 z "},"∑":{"ha":535,"x_min":0,"x_max":0,"o":"m 482 33 l 86 33 l 338 507 l 94 947 l 472 947 l 472 981 l 58 981 l 58 943 l 299 510 l 47 35 l 47 0 l 482 0 z "},"◊":{"ha":828,"x_min":0,"x_max":0,"o":"m 410 122 l 774 485 l 407 850 l 44 488 z m 94 488 l 407 803 l 725 486 l 410 171 z "},"°":{"ha":447,"x_min":0,"x_max":0,"o":"m 222 692 b 376 838 317 692 376 751 l 376 844 b 224 994 376 936 314 994 b 71 844 140 994 71 940 l 71 838 b 222 692 71 749 131 692 z m 222 722 b 106 839 150 722 106 768 l 106 844 b 224 964 106 921 158 964 b 342 844 289 964 342 917 l 342 839 b 222 722 342 772 297 722 z "}}}
